0
SECTION
2
ENTITIES
0
LINE
8
SITE
10
0
20
0
30
0
11
80
21
0
31
0
0
LINE
8
SITE
10
80
20
0
30
0
11
80
21
50
31
0
0
LINE
8
SITE
10
80
20
50
30
0
11
0
21
50
31
0
0
LINE
8
SITE
10
0
20
50
30
0
11
0
21
0
31
0
0
LINE
8
OBSTACLE
10
20
20
15
30
0
11
25
21
15
31
0
0
LINE
8
OBSTACLE
10
25
20
15
30
0
11
25
21
19
31
0
0
LINE
8
OBSTACLE
10
25
20
19
30
0
11
20
21
19
31
0
0
LINE
8
OBSTACLE
10
20
20
19
30
0
11
20
21
15
31
0
0
TEXT
8
TEXT
10
22.5
20
17
30
0
40
0.8
1
transformer_pad
0
LINE
8
ACCESS
10
0
20
25
30
0
11
80
21
25
31
0
0
LINE
8
ACCESS
10
80
20
25
30
0
11
80
21
28
31
0
0
LINE
8
ACCESS
10
80
20
28
30
0
11
0
21
28
31
0
0
LINE
8
ACCESS
10
0
20
28
30
0
11
0
21
25
31
0
0
TEXT
8
TEXT
10
40
20
26.5
30
0
40
0.8
1
access_road
0
LINE
8
RESTRICTED
10
55
20
10
30
0
11
63
21
10
31
0
0
LINE
8
RESTRICTED
10
63
20
10
30
0
11
63
21
22
31
0
0
LINE
8
RESTRICTED
10
63
20
22
30
0
11
55
21
22
31
0
0
LINE
8
RESTRICTED
10
55
20
22
30
0
11
55
21
10
31
0
0
TEXT
8
TEXT
10
59
20
16
30
0
40
0.8
1
restricted_area
0
LINE
8
PANEL
10
2
20
2
30
0
11
3.1
21
2
31
0
0
LINE
8
PANEL
10
3.1
20
2
30
0
11
3.1
21
4.2
31
0
0
LINE
8
PANEL
10
3.1
20
4.2
30
0
11
2
21
4.2
31
0
0
LINE
8
PANEL
10
2
20
4.2
30
0
11
2
21
2
31
0
0
LINE
8
PANEL
10
3.3
20
2
30
0
11
4.4
21
2
31
0
0
LINE
8
PANEL
10
4.4
20
2
30
0
11
4.4
21
4.2
31
0
0
LINE
8
PANEL
10
4.4
20
4.2
30
0
11
3.3
21
4.2
31
0
0
LINE
8
PANEL
10
3.3
20
4.2
30
0
11
3.3
21
2
31
0
0
LINE
8
PANEL
10
4.6
20
2
30
0
11
5.7
21
2
31
0
0
LINE
8
PANEL
10
5.7
20
2
30
0
11
5.7
21
4.2
31
0
0
LINE
8
PANEL
10
5.7
20
4.2
30
0
11
4.6
21
4.2
31
0
0
LINE
8
PANEL
10
4.6
20
4.2
30
0
11
4.6
21
2
31
0
0
LINE
8
PANEL
10
5.9
20
2
30
0
11
7
21
2
31
0
0
LINE
8
PANEL
10
7
20
2
30
0
11
7
21
4.2
31
0
0
LINE
8
PANEL
10
7
20
4.2
30
0
11
5.9
21
4.2
31
0
0
LINE
8
PANEL
10
5.9
20
4.2
30
0
11
5.9
21
2
31
0
0
LINE
8
PANEL
10
7.2
20
2
30
0
11
8.3
21
2
31
0
0
LINE
8
PANEL
10
8.3
20
2
30
0
11
8.3
21
4.2
31
0
0
LINE
8
PANEL
10
8.3
20
4.2
30
0
11
7.2
21
4.2
31
0
0
LINE
8
PANEL
10
7.2
20
4.2
30
0
11
7.2
21
2
31
0
0
LINE
8
PANEL
10
8.5
20
2
30
0
11
9.6
21
2
31
0
0
LINE
8
PANEL
10
9.6
20
2
30
0
11
9.6
21
4.2
31
0
0
LINE
8
PANEL
10
9.6
20
4.2
30
0
11
8.5
21
4.2
31
0
0
LINE
8
PANEL
10
8.5
20
4.2
30
0
11
8.5
21
2
31
0
0
LINE
8
PANEL
10
9.8
20
2
30
0
11
10.9
21
2
31
0
0
LINE
8
PANEL
10
10.9
20
2
30
0
11
10.9
21
4.2
31
0
0
LINE
8
PANEL
10
10.9
20
4.2
30
0
11
9.8
21
4.2
31
0
0
LINE
8
PANEL
10
9.8
20
4.2
30
0
11
9.8
21
2
31
0
0
LINE
8
PANEL
10
11.1
20
2
30
0
11
12.2
21
2
31
0
0
LINE
8
PANEL
10
12.2
20
2
30
0
11
12.2
21
4.2
31
0
0
LINE
8
PANEL
10
12.2
20
4.2
30
0
11
11.1
21
4.2
31
0
0
LINE
8
PANEL
10
11.1
20
4.2
30
0
11
11.1
21
2
31
0
0
LINE
8
PANEL
10
12.4
20
2
30
0
11
13.5
21
2
31
0
0
LINE
8
PANEL
10
13.5
20
2
30
0
11
13.5
21
4.2
31
0
0
LINE
8
PANEL
10
13.5
20
4.2
30
0
11
12.4
21
4.2
31
0
0
LINE
8
PANEL
10
12.4
20
4.2
30
0
11
12.4
21
2
31
0
0
LINE
8
PANEL
10
13.7
20
2
30
0
11
14.8
21
2
31
0
0
LINE
8
PANEL
10
14.8
20
2
30
0
11
14.8
21
4.2
31
0
0
LINE
8
PANEL
10
14.8
20
4.2
30
0
11
13.7
21
4.2
31
0
0
LINE
8
PANEL
10
13.7
20
4.2
30
0
11
13.7
21
2
31
0
0
LINE
8
PANEL
10
15
20
2
30
0
11
16.1
21
2
31
0
0
LINE
8
PANEL
10
16.1
20
2
30
0
11
16.1
21
4.2
31
0
0
LINE
8
PANEL
10
16.1
20
4.2
30
0
11
15
21
4.2
31
0
0
LINE
8
PANEL
10
15
20
4.2
30
0
11
15
21
2
31
0
0
LINE
8
PANEL
10
16.3
20
2
30
0
11
17.4
21
2
31
0
0
LINE
8
PANEL
10
17.4
20
2
30
0
11
17.4
21
4.2
31
0
0
LINE
8
PANEL
10
17.4
20
4.2
30
0
11
16.3
21
4.2
31
0
0
LINE
8
PANEL
10
16.3
20
4.2
30
0
11
16.3
21
2
31
0
0
LINE
8
PANEL
10
17.6
20
2
30
0
11
18.7
21
2
31
0
0
LINE
8
PANEL
10
18.7
20
2
30
0
11
18.7
21
4.2
31
0
0
LINE
8
PANEL
10
18.7
20
4.2
30
0
11
17.6
21
4.2
31
0
0
LINE
8
PANEL
10
17.6
20
4.2
30
0
11
17.6
21
2
31
0
0
LINE
8
PANEL
10
18.9
20
2
30
0
11
20
21
2
31
0
0
LINE
8
PANEL
10
20
20
2
30
0
11
20
21
4.2
31
0
0
LINE
8
PANEL
10
20
20
4.2
30
0
11
18.9
21
4.2
31
0
0
LINE
8
PANEL
10
18.9
20
4.2
30
0
11
18.9
21
2
31
0
0
LINE
8
PANEL
10
20.2
20
2
30
0
11
21.3
21
2
31
0
0
LINE
8
PANEL
10
21.3
20
2
30
0
11
21.3
21
4.2
31
0
0
LINE
8
PANEL
10
21.3
20
4.2
30
0
11
20.2
21
4.2
31
0
0
LINE
8
PANEL
10
20.2
20
4.2
30
0
11
20.2
21
2
31
0
0
LINE
8
PANEL
10
21.5
20
2
30
0
11
22.6
21
2
31
0
0
LINE
8
PANEL
10
22.6
20
2
30
0
11
22.6
21
4.2
31
0
0
LINE
8
PANEL
10
22.6
20
4.2
30
0
11
21.5
21
4.2
31
0
0
LINE
8
PANEL
10
21.5
20
4.2
30
0
11
21.5
21
2
31
0
0
LINE
8
PANEL
10
22.8
20
2
30
0
11
23.9
21
2
31
0
0
LINE
8
PANEL
10
23.9
20
2
30
0
11
23.9
21
4.2
31
0
0
LINE
8
PANEL
10
23.9
20
4.2
30
0
11
22.8
21
4.2
31
0
0
LINE
8
PANEL
10
22.8
20
4.2
30
0
11
22.8
21
2
31
0
0
LINE
8
PANEL
10
24.1
20
2
30
0
11
25.2
21
2
31
0
0
LINE
8
PANEL
10
25.2
20
2
30
0
11
25.2
21
4.2
31
0
0
LINE
8
PANEL
10
25.2
20
4.2
30
0
11
24.1
21
4.2
31
0
0
LINE
8
PANEL
10
24.1
20
4.2
30
0
11
24.1
21
2
31
0
0
LINE
8
PANEL
10
25.4
20
2
30
0
11
26.5
21
2
31
0
0
LINE
8
PANEL
10
26.5
20
2
30
0
11
26.5
21
4.2
31
0
0
LINE
8
PANEL
10
26.5
20
4.2
30
0
11
25.4
21
4.2
31
0
0
LINE
8
PANEL
10
25.4
20
4.2
30
0
11
25.4
21
2
31
0
0
LINE
8
PANEL
10
26.7
20
2
30
0
11
27.8
21
2
31
0
0
LINE
8
PANEL
10
27.8
20
2
30
0
11
27.8
21
4.2
31
0
0
LINE
8
PANEL
10
27.8
20
4.2
30
0
11
26.7
21
4.2
31
0
0
LINE
8
PANEL
10
26.7
20
4.2
30
0
11
26.7
21
2
31
0
0
LINE
8
PANEL
10
28
20
2
30
0
11
29.1
21
2
31
0
0
LINE
8
PANEL
10
29.1
20
2
30
0
11
29.1
21
4.2
31
0
0
LINE
8
PANEL
10
29.1
20
4.2
30
0
11
28
21
4.2
31
0
0
LINE
8
PANEL
10
28
20
4.2
30
0
11
28
21
2
31
0
0
LINE
8
PANEL
10
29.3
20
2
30
0
11
30.4
21
2
31
0
0
LINE
8
PANEL
10
30.4
20
2
30
0
11
30.4
21
4.2
31
0
0
LINE
8
PANEL
10
30.4
20
4.2
30
0
11
29.3
21
4.2
31
0
0
LINE
8
PANEL
10
29.3
20
4.2
30
0
11
29.3
21
2
31
0
0
LINE
8
PANEL
10
30.6
20
2
30
0
11
31.7
21
2
31
0
0
LINE
8
PANEL
10
31.7
20
2
30
0
11
31.7
21
4.2
31
0
0
LINE
8
PANEL
10
31.7
20
4.2
30
0
11
30.6
21
4.2
31
0
0
LINE
8
PANEL
10
30.6
20
4.2
30
0
11
30.6
21
2
31
0
0
LINE
8
PANEL
10
31.9
20
2
30
0
11
33
21
2
31
0
0
LINE
8
PANEL
10
33
20
2
30
0
11
33
21
4.2
31
0
0
LINE
8
PANEL
10
33
20
4.2
30
0
11
31.9
21
4.2
31
0
0
LINE
8
PANEL
10
31.9
20
4.2
30
0
11
31.9
21
2
31
0
0
LINE
8
PANEL
10
33.2
20
2
30
0
11
34.3
21
2
31
0
0
LINE
8
PANEL
10
34.3
20
2
30
0
11
34.3
21
4.2
31
0
0
LINE
8
PANEL
10
34.3
20
4.2
30
0
11
33.2
21
4.2
31
0
0
LINE
8
PANEL
10
33.2
20
4.2
30
0
11
33.2
21
2
31
0
0
LINE
8
PANEL
10
34.5
20
2
30
0
11
35.6
21
2
31
0
0
LINE
8
PANEL
10
35.6
20
2
30
0
11
35.6
21
4.2
31
0
0
LINE
8
PANEL
10
35.6
20
4.2
30
0
11
34.5
21
4.2
31
0
0
LINE
8
PANEL
10
34.5
20
4.2
30
0
11
34.5
21
2
31
0
0
LINE
8
PANEL
10
35.8
20
2
30
0
11
36.9
21
2
31
0
0
LINE
8
PANEL
10
36.9
20
2
30
0
11
36.9
21
4.2
31
0
0
LINE
8
PANEL
10
36.9
20
4.2
30
0
11
35.8
21
4.2
31
0
0
LINE
8
PANEL
10
35.8
20
4.2
30
0
11
35.8
21
2
31
0
0
LINE
8
PANEL
10
37.1
20
2
30
0
11
38.2
21
2
31
0
0
LINE
8
PANEL
10
38.2
20
2
30
0
11
38.2
21
4.2
31
0
0
LINE
8
PANEL
10
38.2
20
4.2
30
0
11
37.1
21
4.2
31
0
0
LINE
8
PANEL
10
37.1
20
4.2
30
0
11
37.1
21
2
31
0
0
LINE
8
PANEL
10
38.4
20
2
30
0
11
39.5
21
2
31
0
0
LINE
8
PANEL
10
39.5
20
2
30
0
11
39.5
21
4.2
31
0
0
LINE
8
PANEL
10
39.5
20
4.2
30
0
11
38.4
21
4.2
31
0
0
LINE
8
PANEL
10
38.4
20
4.2
30
0
11
38.4
21
2
31
0
0
LINE
8
PANEL
10
39.7
20
2
30
0
11
40.8
21
2
31
0
0
LINE
8
PANEL
10
40.8
20
2
30
0
11
40.8
21
4.2
31
0
0
LINE
8
PANEL
10
40.8
20
4.2
30
0
11
39.7
21
4.2
31
0
0
LINE
8
PANEL
10
39.7
20
4.2
30
0
11
39.7
21
2
31
0
0
LINE
8
PANEL
10
41
20
2
30
0
11
42.1
21
2
31
0
0
LINE
8
PANEL
10
42.1
20
2
30
0
11
42.1
21
4.2
31
0
0
LINE
8
PANEL
10
42.1
20
4.2
30
0
11
41
21
4.2
31
0
0
LINE
8
PANEL
10
41
20
4.2
30
0
11
41
21
2
31
0
0
LINE
8
PANEL
10
42.3
20
2
30
0
11
43.4
21
2
31
0
0
LINE
8
PANEL
10
43.4
20
2
30
0
11
43.4
21
4.2
31
0
0
LINE
8
PANEL
10
43.4
20
4.2
30
0
11
42.3
21
4.2
31
0
0
LINE
8
PANEL
10
42.3
20
4.2
30
0
11
42.3
21
2
31
0
0
LINE
8
PANEL
10
43.6
20
2
30
0
11
44.7
21
2
31
0
0
LINE
8
PANEL
10
44.7
20
2
30
0
11
44.7
21
4.2
31
0
0
LINE
8
PANEL
10
44.7
20
4.2
30
0
11
43.6
21
4.2
31
0
0
LINE
8
PANEL
10
43.6
20
4.2
30
0
11
43.6
21
2
31
0
0
LINE
8
PANEL
10
44.9
20
2
30
0
11
46
21
2
31
0
0
LINE
8
PANEL
10
46
20
2
30
0
11
46
21
4.2
31
0
0
LINE
8
PANEL
10
46
20
4.2
30
0
11
44.9
21
4.2
31
0
0
LINE
8
PANEL
10
44.9
20
4.2
30
0
11
44.9
21
2
31
0
0
LINE
8
PANEL
10
46.2
20
2
30
0
11
47.3
21
2
31
0
0
LINE
8
PANEL
10
47.3
20
2
30
0
11
47.3
21
4.2
31
0
0
LINE
8
PANEL
10
47.3
20
4.2
30
0
11
46.2
21
4.2
31
0
0
LINE
8
PANEL
10
46.2
20
4.2
30
0
11
46.2
21
2
31
0
0
LINE
8
PANEL
10
47.5
20
2
30
0
11
48.6
21
2
31
0
0
LINE
8
PANEL
10
48.6
20
2
30
0
11
48.6
21
4.2
31
0
0
LINE
8
PANEL
10
48.6
20
4.2
30
0
11
47.5
21
4.2
31
0
0
LINE
8
PANEL
10
47.5
20
4.2
30
0
11
47.5
21
2
31
0
0
LINE
8
PANEL
10
48.8
20
2
30
0
11
49.9
21
2
31
0
0
LINE
8
PANEL
10
49.9
20
2
30
0
11
49.9
21
4.2
31
0
0
LINE
8
PANEL
10
49.9
20
4.2
30
0
11
48.8
21
4.2
31
0
0
LINE
8
PANEL
10
48.8
20
4.2
30
0
11
48.8
21
2
31
0
0
LINE
8
PANEL
10
50.1
20
2
30
0
11
51.2
21
2
31
0
0
LINE
8
PANEL
10
51.2
20
2
30
0
11
51.2
21
4.2
31
0
0
LINE
8
PANEL
10
51.2
20
4.2
30
0
11
50.1
21
4.2
31
0
0
LINE
8
PANEL
10
50.1
20
4.2
30
0
11
50.1
21
2
31
0
0
LINE
8
PANEL
10
51.4
20
2
30
0
11
52.5
21
2
31
0
0
LINE
8
PANEL
10
52.5
20
2
30
0
11
52.5
21
4.2
31
0
0
LINE
8
PANEL
10
52.5
20
4.2
30
0
11
51.4
21
4.2
31
0
0
LINE
8
PANEL
10
51.4
20
4.2
30
0
11
51.4
21
2
31
0
0
LINE
8
PANEL
10
52.7
20
2
30
0
11
53.8
21
2
31
0
0
LINE
8
PANEL
10
53.8
20
2
30
0
11
53.8
21
4.2
31
0
0
LINE
8
PANEL
10
53.8
20
4.2
30
0
11
52.7
21
4.2
31
0
0
LINE
8
PANEL
10
52.7
20
4.2
30
0
11
52.7
21
2
31
0
0
LINE
8
PANEL
10
54
20
2
30
0
11
55.1
21
2
31
0
0
LINE
8
PANEL
10
55.1
20
2
30
0
11
55.1
21
4.2
31
0
0
LINE
8
PANEL
10
55.1
20
4.2
30
0
11
54
21
4.2
31
0
0
LINE
8
PANEL
10
54
20
4.2
30
0
11
54
21
2
31
0
0
LINE
8
PANEL
10
55.3
20
2
30
0
11
56.4
21
2
31
0
0
LINE
8
PANEL
10
56.4
20
2
30
0
11
56.4
21
4.2
31
0
0
LINE
8
PANEL
10
56.4
20
4.2
30
0
11
55.3
21
4.2
31
0
0
LINE
8
PANEL
10
55.3
20
4.2
30
0
11
55.3
21
2
31
0
0
LINE
8
PANEL
10
56.6
20
2
30
0
11
57.7
21
2
31
0
0
LINE
8
PANEL
10
57.7
20
2
30
0
11
57.7
21
4.2
31
0
0
LINE
8
PANEL
10
57.7
20
4.2
30
0
11
56.6
21
4.2
31
0
0
LINE
8
PANEL
10
56.6
20
4.2
30
0
11
56.6
21
2
31
0
0
LINE
8
PANEL
10
57.9
20
2
30
0
11
59
21
2
31
0
0
LINE
8
PANEL
10
59
20
2
30
0
11
59
21
4.2
31
0
0
LINE
8
PANEL
10
59
20
4.2
30
0
11
57.9
21
4.2
31
0
0
LINE
8
PANEL
10
57.9
20
4.2
30
0
11
57.9
21
2
31
0
0
LINE
8
PANEL
10
59.2
20
2
30
0
11
60.3
21
2
31
0
0
LINE
8
PANEL
10
60.3
20
2
30
0
11
60.3
21
4.2
31
0
0
LINE
8
PANEL
10
60.3
20
4.2
30
0
11
59.2
21
4.2
31
0
0
LINE
8
PANEL
10
59.2
20
4.2
30
0
11
59.2
21
2
31
0
0
LINE
8
PANEL
10
60.5
20
2
30
0
11
61.6
21
2
31
0
0
LINE
8
PANEL
10
61.6
20
2
30
0
11
61.6
21
4.2
31
0
0
LINE
8
PANEL
10
61.6
20
4.2
30
0
11
60.5
21
4.2
31
0
0
LINE
8
PANEL
10
60.5
20
4.2
30
0
11
60.5
21
2
31
0
0
LINE
8
PANEL
10
61.8
20
2
30
0
11
62.9
21
2
31
0
0
LINE
8
PANEL
10
62.9
20
2
30
0
11
62.9
21
4.2
31
0
0
LINE
8
PANEL
10
62.9
20
4.2
30
0
11
61.8
21
4.2
31
0
0
LINE
8
PANEL
10
61.8
20
4.2
30
0
11
61.8
21
2
31
0
0
LINE
8
PANEL
10
63.1
20
2
30
0
11
64.2
21
2
31
0
0
LINE
8
PANEL
10
64.2
20
2
30
0
11
64.2
21
4.2
31
0
0
LINE
8
PANEL
10
64.2
20
4.2
30
0
11
63.1
21
4.2
31
0
0
LINE
8
PANEL
10
63.1
20
4.2
30
0
11
63.1
21
2
31
0
0
LINE
8
PANEL
10
64.4
20
2
30
0
11
65.5
21
2
31
0
0
LINE
8
PANEL
10
65.5
20
2
30
0
11
65.5
21
4.2
31
0
0
LINE
8
PANEL
10
65.5
20
4.2
30
0
11
64.4
21
4.2
31
0
0
LINE
8
PANEL
10
64.4
20
4.2
30
0
11
64.4
21
2
31
0
0
LINE
8
PANEL
10
65.7
20
2
30
0
11
66.8
21
2
31
0
0
LINE
8
PANEL
10
66.8
20
2
30
0
11
66.8
21
4.2
31
0
0
LINE
8
PANEL
10
66.8
20
4.2
30
0
11
65.7
21
4.2
31
0
0
LINE
8
PANEL
10
65.7
20
4.2
30
0
11
65.7
21
2
31
0
0
LINE
8
PANEL
10
67
20
2
30
0
11
68.1
21
2
31
0
0
LINE
8
PANEL
10
68.1
20
2
30
0
11
68.1
21
4.2
31
0
0
LINE
8
PANEL
10
68.1
20
4.2
30
0
11
67
21
4.2
31
0
0
LINE
8
PANEL
10
67
20
4.2
30
0
11
67
21
2
31
0
0
LINE
8
PANEL
10
68.3
20
2
30
0
11
69.4
21
2
31
0
0
LINE
8
PANEL
10
69.4
20
2
30
0
11
69.4
21
4.2
31
0
0
LINE
8
PANEL
10
69.4
20
4.2
30
0
11
68.3
21
4.2
31
0
0
LINE
8
PANEL
10
68.3
20
4.2
30
0
11
68.3
21
2
31
0
0
LINE
8
PANEL
10
69.6
20
2
30
0
11
70.7
21
2
31
0
0
LINE
8
PANEL
10
70.7
20
2
30
0
11
70.7
21
4.2
31
0
0
LINE
8
PANEL
10
70.7
20
4.2
30
0
11
69.6
21
4.2
31
0
0
LINE
8
PANEL
10
69.6
20
4.2
30
0
11
69.6
21
2
31
0
0
LINE
8
PANEL
10
70.9
20
2
30
0
11
72
21
2
31
0
0
LINE
8
PANEL
10
72
20
2
30
0
11
72
21
4.2
31
0
0
LINE
8
PANEL
10
72
20
4.2
30
0
11
70.9
21
4.2
31
0
0
LINE
8
PANEL
10
70.9
20
4.2
30
0
11
70.9
21
2
31
0
0
LINE
8
PANEL
10
72.2
20
2
30
0
11
73.3
21
2
31
0
0
LINE
8
PANEL
10
73.3
20
2
30
0
11
73.3
21
4.2
31
0
0
LINE
8
PANEL
10
73.3
20
4.2
30
0
11
72.2
21
4.2
31
0
0
LINE
8
PANEL
10
72.2
20
4.2
30
0
11
72.2
21
2
31
0
0
LINE
8
PANEL
10
73.5
20
2
30
0
11
74.6
21
2
31
0
0
LINE
8
PANEL
10
74.6
20
2
30
0
11
74.6
21
4.2
31
0
0
LINE
8
PANEL
10
74.6
20
4.2
30
0
11
73.5
21
4.2
31
0
0
LINE
8
PANEL
10
73.5
20
4.2
30
0
11
73.5
21
2
31
0
0
LINE
8
PANEL
10
74.8
20
2
30
0
11
75.9
21
2
31
0
0
LINE
8
PANEL
10
75.9
20
2
30
0
11
75.9
21
4.2
31
0
0
LINE
8
PANEL
10
75.9
20
4.2
30
0
11
74.8
21
4.2
31
0
0
LINE
8
PANEL
10
74.8
20
4.2
30
0
11
74.8
21
2
31
0
0
LINE
8
PANEL
10
76.1
20
2
30
0
11
77.2
21
2
31
0
0
LINE
8
PANEL
10
77.2
20
2
30
0
11
77.2
21
4.2
31
0
0
LINE
8
PANEL
10
77.2
20
4.2
30
0
11
76.1
21
4.2
31
0
0
LINE
8
PANEL
10
76.1
20
4.2
30
0
11
76.1
21
2
31
0
0
LINE
8
PANEL
10
2
20
4.8
30
0
11
3.1
21
4.8
31
0
0
LINE
8
PANEL
10
3.1
20
4.8
30
0
11
3.1
21
7
31
0
0
LINE
8
PANEL
10
3.1
20
7
30
0
11
2
21
7
31
0
0
LINE
8
PANEL
10
2
20
7
30
0
11
2
21
4.8
31
0
0
LINE
8
PANEL
10
3.3
20
4.8
30
0
11
4.4
21
4.8
31
0
0
LINE
8
PANEL
10
4.4
20
4.8
30
0
11
4.4
21
7
31
0
0
LINE
8
PANEL
10
4.4
20
7
30
0
11
3.3
21
7
31
0
0
LINE
8
PANEL
10
3.3
20
7
30
0
11
3.3
21
4.8
31
0
0
LINE
8
PANEL
10
4.6
20
4.8
30
0
11
5.7
21
4.8
31
0
0
LINE
8
PANEL
10
5.7
20
4.8
30
0
11
5.7
21
7
31
0
0
LINE
8
PANEL
10
5.7
20
7
30
0
11
4.6
21
7
31
0
0
LINE
8
PANEL
10
4.6
20
7
30
0
11
4.6
21
4.8
31
0
0
LINE
8
PANEL
10
5.9
20
4.8
30
0
11
7
21
4.8
31
0
0
LINE
8
PANEL
10
7
20
4.8
30
0
11
7
21
7
31
0
0
LINE
8
PANEL
10
7
20
7
30
0
11
5.9
21
7
31
0
0
LINE
8
PANEL
10
5.9
20
7
30
0
11
5.9
21
4.8
31
0
0
LINE
8
PANEL
10
7.2
20
4.8
30
0
11
8.3
21
4.8
31
0
0
LINE
8
PANEL
10
8.3
20
4.8
30
0
11
8.3
21
7
31
0
0
LINE
8
PANEL
10
8.3
20
7
30
0
11
7.2
21
7
31
0
0
LINE
8
PANEL
10
7.2
20
7
30
0
11
7.2
21
4.8
31
0
0
LINE
8
PANEL
10
8.5
20
4.8
30
0
11
9.6
21
4.8
31
0
0
LINE
8
PANEL
10
9.6
20
4.8
30
0
11
9.6
21
7
31
0
0
LINE
8
PANEL
10
9.6
20
7
30
0
11
8.5
21
7
31
0
0
LINE
8
PANEL
10
8.5
20
7
30
0
11
8.5
21
4.8
31
0
0
LINE
8
PANEL
10
9.8
20
4.8
30
0
11
10.9
21
4.8
31
0
0
LINE
8
PANEL
10
10.9
20
4.8
30
0
11
10.9
21
7
31
0
0
LINE
8
PANEL
10
10.9
20
7
30
0
11
9.8
21
7
31
0
0
LINE
8
PANEL
10
9.8
20
7
30
0
11
9.8
21
4.8
31
0
0
LINE
8
PANEL
10
11.1
20
4.8
30
0
11
12.2
21
4.8
31
0
0
LINE
8
PANEL
10
12.2
20
4.8
30
0
11
12.2
21
7
31
0
0
LINE
8
PANEL
10
12.2
20
7
30
0
11
11.1
21
7
31
0
0
LINE
8
PANEL
10
11.1
20
7
30
0
11
11.1
21
4.8
31
0
0
LINE
8
PANEL
10
12.4
20
4.8
30
0
11
13.5
21
4.8
31
0
0
LINE
8
PANEL
10
13.5
20
4.8
30
0
11
13.5
21
7
31
0
0
LINE
8
PANEL
10
13.5
20
7
30
0
11
12.4
21
7
31
0
0
LINE
8
PANEL
10
12.4
20
7
30
0
11
12.4
21
4.8
31
0
0
LINE
8
PANEL
10
13.7
20
4.8
30
0
11
14.8
21
4.8
31
0
0
LINE
8
PANEL
10
14.8
20
4.8
30
0
11
14.8
21
7
31
0
0
LINE
8
PANEL
10
14.8
20
7
30
0
11
13.7
21
7
31
0
0
LINE
8
PANEL
10
13.7
20
7
30
0
11
13.7
21
4.8
31
0
0
LINE
8
PANEL
10
15
20
4.8
30
0
11
16.1
21
4.8
31
0
0
LINE
8
PANEL
10
16.1
20
4.8
30
0
11
16.1
21
7
31
0
0
LINE
8
PANEL
10
16.1
20
7
30
0
11
15
21
7
31
0
0
LINE
8
PANEL
10
15
20
7
30
0
11
15
21
4.8
31
0
0
LINE
8
PANEL
10
16.3
20
4.8
30
0
11
17.4
21
4.8
31
0
0
LINE
8
PANEL
10
17.4
20
4.8
30
0
11
17.4
21
7
31
0
0
LINE
8
PANEL
10
17.4
20
7
30
0
11
16.3
21
7
31
0
0
LINE
8
PANEL
10
16.3
20
7
30
0
11
16.3
21
4.8
31
0
0
LINE
8
PANEL
10
17.6
20
4.8
30
0
11
18.7
21
4.8
31
0
0
LINE
8
PANEL
10
18.7
20
4.8
30
0
11
18.7
21
7
31
0
0
LINE
8
PANEL
10
18.7
20
7
30
0
11
17.6
21
7
31
0
0
LINE
8
PANEL
10
17.6
20
7
30
0
11
17.6
21
4.8
31
0
0
LINE
8
PANEL
10
18.9
20
4.8
30
0
11
20
21
4.8
31
0
0
LINE
8
PANEL
10
20
20
4.8
30
0
11
20
21
7
31
0
0
LINE
8
PANEL
10
20
20
7
30
0
11
18.9
21
7
31
0
0
LINE
8
PANEL
10
18.9
20
7
30
0
11
18.9
21
4.8
31
0
0
LINE
8
PANEL
10
20.2
20
4.8
30
0
11
21.3
21
4.8
31
0
0
LINE
8
PANEL
10
21.3
20
4.8
30
0
11
21.3
21
7
31
0
0
LINE
8
PANEL
10
21.3
20
7
30
0
11
20.2
21
7
31
0
0
LINE
8
PANEL
10
20.2
20
7
30
0
11
20.2
21
4.8
31
0
0
LINE
8
PANEL
10
21.5
20
4.8
30
0
11
22.6
21
4.8
31
0
0
LINE
8
PANEL
10
22.6
20
4.8
30
0
11
22.6
21
7
31
0
0
LINE
8
PANEL
10
22.6
20
7
30
0
11
21.5
21
7
31
0
0
LINE
8
PANEL
10
21.5
20
7
30
0
11
21.5
21
4.8
31
0
0
LINE
8
PANEL
10
22.8
20
4.8
30
0
11
23.9
21
4.8
31
0
0
LINE
8
PANEL
10
23.9
20
4.8
30
0
11
23.9
21
7
31
0
0
LINE
8
PANEL
10
23.9
20
7
30
0
11
22.8
21
7
31
0
0
LINE
8
PANEL
10
22.8
20
7
30
0
11
22.8
21
4.8
31
0
0
LINE
8
PANEL
10
24.1
20
4.8
30
0
11
25.2
21
4.8
31
0
0
LINE
8
PANEL
10
25.2
20
4.8
30
0
11
25.2
21
7
31
0
0
LINE
8
PANEL
10
25.2
20
7
30
0
11
24.1
21
7
31
0
0
LINE
8
PANEL
10
24.1
20
7
30
0
11
24.1
21
4.8
31
0
0
LINE
8
PANEL
10
25.4
20
4.8
30
0
11
26.5
21
4.8
31
0
0
LINE
8
PANEL
10
26.5
20
4.8
30
0
11
26.5
21
7
31
0
0
LINE
8
PANEL
10
26.5
20
7
30
0
11
25.4
21
7
31
0
0
LINE
8
PANEL
10
25.4
20
7
30
0
11
25.4
21
4.8
31
0
0
LINE
8
PANEL
10
26.7
20
4.8
30
0
11
27.8
21
4.8
31
0
0
LINE
8
PANEL
10
27.8
20
4.8
30
0
11
27.8
21
7
31
0
0
LINE
8
PANEL
10
27.8
20
7
30
0
11
26.7
21
7
31
0
0
LINE
8
PANEL
10
26.7
20
7
30
0
11
26.7
21
4.8
31
0
0
LINE
8
PANEL
10
28
20
4.8
30
0
11
29.1
21
4.8
31
0
0
LINE
8
PANEL
10
29.1
20
4.8
30
0
11
29.1
21
7
31
0
0
LINE
8
PANEL
10
29.1
20
7
30
0
11
28
21
7
31
0
0
LINE
8
PANEL
10
28
20
7
30
0
11
28
21
4.8
31
0
0
LINE
8
PANEL
10
29.3
20
4.8
30
0
11
30.4
21
4.8
31
0
0
LINE
8
PANEL
10
30.4
20
4.8
30
0
11
30.4
21
7
31
0
0
LINE
8
PANEL
10
30.4
20
7
30
0
11
29.3
21
7
31
0
0
LINE
8
PANEL
10
29.3
20
7
30
0
11
29.3
21
4.8
31
0
0
LINE
8
PANEL
10
30.6
20
4.8
30
0
11
31.7
21
4.8
31
0
0
LINE
8
PANEL
10
31.7
20
4.8
30
0
11
31.7
21
7
31
0
0
LINE
8
PANEL
10
31.7
20
7
30
0
11
30.6
21
7
31
0
0
LINE
8
PANEL
10
30.6
20
7
30
0
11
30.6
21
4.8
31
0
0
LINE
8
PANEL
10
31.9
20
4.8
30
0
11
33
21
4.8
31
0
0
LINE
8
PANEL
10
33
20
4.8
30
0
11
33
21
7
31
0
0
LINE
8
PANEL
10
33
20
7
30
0
11
31.9
21
7
31
0
0
LINE
8
PANEL
10
31.9
20
7
30
0
11
31.9
21
4.8
31
0
0
LINE
8
PANEL
10
33.2
20
4.8
30
0
11
34.3
21
4.8
31
0
0
LINE
8
PANEL
10
34.3
20
4.8
30
0
11
34.3
21
7
31
0
0
LINE
8
PANEL
10
34.3
20
7
30
0
11
33.2
21
7
31
0
0
LINE
8
PANEL
10
33.2
20
7
30
0
11
33.2
21
4.8
31
0
0
LINE
8
PANEL
10
34.5
20
4.8
30
0
11
35.6
21
4.8
31
0
0
LINE
8
PANEL
10
35.6
20
4.8
30
0
11
35.6
21
7
31
0
0
LINE
8
PANEL
10
35.6
20
7
30
0
11
34.5
21
7
31
0
0
LINE
8
PANEL
10
34.5
20
7
30
0
11
34.5
21
4.8
31
0
0
LINE
8
PANEL
10
35.8
20
4.8
30
0
11
36.9
21
4.8
31
0
0
LINE
8
PANEL
10
36.9
20
4.8
30
0
11
36.9
21
7
31
0
0
LINE
8
PANEL
10
36.9
20
7
30
0
11
35.8
21
7
31
0
0
LINE
8
PANEL
10
35.8
20
7
30
0
11
35.8
21
4.8
31
0
0
LINE
8
PANEL
10
37.1
20
4.8
30
0
11
38.2
21
4.8
31
0
0
LINE
8
PANEL
10
38.2
20
4.8
30
0
11
38.2
21
7
31
0
0
LINE
8
PANEL
10
38.2
20
7
30
0
11
37.1
21
7
31
0
0
LINE
8
PANEL
10
37.1
20
7
30
0
11
37.1
21
4.8
31
0
0
LINE
8
PANEL
10
38.4
20
4.8
30
0
11
39.5
21
4.8
31
0
0
LINE
8
PANEL
10
39.5
20
4.8
30
0
11
39.5
21
7
31
0
0
LINE
8
PANEL
10
39.5
20
7
30
0
11
38.4
21
7
31
0
0
LINE
8
PANEL
10
38.4
20
7
30
0
11
38.4
21
4.8
31
0
0
LINE
8
PANEL
10
39.7
20
4.8
30
0
11
40.8
21
4.8
31
0
0
LINE
8
PANEL
10
40.8
20
4.8
30
0
11
40.8
21
7
31
0
0
LINE
8
PANEL
10
40.8
20
7
30
0
11
39.7
21
7
31
0
0
LINE
8
PANEL
10
39.7
20
7
30
0
11
39.7
21
4.8
31
0
0
LINE
8
PANEL
10
41
20
4.8
30
0
11
42.1
21
4.8
31
0
0
LINE
8
PANEL
10
42.1
20
4.8
30
0
11
42.1
21
7
31
0
0
LINE
8
PANEL
10
42.1
20
7
30
0
11
41
21
7
31
0
0
LINE
8
PANEL
10
41
20
7
30
0
11
41
21
4.8
31
0
0
LINE
8
PANEL
10
42.3
20
4.8
30
0
11
43.4
21
4.8
31
0
0
LINE
8
PANEL
10
43.4
20
4.8
30
0
11
43.4
21
7
31
0
0
LINE
8
PANEL
10
43.4
20
7
30
0
11
42.3
21
7
31
0
0
LINE
8
PANEL
10
42.3
20
7
30
0
11
42.3
21
4.8
31
0
0
LINE
8
PANEL
10
43.6
20
4.8
30
0
11
44.7
21
4.8
31
0
0
LINE
8
PANEL
10
44.7
20
4.8
30
0
11
44.7
21
7
31
0
0
LINE
8
PANEL
10
44.7
20
7
30
0
11
43.6
21
7
31
0
0
LINE
8
PANEL
10
43.6
20
7
30
0
11
43.6
21
4.8
31
0
0
LINE
8
PANEL
10
44.9
20
4.8
30
0
11
46
21
4.8
31
0
0
LINE
8
PANEL
10
46
20
4.8
30
0
11
46
21
7
31
0
0
LINE
8
PANEL
10
46
20
7
30
0
11
44.9
21
7
31
0
0
LINE
8
PANEL
10
44.9
20
7
30
0
11
44.9
21
4.8
31
0
0
LINE
8
PANEL
10
46.2
20
4.8
30
0
11
47.3
21
4.8
31
0
0
LINE
8
PANEL
10
47.3
20
4.8
30
0
11
47.3
21
7
31
0
0
LINE
8
PANEL
10
47.3
20
7
30
0
11
46.2
21
7
31
0
0
LINE
8
PANEL
10
46.2
20
7
30
0
11
46.2
21
4.8
31
0
0
LINE
8
PANEL
10
47.5
20
4.8
30
0
11
48.6
21
4.8
31
0
0
LINE
8
PANEL
10
48.6
20
4.8
30
0
11
48.6
21
7
31
0
0
LINE
8
PANEL
10
48.6
20
7
30
0
11
47.5
21
7
31
0
0
LINE
8
PANEL
10
47.5
20
7
30
0
11
47.5
21
4.8
31
0
0
LINE
8
PANEL
10
48.8
20
4.8
30
0
11
49.9
21
4.8
31
0
0
LINE
8
PANEL
10
49.9
20
4.8
30
0
11
49.9
21
7
31
0
0
LINE
8
PANEL
10
49.9
20
7
30
0
11
48.8
21
7
31
0
0
LINE
8
PANEL
10
48.8
20
7
30
0
11
48.8
21
4.8
31
0
0
LINE
8
PANEL
10
50.1
20
4.8
30
0
11
51.2
21
4.8
31
0
0
LINE
8
PANEL
10
51.2
20
4.8
30
0
11
51.2
21
7
31
0
0
LINE
8
PANEL
10
51.2
20
7
30
0
11
50.1
21
7
31
0
0
LINE
8
PANEL
10
50.1
20
7
30
0
11
50.1
21
4.8
31
0
0
LINE
8
PANEL
10
51.4
20
4.8
30
0
11
52.5
21
4.8
31
0
0
LINE
8
PANEL
10
52.5
20
4.8
30
0
11
52.5
21
7
31
0
0
LINE
8
PANEL
10
52.5
20
7
30
0
11
51.4
21
7
31
0
0
LINE
8
PANEL
10
51.4
20
7
30
0
11
51.4
21
4.8
31
0
0
LINE
8
PANEL
10
52.7
20
4.8
30
0
11
53.8
21
4.8
31
0
0
LINE
8
PANEL
10
53.8
20
4.8
30
0
11
53.8
21
7
31
0
0
LINE
8
PANEL
10
53.8
20
7
30
0
11
52.7
21
7
31
0
0
LINE
8
PANEL
10
52.7
20
7
30
0
11
52.7
21
4.8
31
0
0
LINE
8
PANEL
10
54
20
4.8
30
0
11
55.1
21
4.8
31
0
0
LINE
8
PANEL
10
55.1
20
4.8
30
0
11
55.1
21
7
31
0
0
LINE
8
PANEL
10
55.1
20
7
30
0
11
54
21
7
31
0
0
LINE
8
PANEL
10
54
20
7
30
0
11
54
21
4.8
31
0
0
LINE
8
PANEL
10
55.3
20
4.8
30
0
11
56.4
21
4.8
31
0
0
LINE
8
PANEL
10
56.4
20
4.8
30
0
11
56.4
21
7
31
0
0
LINE
8
PANEL
10
56.4
20
7
30
0
11
55.3
21
7
31
0
0
LINE
8
PANEL
10
55.3
20
7
30
0
11
55.3
21
4.8
31
0
0
LINE
8
PANEL
10
56.6
20
4.8
30
0
11
57.7
21
4.8
31
0
0
LINE
8
PANEL
10
57.7
20
4.8
30
0
11
57.7
21
7
31
0
0
LINE
8
PANEL
10
57.7
20
7
30
0
11
56.6
21
7
31
0
0
LINE
8
PANEL
10
56.6
20
7
30
0
11
56.6
21
4.8
31
0
0
LINE
8
PANEL
10
57.9
20
4.8
30
0
11
59
21
4.8
31
0
0
LINE
8
PANEL
10
59
20
4.8
30
0
11
59
21
7
31
0
0
LINE
8
PANEL
10
59
20
7
30
0
11
57.9
21
7
31
0
0
LINE
8
PANEL
10
57.9
20
7
30
0
11
57.9
21
4.8
31
0
0
LINE
8
PANEL
10
59.2
20
4.8
30
0
11
60.3
21
4.8
31
0
0
LINE
8
PANEL
10
60.3
20
4.8
30
0
11
60.3
21
7
31
0
0
LINE
8
PANEL
10
60.3
20
7
30
0
11
59.2
21
7
31
0
0
LINE
8
PANEL
10
59.2
20
7
30
0
11
59.2
21
4.8
31
0
0
LINE
8
PANEL
10
60.5
20
4.8
30
0
11
61.6
21
4.8
31
0
0
LINE
8
PANEL
10
61.6
20
4.8
30
0
11
61.6
21
7
31
0
0
LINE
8
PANEL
10
61.6
20
7
30
0
11
60.5
21
7
31
0
0
LINE
8
PANEL
10
60.5
20
7
30
0
11
60.5
21
4.8
31
0
0
LINE
8
PANEL
10
61.8
20
4.8
30
0
11
62.9
21
4.8
31
0
0
LINE
8
PANEL
10
62.9
20
4.8
30
0
11
62.9
21
7
31
0
0
LINE
8
PANEL
10
62.9
20
7
30
0
11
61.8
21
7
31
0
0
LINE
8
PANEL
10
61.8
20
7
30
0
11
61.8
21
4.8
31
0
0
LINE
8
PANEL
10
63.1
20
4.8
30
0
11
64.2
21
4.8
31
0
0
LINE
8
PANEL
10
64.2
20
4.8
30
0
11
64.2
21
7
31
0
0
LINE
8
PANEL
10
64.2
20
7
30
0
11
63.1
21
7
31
0
0
LINE
8
PANEL
10
63.1
20
7
30
0
11
63.1
21
4.8
31
0
0
LINE
8
PANEL
10
64.4
20
4.8
30
0
11
65.5
21
4.8
31
0
0
LINE
8
PANEL
10
65.5
20
4.8
30
0
11
65.5
21
7
31
0
0
LINE
8
PANEL
10
65.5
20
7
30
0
11
64.4
21
7
31
0
0
LINE
8
PANEL
10
64.4
20
7
30
0
11
64.4
21
4.8
31
0
0
LINE
8
PANEL
10
65.7
20
4.8
30
0
11
66.8
21
4.8
31
0
0
LINE
8
PANEL
10
66.8
20
4.8
30
0
11
66.8
21
7
31
0
0
LINE
8
PANEL
10
66.8
20
7
30
0
11
65.7
21
7
31
0
0
LINE
8
PANEL
10
65.7
20
7
30
0
11
65.7
21
4.8
31
0
0
LINE
8
PANEL
10
67
20
4.8
30
0
11
68.1
21
4.8
31
0
0
LINE
8
PANEL
10
68.1
20
4.8
30
0
11
68.1
21
7
31
0
0
LINE
8
PANEL
10
68.1
20
7
30
0
11
67
21
7
31
0
0
LINE
8
PANEL
10
67
20
7
30
0
11
67
21
4.8
31
0
0
LINE
8
PANEL
10
68.3
20
4.8
30
0
11
69.4
21
4.8
31
0
0
LINE
8
PANEL
10
69.4
20
4.8
30
0
11
69.4
21
7
31
0
0
LINE
8
PANEL
10
69.4
20
7
30
0
11
68.3
21
7
31
0
0
LINE
8
PANEL
10
68.3
20
7
30
0
11
68.3
21
4.8
31
0
0
LINE
8
PANEL
10
69.6
20
4.8
30
0
11
70.7
21
4.8
31
0
0
LINE
8
PANEL
10
70.7
20
4.8
30
0
11
70.7
21
7
31
0
0
LINE
8
PANEL
10
70.7
20
7
30
0
11
69.6
21
7
31
0
0
LINE
8
PANEL
10
69.6
20
7
30
0
11
69.6
21
4.8
31
0
0
LINE
8
PANEL
10
70.9
20
4.8
30
0
11
72
21
4.8
31
0
0
LINE
8
PANEL
10
72
20
4.8
30
0
11
72
21
7
31
0
0
LINE
8
PANEL
10
72
20
7
30
0
11
70.9
21
7
31
0
0
LINE
8
PANEL
10
70.9
20
7
30
0
11
70.9
21
4.8
31
0
0
LINE
8
PANEL
10
72.2
20
4.8
30
0
11
73.3
21
4.8
31
0
0
LINE
8
PANEL
10
73.3
20
4.8
30
0
11
73.3
21
7
31
0
0
LINE
8
PANEL
10
73.3
20
7
30
0
11
72.2
21
7
31
0
0
LINE
8
PANEL
10
72.2
20
7
30
0
11
72.2
21
4.8
31
0
0
LINE
8
PANEL
10
73.5
20
4.8
30
0
11
74.6
21
4.8
31
0
0
LINE
8
PANEL
10
74.6
20
4.8
30
0
11
74.6
21
7
31
0
0
LINE
8
PANEL
10
74.6
20
7
30
0
11
73.5
21
7
31
0
0
LINE
8
PANEL
10
73.5
20
7
30
0
11
73.5
21
4.8
31
0
0
LINE
8
PANEL
10
74.8
20
4.8
30
0
11
75.9
21
4.8
31
0
0
LINE
8
PANEL
10
75.9
20
4.8
30
0
11
75.9
21
7
31
0
0
LINE
8
PANEL
10
75.9
20
7
30
0
11
74.8
21
7
31
0
0
LINE
8
PANEL
10
74.8
20
7
30
0
11
74.8
21
4.8
31
0
0
LINE
8
PANEL
10
76.1
20
4.8
30
0
11
77.2
21
4.8
31
0
0
LINE
8
PANEL
10
77.2
20
4.8
30
0
11
77.2
21
7
31
0
0
LINE
8
PANEL
10
77.2
20
7
30
0
11
76.1
21
7
31
0
0
LINE
8
PANEL
10
76.1
20
7
30
0
11
76.1
21
4.8
31
0
0
LINE
8
PANEL
10
2
20
7.6
30
0
11
3.1
21
7.6
31
0
0
LINE
8
PANEL
10
3.1
20
7.6
30
0
11
3.1
21
9.8
31
0
0
LINE
8
PANEL
10
3.1
20
9.8
30
0
11
2
21
9.8
31
0
0
LINE
8
PANEL
10
2
20
9.8
30
0
11
2
21
7.6
31
0
0
LINE
8
PANEL
10
3.3
20
7.6
30
0
11
4.4
21
7.6
31
0
0
LINE
8
PANEL
10
4.4
20
7.6
30
0
11
4.4
21
9.8
31
0
0
LINE
8
PANEL
10
4.4
20
9.8
30
0
11
3.3
21
9.8
31
0
0
LINE
8
PANEL
10
3.3
20
9.8
30
0
11
3.3
21
7.6
31
0
0
LINE
8
PANEL
10
4.6
20
7.6
30
0
11
5.7
21
7.6
31
0
0
LINE
8
PANEL
10
5.7
20
7.6
30
0
11
5.7
21
9.8
31
0
0
LINE
8
PANEL
10
5.7
20
9.8
30
0
11
4.6
21
9.8
31
0
0
LINE
8
PANEL
10
4.6
20
9.8
30
0
11
4.6
21
7.6
31
0
0
LINE
8
PANEL
10
5.9
20
7.6
30
0
11
7
21
7.6
31
0
0
LINE
8
PANEL
10
7
20
7.6
30
0
11
7
21
9.8
31
0
0
LINE
8
PANEL
10
7
20
9.8
30
0
11
5.9
21
9.8
31
0
0
LINE
8
PANEL
10
5.9
20
9.8
30
0
11
5.9
21
7.6
31
0
0
LINE
8
PANEL
10
7.2
20
7.6
30
0
11
8.3
21
7.6
31
0
0
LINE
8
PANEL
10
8.3
20
7.6
30
0
11
8.3
21
9.8
31
0
0
LINE
8
PANEL
10
8.3
20
9.8
30
0
11
7.2
21
9.8
31
0
0
LINE
8
PANEL
10
7.2
20
9.8
30
0
11
7.2
21
7.6
31
0
0
LINE
8
PANEL
10
8.5
20
7.6
30
0
11
9.6
21
7.6
31
0
0
LINE
8
PANEL
10
9.6
20
7.6
30
0
11
9.6
21
9.8
31
0
0
LINE
8
PANEL
10
9.6
20
9.8
30
0
11
8.5
21
9.8
31
0
0
LINE
8
PANEL
10
8.5
20
9.8
30
0
11
8.5
21
7.6
31
0
0
LINE
8
PANEL
10
9.8
20
7.6
30
0
11
10.9
21
7.6
31
0
0
LINE
8
PANEL
10
10.9
20
7.6
30
0
11
10.9
21
9.8
31
0
0
LINE
8
PANEL
10
10.9
20
9.8
30
0
11
9.8
21
9.8
31
0
0
LINE
8
PANEL
10
9.8
20
9.8
30
0
11
9.8
21
7.6
31
0
0
LINE
8
PANEL
10
11.1
20
7.6
30
0
11
12.2
21
7.6
31
0
0
LINE
8
PANEL
10
12.2
20
7.6
30
0
11
12.2
21
9.8
31
0
0
LINE
8
PANEL
10
12.2
20
9.8
30
0
11
11.1
21
9.8
31
0
0
LINE
8
PANEL
10
11.1
20
9.8
30
0
11
11.1
21
7.6
31
0
0
LINE
8
PANEL
10
12.4
20
7.6
30
0
11
13.5
21
7.6
31
0
0
LINE
8
PANEL
10
13.5
20
7.6
30
0
11
13.5
21
9.8
31
0
0
LINE
8
PANEL
10
13.5
20
9.8
30
0
11
12.4
21
9.8
31
0
0
LINE
8
PANEL
10
12.4
20
9.8
30
0
11
12.4
21
7.6
31
0
0
LINE
8
PANEL
10
13.7
20
7.6
30
0
11
14.8
21
7.6
31
0
0
LINE
8
PANEL
10
14.8
20
7.6
30
0
11
14.8
21
9.8
31
0
0
LINE
8
PANEL
10
14.8
20
9.8
30
0
11
13.7
21
9.8
31
0
0
LINE
8
PANEL
10
13.7
20
9.8
30
0
11
13.7
21
7.6
31
0
0
LINE
8
PANEL
10
15
20
7.6
30
0
11
16.1
21
7.6
31
0
0
LINE
8
PANEL
10
16.1
20
7.6
30
0
11
16.1
21
9.8
31
0
0
LINE
8
PANEL
10
16.1
20
9.8
30
0
11
15
21
9.8
31
0
0
LINE
8
PANEL
10
15
20
9.8
30
0
11
15
21
7.6
31
0
0
LINE
8
PANEL
10
16.3
20
7.6
30
0
11
17.4
21
7.6
31
0
0
LINE
8
PANEL
10
17.4
20
7.6
30
0
11
17.4
21
9.8
31
0
0
LINE
8
PANEL
10
17.4
20
9.8
30
0
11
16.3
21
9.8
31
0
0
LINE
8
PANEL
10
16.3
20
9.8
30
0
11
16.3
21
7.6
31
0
0
LINE
8
PANEL
10
17.6
20
7.6
30
0
11
18.7
21
7.6
31
0
0
LINE
8
PANEL
10
18.7
20
7.6
30
0
11
18.7
21
9.8
31
0
0
LINE
8
PANEL
10
18.7
20
9.8
30
0
11
17.6
21
9.8
31
0
0
LINE
8
PANEL
10
17.6
20
9.8
30
0
11
17.6
21
7.6
31
0
0
LINE
8
PANEL
10
18.9
20
7.6
30
0
11
20
21
7.6
31
0
0
LINE
8
PANEL
10
20
20
7.6
30
0
11
20
21
9.8
31
0
0
LINE
8
PANEL
10
20
20
9.8
30
0
11
18.9
21
9.8
31
0
0
LINE
8
PANEL
10
18.9
20
9.8
30
0
11
18.9
21
7.6
31
0
0
LINE
8
PANEL
10
20.2
20
7.6
30
0
11
21.3
21
7.6
31
0
0
LINE
8
PANEL
10
21.3
20
7.6
30
0
11
21.3
21
9.8
31
0
0
LINE
8
PANEL
10
21.3
20
9.8
30
0
11
20.2
21
9.8
31
0
0
LINE
8
PANEL
10
20.2
20
9.8
30
0
11
20.2
21
7.6
31
0
0
LINE
8
PANEL
10
21.5
20
7.6
30
0
11
22.6
21
7.6
31
0
0
LINE
8
PANEL
10
22.6
20
7.6
30
0
11
22.6
21
9.8
31
0
0
LINE
8
PANEL
10
22.6
20
9.8
30
0
11
21.5
21
9.8
31
0
0
LINE
8
PANEL
10
21.5
20
9.8
30
0
11
21.5
21
7.6
31
0
0
LINE
8
PANEL
10
22.8
20
7.6
30
0
11
23.9
21
7.6
31
0
0
LINE
8
PANEL
10
23.9
20
7.6
30
0
11
23.9
21
9.8
31
0
0
LINE
8
PANEL
10
23.9
20
9.8
30
0
11
22.8
21
9.8
31
0
0
LINE
8
PANEL
10
22.8
20
9.8
30
0
11
22.8
21
7.6
31
0
0
LINE
8
PANEL
10
24.1
20
7.6
30
0
11
25.2
21
7.6
31
0
0
LINE
8
PANEL
10
25.2
20
7.6
30
0
11
25.2
21
9.8
31
0
0
LINE
8
PANEL
10
25.2
20
9.8
30
0
11
24.1
21
9.8
31
0
0
LINE
8
PANEL
10
24.1
20
9.8
30
0
11
24.1
21
7.6
31
0
0
LINE
8
PANEL
10
25.4
20
7.6
30
0
11
26.5
21
7.6
31
0
0
LINE
8
PANEL
10
26.5
20
7.6
30
0
11
26.5
21
9.8
31
0
0
LINE
8
PANEL
10
26.5
20
9.8
30
0
11
25.4
21
9.8
31
0
0
LINE
8
PANEL
10
25.4
20
9.8
30
0
11
25.4
21
7.6
31
0
0
LINE
8
PANEL
10
26.7
20
7.6
30
0
11
27.8
21
7.6
31
0
0
LINE
8
PANEL
10
27.8
20
7.6
30
0
11
27.8
21
9.8
31
0
0
LINE
8
PANEL
10
27.8
20
9.8
30
0
11
26.7
21
9.8
31
0
0
LINE
8
PANEL
10
26.7
20
9.8
30
0
11
26.7
21
7.6
31
0
0
LINE
8
PANEL
10
28
20
7.6
30
0
11
29.1
21
7.6
31
0
0
LINE
8
PANEL
10
29.1
20
7.6
30
0
11
29.1
21
9.8
31
0
0
LINE
8
PANEL
10
29.1
20
9.8
30
0
11
28
21
9.8
31
0
0
LINE
8
PANEL
10
28
20
9.8
30
0
11
28
21
7.6
31
0
0
LINE
8
PANEL
10
29.3
20
7.6
30
0
11
30.4
21
7.6
31
0
0
LINE
8
PANEL
10
30.4
20
7.6
30
0
11
30.4
21
9.8
31
0
0
LINE
8
PANEL
10
30.4
20
9.8
30
0
11
29.3
21
9.8
31
0
0
LINE
8
PANEL
10
29.3
20
9.8
30
0
11
29.3
21
7.6
31
0
0
LINE
8
PANEL
10
30.6
20
7.6
30
0
11
31.7
21
7.6
31
0
0
LINE
8
PANEL
10
31.7
20
7.6
30
0
11
31.7
21
9.8
31
0
0
LINE
8
PANEL
10
31.7
20
9.8
30
0
11
30.6
21
9.8
31
0
0
LINE
8
PANEL
10
30.6
20
9.8
30
0
11
30.6
21
7.6
31
0
0
LINE
8
PANEL
10
31.9
20
7.6
30
0
11
33
21
7.6
31
0
0
LINE
8
PANEL
10
33
20
7.6
30
0
11
33
21
9.8
31
0
0
LINE
8
PANEL
10
33
20
9.8
30
0
11
31.9
21
9.8
31
0
0
LINE
8
PANEL
10
31.9
20
9.8
30
0
11
31.9
21
7.6
31
0
0
LINE
8
PANEL
10
33.2
20
7.6
30
0
11
34.3
21
7.6
31
0
0
LINE
8
PANEL
10
34.3
20
7.6
30
0
11
34.3
21
9.8
31
0
0
LINE
8
PANEL
10
34.3
20
9.8
30
0
11
33.2
21
9.8
31
0
0
LINE
8
PANEL
10
33.2
20
9.8
30
0
11
33.2
21
7.6
31
0
0
LINE
8
PANEL
10
34.5
20
7.6
30
0
11
35.6
21
7.6
31
0
0
LINE
8
PANEL
10
35.6
20
7.6
30
0
11
35.6
21
9.8
31
0
0
LINE
8
PANEL
10
35.6
20
9.8
30
0
11
34.5
21
9.8
31
0
0
LINE
8
PANEL
10
34.5
20
9.8
30
0
11
34.5
21
7.6
31
0
0
LINE
8
PANEL
10
35.8
20
7.6
30
0
11
36.9
21
7.6
31
0
0
LINE
8
PANEL
10
36.9
20
7.6
30
0
11
36.9
21
9.8
31
0
0
LINE
8
PANEL
10
36.9
20
9.8
30
0
11
35.8
21
9.8
31
0
0
LINE
8
PANEL
10
35.8
20
9.8
30
0
11
35.8
21
7.6
31
0
0
LINE
8
PANEL
10
37.1
20
7.6
30
0
11
38.2
21
7.6
31
0
0
LINE
8
PANEL
10
38.2
20
7.6
30
0
11
38.2
21
9.8
31
0
0
LINE
8
PANEL
10
38.2
20
9.8
30
0
11
37.1
21
9.8
31
0
0
LINE
8
PANEL
10
37.1
20
9.8
30
0
11
37.1
21
7.6
31
0
0
LINE
8
PANEL
10
38.4
20
7.6
30
0
11
39.5
21
7.6
31
0
0
LINE
8
PANEL
10
39.5
20
7.6
30
0
11
39.5
21
9.8
31
0
0
LINE
8
PANEL
10
39.5
20
9.8
30
0
11
38.4
21
9.8
31
0
0
LINE
8
PANEL
10
38.4
20
9.8
30
0
11
38.4
21
7.6
31
0
0
LINE
8
PANEL
10
39.7
20
7.6
30
0
11
40.8
21
7.6
31
0
0
LINE
8
PANEL
10
40.8
20
7.6
30
0
11
40.8
21
9.8
31
0
0
LINE
8
PANEL
10
40.8
20
9.8
30
0
11
39.7
21
9.8
31
0
0
LINE
8
PANEL
10
39.7
20
9.8
30
0
11
39.7
21
7.6
31
0
0
LINE
8
PANEL
10
41
20
7.6
30
0
11
42.1
21
7.6
31
0
0
LINE
8
PANEL
10
42.1
20
7.6
30
0
11
42.1
21
9.8
31
0
0
LINE
8
PANEL
10
42.1
20
9.8
30
0
11
41
21
9.8
31
0
0
LINE
8
PANEL
10
41
20
9.8
30
0
11
41
21
7.6
31
0
0
LINE
8
PANEL
10
42.3
20
7.6
30
0
11
43.4
21
7.6
31
0
0
LINE
8
PANEL
10
43.4
20
7.6
30
0
11
43.4
21
9.8
31
0
0
LINE
8
PANEL
10
43.4
20
9.8
30
0
11
42.3
21
9.8
31
0
0
LINE
8
PANEL
10
42.3
20
9.8
30
0
11
42.3
21
7.6
31
0
0
LINE
8
PANEL
10
43.6
20
7.6
30
0
11
44.7
21
7.6
31
0
0
LINE
8
PANEL
10
44.7
20
7.6
30
0
11
44.7
21
9.8
31
0
0
LINE
8
PANEL
10
44.7
20
9.8
30
0
11
43.6
21
9.8
31
0
0
LINE
8
PANEL
10
43.6
20
9.8
30
0
11
43.6
21
7.6
31
0
0
LINE
8
PANEL
10
44.9
20
7.6
30
0
11
46
21
7.6
31
0
0
LINE
8
PANEL
10
46
20
7.6
30
0
11
46
21
9.8
31
0
0
LINE
8
PANEL
10
46
20
9.8
30
0
11
44.9
21
9.8
31
0
0
LINE
8
PANEL
10
44.9
20
9.8
30
0
11
44.9
21
7.6
31
0
0
LINE
8
PANEL
10
46.2
20
7.6
30
0
11
47.3
21
7.6
31
0
0
LINE
8
PANEL
10
47.3
20
7.6
30
0
11
47.3
21
9.8
31
0
0
LINE
8
PANEL
10
47.3
20
9.8
30
0
11
46.2
21
9.8
31
0
0
LINE
8
PANEL
10
46.2
20
9.8
30
0
11
46.2
21
7.6
31
0
0
LINE
8
PANEL
10
47.5
20
7.6
30
0
11
48.6
21
7.6
31
0
0
LINE
8
PANEL
10
48.6
20
7.6
30
0
11
48.6
21
9.8
31
0
0
LINE
8
PANEL
10
48.6
20
9.8
30
0
11
47.5
21
9.8
31
0
0
LINE
8
PANEL
10
47.5
20
9.8
30
0
11
47.5
21
7.6
31
0
0
LINE
8
PANEL
10
48.8
20
7.6
30
0
11
49.9
21
7.6
31
0
0
LINE
8
PANEL
10
49.9
20
7.6
30
0
11
49.9
21
9.8
31
0
0
LINE
8
PANEL
10
49.9
20
9.8
30
0
11
48.8
21
9.8
31
0
0
LINE
8
PANEL
10
48.8
20
9.8
30
0
11
48.8
21
7.6
31
0
0
LINE
8
PANEL
10
50.1
20
7.6
30
0
11
51.2
21
7.6
31
0
0
LINE
8
PANEL
10
51.2
20
7.6
30
0
11
51.2
21
9.8
31
0
0
LINE
8
PANEL
10
51.2
20
9.8
30
0
11
50.1
21
9.8
31
0
0
LINE
8
PANEL
10
50.1
20
9.8
30
0
11
50.1
21
7.6
31
0
0
LINE
8
PANEL
10
51.4
20
7.6
30
0
11
52.5
21
7.6
31
0
0
LINE
8
PANEL
10
52.5
20
7.6
30
0
11
52.5
21
9.8
31
0
0
LINE
8
PANEL
10
52.5
20
9.8
30
0
11
51.4
21
9.8
31
0
0
LINE
8
PANEL
10
51.4
20
9.8
30
0
11
51.4
21
7.6
31
0
0
LINE
8
PANEL
10
52.7
20
7.6
30
0
11
53.8
21
7.6
31
0
0
LINE
8
PANEL
10
53.8
20
7.6
30
0
11
53.8
21
9.8
31
0
0
LINE
8
PANEL
10
53.8
20
9.8
30
0
11
52.7
21
9.8
31
0
0
LINE
8
PANEL
10
52.7
20
9.8
30
0
11
52.7
21
7.6
31
0
0
LINE
8
PANEL
10
54
20
7.6
30
0
11
55.1
21
7.6
31
0
0
LINE
8
PANEL
10
55.1
20
7.6
30
0
11
55.1
21
9.8
31
0
0
LINE
8
PANEL
10
55.1
20
9.8
30
0
11
54
21
9.8
31
0
0
LINE
8
PANEL
10
54
20
9.8
30
0
11
54
21
7.6
31
0
0
LINE
8
PANEL
10
55.3
20
7.6
30
0
11
56.4
21
7.6
31
0
0
LINE
8
PANEL
10
56.4
20
7.6
30
0
11
56.4
21
9.8
31
0
0
LINE
8
PANEL
10
56.4
20
9.8
30
0
11
55.3
21
9.8
31
0
0
LINE
8
PANEL
10
55.3
20
9.8
30
0
11
55.3
21
7.6
31
0
0
LINE
8
PANEL
10
56.6
20
7.6
30
0
11
57.7
21
7.6
31
0
0
LINE
8
PANEL
10
57.7
20
7.6
30
0
11
57.7
21
9.8
31
0
0
LINE
8
PANEL
10
57.7
20
9.8
30
0
11
56.6
21
9.8
31
0
0
LINE
8
PANEL
10
56.6
20
9.8
30
0
11
56.6
21
7.6
31
0
0
LINE
8
PANEL
10
57.9
20
7.6
30
0
11
59
21
7.6
31
0
0
LINE
8
PANEL
10
59
20
7.6
30
0
11
59
21
9.8
31
0
0
LINE
8
PANEL
10
59
20
9.8
30
0
11
57.9
21
9.8
31
0
0
LINE
8
PANEL
10
57.9
20
9.8
30
0
11
57.9
21
7.6
31
0
0
LINE
8
PANEL
10
59.2
20
7.6
30
0
11
60.3
21
7.6
31
0
0
LINE
8
PANEL
10
60.3
20
7.6
30
0
11
60.3
21
9.8
31
0
0
LINE
8
PANEL
10
60.3
20
9.8
30
0
11
59.2
21
9.8
31
0
0
LINE
8
PANEL
10
59.2
20
9.8
30
0
11
59.2
21
7.6
31
0
0
LINE
8
PANEL
10
60.5
20
7.6
30
0
11
61.6
21
7.6
31
0
0
LINE
8
PANEL
10
61.6
20
7.6
30
0
11
61.6
21
9.8
31
0
0
LINE
8
PANEL
10
61.6
20
9.8
30
0
11
60.5
21
9.8
31
0
0
LINE
8
PANEL
10
60.5
20
9.8
30
0
11
60.5
21
7.6
31
0
0
LINE
8
PANEL
10
61.8
20
7.6
30
0
11
62.9
21
7.6
31
0
0
LINE
8
PANEL
10
62.9
20
7.6
30
0
11
62.9
21
9.8
31
0
0
LINE
8
PANEL
10
62.9
20
9.8
30
0
11
61.8
21
9.8
31
0
0
LINE
8
PANEL
10
61.8
20
9.8
30
0
11
61.8
21
7.6
31
0
0
LINE
8
PANEL
10
63.1
20
7.6
30
0
11
64.2
21
7.6
31
0
0
LINE
8
PANEL
10
64.2
20
7.6
30
0
11
64.2
21
9.8
31
0
0
LINE
8
PANEL
10
64.2
20
9.8
30
0
11
63.1
21
9.8
31
0
0
LINE
8
PANEL
10
63.1
20
9.8
30
0
11
63.1
21
7.6
31
0
0
LINE
8
PANEL
10
64.4
20
7.6
30
0
11
65.5
21
7.6
31
0
0
LINE
8
PANEL
10
65.5
20
7.6
30
0
11
65.5
21
9.8
31
0
0
LINE
8
PANEL
10
65.5
20
9.8
30
0
11
64.4
21
9.8
31
0
0
LINE
8
PANEL
10
64.4
20
9.8
30
0
11
64.4
21
7.6
31
0
0
LINE
8
PANEL
10
65.7
20
7.6
30
0
11
66.8
21
7.6
31
0
0
LINE
8
PANEL
10
66.8
20
7.6
30
0
11
66.8
21
9.8
31
0
0
LINE
8
PANEL
10
66.8
20
9.8
30
0
11
65.7
21
9.8
31
0
0
LINE
8
PANEL
10
65.7
20
9.8
30
0
11
65.7
21
7.6
31
0
0
LINE
8
PANEL
10
67
20
7.6
30
0
11
68.1
21
7.6
31
0
0
LINE
8
PANEL
10
68.1
20
7.6
30
0
11
68.1
21
9.8
31
0
0
LINE
8
PANEL
10
68.1
20
9.8
30
0
11
67
21
9.8
31
0
0
LINE
8
PANEL
10
67
20
9.8
30
0
11
67
21
7.6
31
0
0
LINE
8
PANEL
10
68.3
20
7.6
30
0
11
69.4
21
7.6
31
0
0
LINE
8
PANEL
10
69.4
20
7.6
30
0
11
69.4
21
9.8
31
0
0
LINE
8
PANEL
10
69.4
20
9.8
30
0
11
68.3
21
9.8
31
0
0
LINE
8
PANEL
10
68.3
20
9.8
30
0
11
68.3
21
7.6
31
0
0
LINE
8
PANEL
10
69.6
20
7.6
30
0
11
70.7
21
7.6
31
0
0
LINE
8
PANEL
10
70.7
20
7.6
30
0
11
70.7
21
9.8
31
0
0
LINE
8
PANEL
10
70.7
20
9.8
30
0
11
69.6
21
9.8
31
0
0
LINE
8
PANEL
10
69.6
20
9.8
30
0
11
69.6
21
7.6
31
0
0
LINE
8
PANEL
10
70.9
20
7.6
30
0
11
72
21
7.6
31
0
0
LINE
8
PANEL
10
72
20
7.6
30
0
11
72
21
9.8
31
0
0
LINE
8
PANEL
10
72
20
9.8
30
0
11
70.9
21
9.8
31
0
0
LINE
8
PANEL
10
70.9
20
9.8
30
0
11
70.9
21
7.6
31
0
0
LINE
8
PANEL
10
72.2
20
7.6
30
0
11
73.3
21
7.6
31
0
0
LINE
8
PANEL
10
73.3
20
7.6
30
0
11
73.3
21
9.8
31
0
0
LINE
8
PANEL
10
73.3
20
9.8
30
0
11
72.2
21
9.8
31
0
0
LINE
8
PANEL
10
72.2
20
9.8
30
0
11
72.2
21
7.6
31
0
0
LINE
8
PANEL
10
73.5
20
7.6
30
0
11
74.6
21
7.6
31
0
0
LINE
8
PANEL
10
74.6
20
7.6
30
0
11
74.6
21
9.8
31
0
0
LINE
8
PANEL
10
74.6
20
9.8
30
0
11
73.5
21
9.8
31
0
0
LINE
8
PANEL
10
73.5
20
9.8
30
0
11
73.5
21
7.6
31
0
0
LINE
8
PANEL
10
74.8
20
7.6
30
0
11
75.9
21
7.6
31
0
0
LINE
8
PANEL
10
75.9
20
7.6
30
0
11
75.9
21
9.8
31
0
0
LINE
8
PANEL
10
75.9
20
9.8
30
0
11
74.8
21
9.8
31
0
0
LINE
8
PANEL
10
74.8
20
9.8
30
0
11
74.8
21
7.6
31
0
0
LINE
8
PANEL
10
76.1
20
7.6
30
0
11
77.2
21
7.6
31
0
0
LINE
8
PANEL
10
77.2
20
7.6
30
0
11
77.2
21
9.8
31
0
0
LINE
8
PANEL
10
77.2
20
9.8
30
0
11
76.1
21
9.8
31
0
0
LINE
8
PANEL
10
76.1
20
9.8
30
0
11
76.1
21
7.6
31
0
0
LINE
8
PANEL
10
2
20
10.4
30
0
11
3.1
21
10.4
31
0
0
LINE
8
PANEL
10
3.1
20
10.4
30
0
11
3.1
21
12.6
31
0
0
LINE
8
PANEL
10
3.1
20
12.6
30
0
11
2
21
12.6
31
0
0
LINE
8
PANEL
10
2
20
12.6
30
0
11
2
21
10.4
31
0
0
LINE
8
PANEL
10
3.3
20
10.4
30
0
11
4.4
21
10.4
31
0
0
LINE
8
PANEL
10
4.4
20
10.4
30
0
11
4.4
21
12.6
31
0
0
LINE
8
PANEL
10
4.4
20
12.6
30
0
11
3.3
21
12.6
31
0
0
LINE
8
PANEL
10
3.3
20
12.6
30
0
11
3.3
21
10.4
31
0
0
LINE
8
PANEL
10
4.6
20
10.4
30
0
11
5.7
21
10.4
31
0
0
LINE
8
PANEL
10
5.7
20
10.4
30
0
11
5.7
21
12.6
31
0
0
LINE
8
PANEL
10
5.7
20
12.6
30
0
11
4.6
21
12.6
31
0
0
LINE
8
PANEL
10
4.6
20
12.6
30
0
11
4.6
21
10.4
31
0
0
LINE
8
PANEL
10
5.9
20
10.4
30
0
11
7
21
10.4
31
0
0
LINE
8
PANEL
10
7
20
10.4
30
0
11
7
21
12.6
31
0
0
LINE
8
PANEL
10
7
20
12.6
30
0
11
5.9
21
12.6
31
0
0
LINE
8
PANEL
10
5.9
20
12.6
30
0
11
5.9
21
10.4
31
0
0
LINE
8
PANEL
10
7.2
20
10.4
30
0
11
8.3
21
10.4
31
0
0
LINE
8
PANEL
10
8.3
20
10.4
30
0
11
8.3
21
12.6
31
0
0
LINE
8
PANEL
10
8.3
20
12.6
30
0
11
7.2
21
12.6
31
0
0
LINE
8
PANEL
10
7.2
20
12.6
30
0
11
7.2
21
10.4
31
0
0
LINE
8
PANEL
10
8.5
20
10.4
30
0
11
9.6
21
10.4
31
0
0
LINE
8
PANEL
10
9.6
20
10.4
30
0
11
9.6
21
12.6
31
0
0
LINE
8
PANEL
10
9.6
20
12.6
30
0
11
8.5
21
12.6
31
0
0
LINE
8
PANEL
10
8.5
20
12.6
30
0
11
8.5
21
10.4
31
0
0
LINE
8
PANEL
10
9.8
20
10.4
30
0
11
10.9
21
10.4
31
0
0
LINE
8
PANEL
10
10.9
20
10.4
30
0
11
10.9
21
12.6
31
0
0
LINE
8
PANEL
10
10.9
20
12.6
30
0
11
9.8
21
12.6
31
0
0
LINE
8
PANEL
10
9.8
20
12.6
30
0
11
9.8
21
10.4
31
0
0
LINE
8
PANEL
10
11.1
20
10.4
30
0
11
12.2
21
10.4
31
0
0
LINE
8
PANEL
10
12.2
20
10.4
30
0
11
12.2
21
12.6
31
0
0
LINE
8
PANEL
10
12.2
20
12.6
30
0
11
11.1
21
12.6
31
0
0
LINE
8
PANEL
10
11.1
20
12.6
30
0
11
11.1
21
10.4
31
0
0
LINE
8
PANEL
10
12.4
20
10.4
30
0
11
13.5
21
10.4
31
0
0
LINE
8
PANEL
10
13.5
20
10.4
30
0
11
13.5
21
12.6
31
0
0
LINE
8
PANEL
10
13.5
20
12.6
30
0
11
12.4
21
12.6
31
0
0
LINE
8
PANEL
10
12.4
20
12.6
30
0
11
12.4
21
10.4
31
0
0
LINE
8
PANEL
10
13.7
20
10.4
30
0
11
14.8
21
10.4
31
0
0
LINE
8
PANEL
10
14.8
20
10.4
30
0
11
14.8
21
12.6
31
0
0
LINE
8
PANEL
10
14.8
20
12.6
30
0
11
13.7
21
12.6
31
0
0
LINE
8
PANEL
10
13.7
20
12.6
30
0
11
13.7
21
10.4
31
0
0
LINE
8
PANEL
10
15
20
10.4
30
0
11
16.1
21
10.4
31
0
0
LINE
8
PANEL
10
16.1
20
10.4
30
0
11
16.1
21
12.6
31
0
0
LINE
8
PANEL
10
16.1
20
12.6
30
0
11
15
21
12.6
31
0
0
LINE
8
PANEL
10
15
20
12.6
30
0
11
15
21
10.4
31
0
0
LINE
8
PANEL
10
16.3
20
10.4
30
0
11
17.4
21
10.4
31
0
0
LINE
8
PANEL
10
17.4
20
10.4
30
0
11
17.4
21
12.6
31
0
0
LINE
8
PANEL
10
17.4
20
12.6
30
0
11
16.3
21
12.6
31
0
0
LINE
8
PANEL
10
16.3
20
12.6
30
0
11
16.3
21
10.4
31
0
0
LINE
8
PANEL
10
17.6
20
10.4
30
0
11
18.7
21
10.4
31
0
0
LINE
8
PANEL
10
18.7
20
10.4
30
0
11
18.7
21
12.6
31
0
0
LINE
8
PANEL
10
18.7
20
12.6
30
0
11
17.6
21
12.6
31
0
0
LINE
8
PANEL
10
17.6
20
12.6
30
0
11
17.6
21
10.4
31
0
0
LINE
8
PANEL
10
18.9
20
10.4
30
0
11
20
21
10.4
31
0
0
LINE
8
PANEL
10
20
20
10.4
30
0
11
20
21
12.6
31
0
0
LINE
8
PANEL
10
20
20
12.6
30
0
11
18.9
21
12.6
31
0
0
LINE
8
PANEL
10
18.9
20
12.6
30
0
11
18.9
21
10.4
31
0
0
LINE
8
PANEL
10
20.2
20
10.4
30
0
11
21.3
21
10.4
31
0
0
LINE
8
PANEL
10
21.3
20
10.4
30
0
11
21.3
21
12.6
31
0
0
LINE
8
PANEL
10
21.3
20
12.6
30
0
11
20.2
21
12.6
31
0
0
LINE
8
PANEL
10
20.2
20
12.6
30
0
11
20.2
21
10.4
31
0
0
LINE
8
PANEL
10
21.5
20
10.4
30
0
11
22.6
21
10.4
31
0
0
LINE
8
PANEL
10
22.6
20
10.4
30
0
11
22.6
21
12.6
31
0
0
LINE
8
PANEL
10
22.6
20
12.6
30
0
11
21.5
21
12.6
31
0
0
LINE
8
PANEL
10
21.5
20
12.6
30
0
11
21.5
21
10.4
31
0
0
LINE
8
PANEL
10
22.8
20
10.4
30
0
11
23.9
21
10.4
31
0
0
LINE
8
PANEL
10
23.9
20
10.4
30
0
11
23.9
21
12.6
31
0
0
LINE
8
PANEL
10
23.9
20
12.6
30
0
11
22.8
21
12.6
31
0
0
LINE
8
PANEL
10
22.8
20
12.6
30
0
11
22.8
21
10.4
31
0
0
LINE
8
PANEL
10
24.1
20
10.4
30
0
11
25.2
21
10.4
31
0
0
LINE
8
PANEL
10
25.2
20
10.4
30
0
11
25.2
21
12.6
31
0
0
LINE
8
PANEL
10
25.2
20
12.6
30
0
11
24.1
21
12.6
31
0
0
LINE
8
PANEL
10
24.1
20
12.6
30
0
11
24.1
21
10.4
31
0
0
LINE
8
PANEL
10
25.4
20
10.4
30
0
11
26.5
21
10.4
31
0
0
LINE
8
PANEL
10
26.5
20
10.4
30
0
11
26.5
21
12.6
31
0
0
LINE
8
PANEL
10
26.5
20
12.6
30
0
11
25.4
21
12.6
31
0
0
LINE
8
PANEL
10
25.4
20
12.6
30
0
11
25.4
21
10.4
31
0
0
LINE
8
PANEL
10
26.7
20
10.4
30
0
11
27.8
21
10.4
31
0
0
LINE
8
PANEL
10
27.8
20
10.4
30
0
11
27.8
21
12.6
31
0
0
LINE
8
PANEL
10
27.8
20
12.6
30
0
11
26.7
21
12.6
31
0
0
LINE
8
PANEL
10
26.7
20
12.6
30
0
11
26.7
21
10.4
31
0
0
LINE
8
PANEL
10
28
20
10.4
30
0
11
29.1
21
10.4
31
0
0
LINE
8
PANEL
10
29.1
20
10.4
30
0
11
29.1
21
12.6
31
0
0
LINE
8
PANEL
10
29.1
20
12.6
30
0
11
28
21
12.6
31
0
0
LINE
8
PANEL
10
28
20
12.6
30
0
11
28
21
10.4
31
0
0
LINE
8
PANEL
10
29.3
20
10.4
30
0
11
30.4
21
10.4
31
0
0
LINE
8
PANEL
10
30.4
20
10.4
30
0
11
30.4
21
12.6
31
0
0
LINE
8
PANEL
10
30.4
20
12.6
30
0
11
29.3
21
12.6
31
0
0
LINE
8
PANEL
10
29.3
20
12.6
30
0
11
29.3
21
10.4
31
0
0
LINE
8
PANEL
10
30.6
20
10.4
30
0
11
31.7
21
10.4
31
0
0
LINE
8
PANEL
10
31.7
20
10.4
30
0
11
31.7
21
12.6
31
0
0
LINE
8
PANEL
10
31.7
20
12.6
30
0
11
30.6
21
12.6
31
0
0
LINE
8
PANEL
10
30.6
20
12.6
30
0
11
30.6
21
10.4
31
0
0
LINE
8
PANEL
10
31.9
20
10.4
30
0
11
33
21
10.4
31
0
0
LINE
8
PANEL
10
33
20
10.4
30
0
11
33
21
12.6
31
0
0
LINE
8
PANEL
10
33
20
12.6
30
0
11
31.9
21
12.6
31
0
0
LINE
8
PANEL
10
31.9
20
12.6
30
0
11
31.9
21
10.4
31
0
0
LINE
8
PANEL
10
33.2
20
10.4
30
0
11
34.3
21
10.4
31
0
0
LINE
8
PANEL
10
34.3
20
10.4
30
0
11
34.3
21
12.6
31
0
0
LINE
8
PANEL
10
34.3
20
12.6
30
0
11
33.2
21
12.6
31
0
0
LINE
8
PANEL
10
33.2
20
12.6
30
0
11
33.2
21
10.4
31
0
0
LINE
8
PANEL
10
34.5
20
10.4
30
0
11
35.6
21
10.4
31
0
0
LINE
8
PANEL
10
35.6
20
10.4
30
0
11
35.6
21
12.6
31
0
0
LINE
8
PANEL
10
35.6
20
12.6
30
0
11
34.5
21
12.6
31
0
0
LINE
8
PANEL
10
34.5
20
12.6
30
0
11
34.5
21
10.4
31
0
0
LINE
8
PANEL
10
35.8
20
10.4
30
0
11
36.9
21
10.4
31
0
0
LINE
8
PANEL
10
36.9
20
10.4
30
0
11
36.9
21
12.6
31
0
0
LINE
8
PANEL
10
36.9
20
12.6
30
0
11
35.8
21
12.6
31
0
0
LINE
8
PANEL
10
35.8
20
12.6
30
0
11
35.8
21
10.4
31
0
0
LINE
8
PANEL
10
37.1
20
10.4
30
0
11
38.2
21
10.4
31
0
0
LINE
8
PANEL
10
38.2
20
10.4
30
0
11
38.2
21
12.6
31
0
0
LINE
8
PANEL
10
38.2
20
12.6
30
0
11
37.1
21
12.6
31
0
0
LINE
8
PANEL
10
37.1
20
12.6
30
0
11
37.1
21
10.4
31
0
0
LINE
8
PANEL
10
38.4
20
10.4
30
0
11
39.5
21
10.4
31
0
0
LINE
8
PANEL
10
39.5
20
10.4
30
0
11
39.5
21
12.6
31
0
0
LINE
8
PANEL
10
39.5
20
12.6
30
0
11
38.4
21
12.6
31
0
0
LINE
8
PANEL
10
38.4
20
12.6
30
0
11
38.4
21
10.4
31
0
0
LINE
8
PANEL
10
39.7
20
10.4
30
0
11
40.8
21
10.4
31
0
0
LINE
8
PANEL
10
40.8
20
10.4
30
0
11
40.8
21
12.6
31
0
0
LINE
8
PANEL
10
40.8
20
12.6
30
0
11
39.7
21
12.6
31
0
0
LINE
8
PANEL
10
39.7
20
12.6
30
0
11
39.7
21
10.4
31
0
0
LINE
8
PANEL
10
41
20
10.4
30
0
11
42.1
21
10.4
31
0
0
LINE
8
PANEL
10
42.1
20
10.4
30
0
11
42.1
21
12.6
31
0
0
LINE
8
PANEL
10
42.1
20
12.6
30
0
11
41
21
12.6
31
0
0
LINE
8
PANEL
10
41
20
12.6
30
0
11
41
21
10.4
31
0
0
LINE
8
PANEL
10
42.3
20
10.4
30
0
11
43.4
21
10.4
31
0
0
LINE
8
PANEL
10
43.4
20
10.4
30
0
11
43.4
21
12.6
31
0
0
LINE
8
PANEL
10
43.4
20
12.6
30
0
11
42.3
21
12.6
31
0
0
LINE
8
PANEL
10
42.3
20
12.6
30
0
11
42.3
21
10.4
31
0
0
LINE
8
PANEL
10
43.6
20
10.4
30
0
11
44.7
21
10.4
31
0
0
LINE
8
PANEL
10
44.7
20
10.4
30
0
11
44.7
21
12.6
31
0
0
LINE
8
PANEL
10
44.7
20
12.6
30
0
11
43.6
21
12.6
31
0
0
LINE
8
PANEL
10
43.6
20
12.6
30
0
11
43.6
21
10.4
31
0
0
LINE
8
PANEL
10
44.9
20
10.4
30
0
11
46
21
10.4
31
0
0
LINE
8
PANEL
10
46
20
10.4
30
0
11
46
21
12.6
31
0
0
LINE
8
PANEL
10
46
20
12.6
30
0
11
44.9
21
12.6
31
0
0
LINE
8
PANEL
10
44.9
20
12.6
30
0
11
44.9
21
10.4
31
0
0
LINE
8
PANEL
10
46.2
20
10.4
30
0
11
47.3
21
10.4
31
0
0
LINE
8
PANEL
10
47.3
20
10.4
30
0
11
47.3
21
12.6
31
0
0
LINE
8
PANEL
10
47.3
20
12.6
30
0
11
46.2
21
12.6
31
0
0
LINE
8
PANEL
10
46.2
20
12.6
30
0
11
46.2
21
10.4
31
0
0
LINE
8
PANEL
10
47.5
20
10.4
30
0
11
48.6
21
10.4
31
0
0
LINE
8
PANEL
10
48.6
20
10.4
30
0
11
48.6
21
12.6
31
0
0
LINE
8
PANEL
10
48.6
20
12.6
30
0
11
47.5
21
12.6
31
0
0
LINE
8
PANEL
10
47.5
20
12.6
30
0
11
47.5
21
10.4
31
0
0
LINE
8
PANEL
10
48.8
20
10.4
30
0
11
49.9
21
10.4
31
0
0
LINE
8
PANEL
10
49.9
20
10.4
30
0
11
49.9
21
12.6
31
0
0
LINE
8
PANEL
10
49.9
20
12.6
30
0
11
48.8
21
12.6
31
0
0
LINE
8
PANEL
10
48.8
20
12.6
30
0
11
48.8
21
10.4
31
0
0
LINE
8
PANEL
10
50.1
20
10.4
30
0
11
51.2
21
10.4
31
0
0
LINE
8
PANEL
10
51.2
20
10.4
30
0
11
51.2
21
12.6
31
0
0
LINE
8
PANEL
10
51.2
20
12.6
30
0
11
50.1
21
12.6
31
0
0
LINE
8
PANEL
10
50.1
20
12.6
30
0
11
50.1
21
10.4
31
0
0
LINE
8
PANEL
10
51.4
20
10.4
30
0
11
52.5
21
10.4
31
0
0
LINE
8
PANEL
10
52.5
20
10.4
30
0
11
52.5
21
12.6
31
0
0
LINE
8
PANEL
10
52.5
20
12.6
30
0
11
51.4
21
12.6
31
0
0
LINE
8
PANEL
10
51.4
20
12.6
30
0
11
51.4
21
10.4
31
0
0
LINE
8
PANEL
10
52.7
20
10.4
30
0
11
53.8
21
10.4
31
0
0
LINE
8
PANEL
10
53.8
20
10.4
30
0
11
53.8
21
12.6
31
0
0
LINE
8
PANEL
10
53.8
20
12.6
30
0
11
52.7
21
12.6
31
0
0
LINE
8
PANEL
10
52.7
20
12.6
30
0
11
52.7
21
10.4
31
0
0
LINE
8
PANEL
10
63.1
20
10.4
30
0
11
64.2
21
10.4
31
0
0
LINE
8
PANEL
10
64.2
20
10.4
30
0
11
64.2
21
12.6
31
0
0
LINE
8
PANEL
10
64.2
20
12.6
30
0
11
63.1
21
12.6
31
0
0
LINE
8
PANEL
10
63.1
20
12.6
30
0
11
63.1
21
10.4
31
0
0
LINE
8
PANEL
10
64.4
20
10.4
30
0
11
65.5
21
10.4
31
0
0
LINE
8
PANEL
10
65.5
20
10.4
30
0
11
65.5
21
12.6
31
0
0
LINE
8
PANEL
10
65.5
20
12.6
30
0
11
64.4
21
12.6
31
0
0
LINE
8
PANEL
10
64.4
20
12.6
30
0
11
64.4
21
10.4
31
0
0
LINE
8
PANEL
10
65.7
20
10.4
30
0
11
66.8
21
10.4
31
0
0
LINE
8
PANEL
10
66.8
20
10.4
30
0
11
66.8
21
12.6
31
0
0
LINE
8
PANEL
10
66.8
20
12.6
30
0
11
65.7
21
12.6
31
0
0
LINE
8
PANEL
10
65.7
20
12.6
30
0
11
65.7
21
10.4
31
0
0
LINE
8
PANEL
10
67
20
10.4
30
0
11
68.1
21
10.4
31
0
0
LINE
8
PANEL
10
68.1
20
10.4
30
0
11
68.1
21
12.6
31
0
0
LINE
8
PANEL
10
68.1
20
12.6
30
0
11
67
21
12.6
31
0
0
LINE
8
PANEL
10
67
20
12.6
30
0
11
67
21
10.4
31
0
0
LINE
8
PANEL
10
68.3
20
10.4
30
0
11
69.4
21
10.4
31
0
0
LINE
8
PANEL
10
69.4
20
10.4
30
0
11
69.4
21
12.6
31
0
0
LINE
8
PANEL
10
69.4
20
12.6
30
0
11
68.3
21
12.6
31
0
0
LINE
8
PANEL
10
68.3
20
12.6
30
0
11
68.3
21
10.4
31
0
0
LINE
8
PANEL
10
69.6
20
10.4
30
0
11
70.7
21
10.4
31
0
0
LINE
8
PANEL
10
70.7
20
10.4
30
0
11
70.7
21
12.6
31
0
0
LINE
8
PANEL
10
70.7
20
12.6
30
0
11
69.6
21
12.6
31
0
0
LINE
8
PANEL
10
69.6
20
12.6
30
0
11
69.6
21
10.4
31
0
0
LINE
8
PANEL
10
70.9
20
10.4
30
0
11
72
21
10.4
31
0
0
LINE
8
PANEL
10
72
20
10.4
30
0
11
72
21
12.6
31
0
0
LINE
8
PANEL
10
72
20
12.6
30
0
11
70.9
21
12.6
31
0
0
LINE
8
PANEL
10
70.9
20
12.6
30
0
11
70.9
21
10.4
31
0
0
LINE
8
PANEL
10
72.2
20
10.4
30
0
11
73.3
21
10.4
31
0
0
LINE
8
PANEL
10
73.3
20
10.4
30
0
11
73.3
21
12.6
31
0
0
LINE
8
PANEL
10
73.3
20
12.6
30
0
11
72.2
21
12.6
31
0
0
LINE
8
PANEL
10
72.2
20
12.6
30
0
11
72.2
21
10.4
31
0
0
LINE
8
PANEL
10
73.5
20
10.4
30
0
11
74.6
21
10.4
31
0
0
LINE
8
PANEL
10
74.6
20
10.4
30
0
11
74.6
21
12.6
31
0
0
LINE
8
PANEL
10
74.6
20
12.6
30
0
11
73.5
21
12.6
31
0
0
LINE
8
PANEL
10
73.5
20
12.6
30
0
11
73.5
21
10.4
31
0
0
LINE
8
PANEL
10
74.8
20
10.4
30
0
11
75.9
21
10.4
31
0
0
LINE
8
PANEL
10
75.9
20
10.4
30
0
11
75.9
21
12.6
31
0
0
LINE
8
PANEL
10
75.9
20
12.6
30
0
11
74.8
21
12.6
31
0
0
LINE
8
PANEL
10
74.8
20
12.6
30
0
11
74.8
21
10.4
31
0
0
LINE
8
PANEL
10
76.1
20
10.4
30
0
11
77.2
21
10.4
31
0
0
LINE
8
PANEL
10
77.2
20
10.4
30
0
11
77.2
21
12.6
31
0
0
LINE
8
PANEL
10
77.2
20
12.6
30
0
11
76.1
21
12.6
31
0
0
LINE
8
PANEL
10
76.1
20
12.6
30
0
11
76.1
21
10.4
31
0
0
LINE
8
PANEL
10
2
20
13.2
30
0
11
3.1
21
13.2
31
0
0
LINE
8
PANEL
10
3.1
20
13.2
30
0
11
3.1
21
15.4
31
0
0
LINE
8
PANEL
10
3.1
20
15.4
30
0
11
2
21
15.4
31
0
0
LINE
8
PANEL
10
2
20
15.4
30
0
11
2
21
13.2
31
0
0
LINE
8
PANEL
10
3.3
20
13.2
30
0
11
4.4
21
13.2
31
0
0
LINE
8
PANEL
10
4.4
20
13.2
30
0
11
4.4
21
15.4
31
0
0
LINE
8
PANEL
10
4.4
20
15.4
30
0
11
3.3
21
15.4
31
0
0
LINE
8
PANEL
10
3.3
20
15.4
30
0
11
3.3
21
13.2
31
0
0
LINE
8
PANEL
10
4.6
20
13.2
30
0
11
5.7
21
13.2
31
0
0
LINE
8
PANEL
10
5.7
20
13.2
30
0
11
5.7
21
15.4
31
0
0
LINE
8
PANEL
10
5.7
20
15.4
30
0
11
4.6
21
15.4
31
0
0
LINE
8
PANEL
10
4.6
20
15.4
30
0
11
4.6
21
13.2
31
0
0
LINE
8
PANEL
10
5.9
20
13.2
30
0
11
7
21
13.2
31
0
0
LINE
8
PANEL
10
7
20
13.2
30
0
11
7
21
15.4
31
0
0
LINE
8
PANEL
10
7
20
15.4
30
0
11
5.9
21
15.4
31
0
0
LINE
8
PANEL
10
5.9
20
15.4
30
0
11
5.9
21
13.2
31
0
0
LINE
8
PANEL
10
7.2
20
13.2
30
0
11
8.3
21
13.2
31
0
0
LINE
8
PANEL
10
8.3
20
13.2
30
0
11
8.3
21
15.4
31
0
0
LINE
8
PANEL
10
8.3
20
15.4
30
0
11
7.2
21
15.4
31
0
0
LINE
8
PANEL
10
7.2
20
15.4
30
0
11
7.2
21
13.2
31
0
0
LINE
8
PANEL
10
8.5
20
13.2
30
0
11
9.6
21
13.2
31
0
0
LINE
8
PANEL
10
9.6
20
13.2
30
0
11
9.6
21
15.4
31
0
0
LINE
8
PANEL
10
9.6
20
15.4
30
0
11
8.5
21
15.4
31
0
0
LINE
8
PANEL
10
8.5
20
15.4
30
0
11
8.5
21
13.2
31
0
0
LINE
8
PANEL
10
9.8
20
13.2
30
0
11
10.9
21
13.2
31
0
0
LINE
8
PANEL
10
10.9
20
13.2
30
0
11
10.9
21
15.4
31
0
0
LINE
8
PANEL
10
10.9
20
15.4
30
0
11
9.8
21
15.4
31
0
0
LINE
8
PANEL
10
9.8
20
15.4
30
0
11
9.8
21
13.2
31
0
0
LINE
8
PANEL
10
11.1
20
13.2
30
0
11
12.2
21
13.2
31
0
0
LINE
8
PANEL
10
12.2
20
13.2
30
0
11
12.2
21
15.4
31
0
0
LINE
8
PANEL
10
12.2
20
15.4
30
0
11
11.1
21
15.4
31
0
0
LINE
8
PANEL
10
11.1
20
15.4
30
0
11
11.1
21
13.2
31
0
0
LINE
8
PANEL
10
12.4
20
13.2
30
0
11
13.5
21
13.2
31
0
0
LINE
8
PANEL
10
13.5
20
13.2
30
0
11
13.5
21
15.4
31
0
0
LINE
8
PANEL
10
13.5
20
15.4
30
0
11
12.4
21
15.4
31
0
0
LINE
8
PANEL
10
12.4
20
15.4
30
0
11
12.4
21
13.2
31
0
0
LINE
8
PANEL
10
13.7
20
13.2
30
0
11
14.8
21
13.2
31
0
0
LINE
8
PANEL
10
14.8
20
13.2
30
0
11
14.8
21
15.4
31
0
0
LINE
8
PANEL
10
14.8
20
15.4
30
0
11
13.7
21
15.4
31
0
0
LINE
8
PANEL
10
13.7
20
15.4
30
0
11
13.7
21
13.2
31
0
0
LINE
8
PANEL
10
15
20
13.2
30
0
11
16.1
21
13.2
31
0
0
LINE
8
PANEL
10
16.1
20
13.2
30
0
11
16.1
21
15.4
31
0
0
LINE
8
PANEL
10
16.1
20
15.4
30
0
11
15
21
15.4
31
0
0
LINE
8
PANEL
10
15
20
15.4
30
0
11
15
21
13.2
31
0
0
LINE
8
PANEL
10
16.3
20
13.2
30
0
11
17.4
21
13.2
31
0
0
LINE
8
PANEL
10
17.4
20
13.2
30
0
11
17.4
21
15.4
31
0
0
LINE
8
PANEL
10
17.4
20
15.4
30
0
11
16.3
21
15.4
31
0
0
LINE
8
PANEL
10
16.3
20
15.4
30
0
11
16.3
21
13.2
31
0
0
LINE
8
PANEL
10
17.6
20
13.2
30
0
11
18.7
21
13.2
31
0
0
LINE
8
PANEL
10
18.7
20
13.2
30
0
11
18.7
21
15.4
31
0
0
LINE
8
PANEL
10
18.7
20
15.4
30
0
11
17.6
21
15.4
31
0
0
LINE
8
PANEL
10
17.6
20
15.4
30
0
11
17.6
21
13.2
31
0
0
LINE
8
PANEL
10
25.4
20
13.2
30
0
11
26.5
21
13.2
31
0
0
LINE
8
PANEL
10
26.5
20
13.2
30
0
11
26.5
21
15.4
31
0
0
LINE
8
PANEL
10
26.5
20
15.4
30
0
11
25.4
21
15.4
31
0
0
LINE
8
PANEL
10
25.4
20
15.4
30
0
11
25.4
21
13.2
31
0
0
LINE
8
PANEL
10
26.7
20
13.2
30
0
11
27.8
21
13.2
31
0
0
LINE
8
PANEL
10
27.8
20
13.2
30
0
11
27.8
21
15.4
31
0
0
LINE
8
PANEL
10
27.8
20
15.4
30
0
11
26.7
21
15.4
31
0
0
LINE
8
PANEL
10
26.7
20
15.4
30
0
11
26.7
21
13.2
31
0
0
LINE
8
PANEL
10
28
20
13.2
30
0
11
29.1
21
13.2
31
0
0
LINE
8
PANEL
10
29.1
20
13.2
30
0
11
29.1
21
15.4
31
0
0
LINE
8
PANEL
10
29.1
20
15.4
30
0
11
28
21
15.4
31
0
0
LINE
8
PANEL
10
28
20
15.4
30
0
11
28
21
13.2
31
0
0
LINE
8
PANEL
10
29.3
20
13.2
30
0
11
30.4
21
13.2
31
0
0
LINE
8
PANEL
10
30.4
20
13.2
30
0
11
30.4
21
15.4
31
0
0
LINE
8
PANEL
10
30.4
20
15.4
30
0
11
29.3
21
15.4
31
0
0
LINE
8
PANEL
10
29.3
20
15.4
30
0
11
29.3
21
13.2
31
0
0
LINE
8
PANEL
10
30.6
20
13.2
30
0
11
31.7
21
13.2
31
0
0
LINE
8
PANEL
10
31.7
20
13.2
30
0
11
31.7
21
15.4
31
0
0
LINE
8
PANEL
10
31.7
20
15.4
30
0
11
30.6
21
15.4
31
0
0
LINE
8
PANEL
10
30.6
20
15.4
30
0
11
30.6
21
13.2
31
0
0
LINE
8
PANEL
10
31.9
20
13.2
30
0
11
33
21
13.2
31
0
0
LINE
8
PANEL
10
33
20
13.2
30
0
11
33
21
15.4
31
0
0
LINE
8
PANEL
10
33
20
15.4
30
0
11
31.9
21
15.4
31
0
0
LINE
8
PANEL
10
31.9
20
15.4
30
0
11
31.9
21
13.2
31
0
0
LINE
8
PANEL
10
33.2
20
13.2
30
0
11
34.3
21
13.2
31
0
0
LINE
8
PANEL
10
34.3
20
13.2
30
0
11
34.3
21
15.4
31
0
0
LINE
8
PANEL
10
34.3
20
15.4
30
0
11
33.2
21
15.4
31
0
0
LINE
8
PANEL
10
33.2
20
15.4
30
0
11
33.2
21
13.2
31
0
0
LINE
8
PANEL
10
34.5
20
13.2
30
0
11
35.6
21
13.2
31
0
0
LINE
8
PANEL
10
35.6
20
13.2
30
0
11
35.6
21
15.4
31
0
0
LINE
8
PANEL
10
35.6
20
15.4
30
0
11
34.5
21
15.4
31
0
0
LINE
8
PANEL
10
34.5
20
15.4
30
0
11
34.5
21
13.2
31
0
0
LINE
8
PANEL
10
35.8
20
13.2
30
0
11
36.9
21
13.2
31
0
0
LINE
8
PANEL
10
36.9
20
13.2
30
0
11
36.9
21
15.4
31
0
0
LINE
8
PANEL
10
36.9
20
15.4
30
0
11
35.8
21
15.4
31
0
0
LINE
8
PANEL
10
35.8
20
15.4
30
0
11
35.8
21
13.2
31
0
0
LINE
8
PANEL
10
37.1
20
13.2
30
0
11
38.2
21
13.2
31
0
0
LINE
8
PANEL
10
38.2
20
13.2
30
0
11
38.2
21
15.4
31
0
0
LINE
8
PANEL
10
38.2
20
15.4
30
0
11
37.1
21
15.4
31
0
0
LINE
8
PANEL
10
37.1
20
15.4
30
0
11
37.1
21
13.2
31
0
0
LINE
8
PANEL
10
38.4
20
13.2
30
0
11
39.5
21
13.2
31
0
0
LINE
8
PANEL
10
39.5
20
13.2
30
0
11
39.5
21
15.4
31
0
0
LINE
8
PANEL
10
39.5
20
15.4
30
0
11
38.4
21
15.4
31
0
0
LINE
8
PANEL
10
38.4
20
15.4
30
0
11
38.4
21
13.2
31
0
0
LINE
8
PANEL
10
39.7
20
13.2
30
0
11
40.8
21
13.2
31
0
0
LINE
8
PANEL
10
40.8
20
13.2
30
0
11
40.8
21
15.4
31
0
0
LINE
8
PANEL
10
40.8
20
15.4
30
0
11
39.7
21
15.4
31
0
0
LINE
8
PANEL
10
39.7
20
15.4
30
0
11
39.7
21
13.2
31
0
0
LINE
8
PANEL
10
41
20
13.2
30
0
11
42.1
21
13.2
31
0
0
LINE
8
PANEL
10
42.1
20
13.2
30
0
11
42.1
21
15.4
31
0
0
LINE
8
PANEL
10
42.1
20
15.4
30
0
11
41
21
15.4
31
0
0
LINE
8
PANEL
10
41
20
15.4
30
0
11
41
21
13.2
31
0
0
LINE
8
PANEL
10
42.3
20
13.2
30
0
11
43.4
21
13.2
31
0
0
LINE
8
PANEL
10
43.4
20
13.2
30
0
11
43.4
21
15.4
31
0
0
LINE
8
PANEL
10
43.4
20
15.4
30
0
11
42.3
21
15.4
31
0
0
LINE
8
PANEL
10
42.3
20
15.4
30
0
11
42.3
21
13.2
31
0
0
LINE
8
PANEL
10
43.6
20
13.2
30
0
11
44.7
21
13.2
31
0
0
LINE
8
PANEL
10
44.7
20
13.2
30
0
11
44.7
21
15.4
31
0
0
LINE
8
PANEL
10
44.7
20
15.4
30
0
11
43.6
21
15.4
31
0
0
LINE
8
PANEL
10
43.6
20
15.4
30
0
11
43.6
21
13.2
31
0
0
LINE
8
PANEL
10
44.9
20
13.2
30
0
11
46
21
13.2
31
0
0
LINE
8
PANEL
10
46
20
13.2
30
0
11
46
21
15.4
31
0
0
LINE
8
PANEL
10
46
20
15.4
30
0
11
44.9
21
15.4
31
0
0
LINE
8
PANEL
10
44.9
20
15.4
30
0
11
44.9
21
13.2
31
0
0
LINE
8
PANEL
10
46.2
20
13.2
30
0
11
47.3
21
13.2
31
0
0
LINE
8
PANEL
10
47.3
20
13.2
30
0
11
47.3
21
15.4
31
0
0
LINE
8
PANEL
10
47.3
20
15.4
30
0
11
46.2
21
15.4
31
0
0
LINE
8
PANEL
10
46.2
20
15.4
30
0
11
46.2
21
13.2
31
0
0
LINE
8
PANEL
10
47.5
20
13.2
30
0
11
48.6
21
13.2
31
0
0
LINE
8
PANEL
10
48.6
20
13.2
30
0
11
48.6
21
15.4
31
0
0
LINE
8
PANEL
10
48.6
20
15.4
30
0
11
47.5
21
15.4
31
0
0
LINE
8
PANEL
10
47.5
20
15.4
30
0
11
47.5
21
13.2
31
0
0
LINE
8
PANEL
10
48.8
20
13.2
30
0
11
49.9
21
13.2
31
0
0
LINE
8
PANEL
10
49.9
20
13.2
30
0
11
49.9
21
15.4
31
0
0
LINE
8
PANEL
10
49.9
20
15.4
30
0
11
48.8
21
15.4
31
0
0
LINE
8
PANEL
10
48.8
20
15.4
30
0
11
48.8
21
13.2
31
0
0
LINE
8
PANEL
10
50.1
20
13.2
30
0
11
51.2
21
13.2
31
0
0
LINE
8
PANEL
10
51.2
20
13.2
30
0
11
51.2
21
15.4
31
0
0
LINE
8
PANEL
10
51.2
20
15.4
30
0
11
50.1
21
15.4
31
0
0
LINE
8
PANEL
10
50.1
20
15.4
30
0
11
50.1
21
13.2
31
0
0
LINE
8
PANEL
10
51.4
20
13.2
30
0
11
52.5
21
13.2
31
0
0
LINE
8
PANEL
10
52.5
20
13.2
30
0
11
52.5
21
15.4
31
0
0
LINE
8
PANEL
10
52.5
20
15.4
30
0
11
51.4
21
15.4
31
0
0
LINE
8
PANEL
10
51.4
20
15.4
30
0
11
51.4
21
13.2
31
0
0
LINE
8
PANEL
10
52.7
20
13.2
30
0
11
53.8
21
13.2
31
0
0
LINE
8
PANEL
10
53.8
20
13.2
30
0
11
53.8
21
15.4
31
0
0
LINE
8
PANEL
10
53.8
20
15.4
30
0
11
52.7
21
15.4
31
0
0
LINE
8
PANEL
10
52.7
20
15.4
30
0
11
52.7
21
13.2
31
0
0
LINE
8
PANEL
10
63.1
20
13.2
30
0
11
64.2
21
13.2
31
0
0
LINE
8
PANEL
10
64.2
20
13.2
30
0
11
64.2
21
15.4
31
0
0
LINE
8
PANEL
10
64.2
20
15.4
30
0
11
63.1
21
15.4
31
0
0
LINE
8
PANEL
10
63.1
20
15.4
30
0
11
63.1
21
13.2
31
0
0
LINE
8
PANEL
10
64.4
20
13.2
30
0
11
65.5
21
13.2
31
0
0
LINE
8
PANEL
10
65.5
20
13.2
30
0
11
65.5
21
15.4
31
0
0
LINE
8
PANEL
10
65.5
20
15.4
30
0
11
64.4
21
15.4
31
0
0
LINE
8
PANEL
10
64.4
20
15.4
30
0
11
64.4
21
13.2
31
0
0
LINE
8
PANEL
10
65.7
20
13.2
30
0
11
66.8
21
13.2
31
0
0
LINE
8
PANEL
10
66.8
20
13.2
30
0
11
66.8
21
15.4
31
0
0
LINE
8
PANEL
10
66.8
20
15.4
30
0
11
65.7
21
15.4
31
0
0
LINE
8
PANEL
10
65.7
20
15.4
30
0
11
65.7
21
13.2
31
0
0
LINE
8
PANEL
10
67
20
13.2
30
0
11
68.1
21
13.2
31
0
0
LINE
8
PANEL
10
68.1
20
13.2
30
0
11
68.1
21
15.4
31
0
0
LINE
8
PANEL
10
68.1
20
15.4
30
0
11
67
21
15.4
31
0
0
LINE
8
PANEL
10
67
20
15.4
30
0
11
67
21
13.2
31
0
0
LINE
8
PANEL
10
68.3
20
13.2
30
0
11
69.4
21
13.2
31
0
0
LINE
8
PANEL
10
69.4
20
13.2
30
0
11
69.4
21
15.4
31
0
0
LINE
8
PANEL
10
69.4
20
15.4
30
0
11
68.3
21
15.4
31
0
0
LINE
8
PANEL
10
68.3
20
15.4
30
0
11
68.3
21
13.2
31
0
0
LINE
8
PANEL
10
69.6
20
13.2
30
0
11
70.7
21
13.2
31
0
0
LINE
8
PANEL
10
70.7
20
13.2
30
0
11
70.7
21
15.4
31
0
0
LINE
8
PANEL
10
70.7
20
15.4
30
0
11
69.6
21
15.4
31
0
0
LINE
8
PANEL
10
69.6
20
15.4
30
0
11
69.6
21
13.2
31
0
0
LINE
8
PANEL
10
70.9
20
13.2
30
0
11
72
21
13.2
31
0
0
LINE
8
PANEL
10
72
20
13.2
30
0
11
72
21
15.4
31
0
0
LINE
8
PANEL
10
72
20
15.4
30
0
11
70.9
21
15.4
31
0
0
LINE
8
PANEL
10
70.9
20
15.4
30
0
11
70.9
21
13.2
31
0
0
LINE
8
PANEL
10
72.2
20
13.2
30
0
11
73.3
21
13.2
31
0
0
LINE
8
PANEL
10
73.3
20
13.2
30
0
11
73.3
21
15.4
31
0
0
LINE
8
PANEL
10
73.3
20
15.4
30
0
11
72.2
21
15.4
31
0
0
LINE
8
PANEL
10
72.2
20
15.4
30
0
11
72.2
21
13.2
31
0
0
LINE
8
PANEL
10
73.5
20
13.2
30
0
11
74.6
21
13.2
31
0
0
LINE
8
PANEL
10
74.6
20
13.2
30
0
11
74.6
21
15.4
31
0
0
LINE
8
PANEL
10
74.6
20
15.4
30
0
11
73.5
21
15.4
31
0
0
LINE
8
PANEL
10
73.5
20
15.4
30
0
11
73.5
21
13.2
31
0
0
LINE
8
PANEL
10
74.8
20
13.2
30
0
11
75.9
21
13.2
31
0
0
LINE
8
PANEL
10
75.9
20
13.2
30
0
11
75.9
21
15.4
31
0
0
LINE
8
PANEL
10
75.9
20
15.4
30
0
11
74.8
21
15.4
31
0
0
LINE
8
PANEL
10
74.8
20
15.4
30
0
11
74.8
21
13.2
31
0
0
LINE
8
PANEL
10
76.1
20
13.2
30
0
11
77.2
21
13.2
31
0
0
LINE
8
PANEL
10
77.2
20
13.2
30
0
11
77.2
21
15.4
31
0
0
LINE
8
PANEL
10
77.2
20
15.4
30
0
11
76.1
21
15.4
31
0
0
LINE
8
PANEL
10
76.1
20
15.4
30
0
11
76.1
21
13.2
31
0
0
LINE
8
PANEL
10
2
20
16
30
0
11
3.1
21
16
31
0
0
LINE
8
PANEL
10
3.1
20
16
30
0
11
3.1
21
18.2
31
0
0
LINE
8
PANEL
10
3.1
20
18.2
30
0
11
2
21
18.2
31
0
0
LINE
8
PANEL
10
2
20
18.2
30
0
11
2
21
16
31
0
0
LINE
8
PANEL
10
3.3
20
16
30
0
11
4.4
21
16
31
0
0
LINE
8
PANEL
10
4.4
20
16
30
0
11
4.4
21
18.2
31
0
0
LINE
8
PANEL
10
4.4
20
18.2
30
0
11
3.3
21
18.2
31
0
0
LINE
8
PANEL
10
3.3
20
18.2
30
0
11
3.3
21
16
31
0
0
LINE
8
PANEL
10
4.6
20
16
30
0
11
5.7
21
16
31
0
0
LINE
8
PANEL
10
5.7
20
16
30
0
11
5.7
21
18.2
31
0
0
LINE
8
PANEL
10
5.7
20
18.2
30
0
11
4.6
21
18.2
31
0
0
LINE
8
PANEL
10
4.6
20
18.2
30
0
11
4.6
21
16
31
0
0
LINE
8
PANEL
10
5.9
20
16
30
0
11
7
21
16
31
0
0
LINE
8
PANEL
10
7
20
16
30
0
11
7
21
18.2
31
0
0
LINE
8
PANEL
10
7
20
18.2
30
0
11
5.9
21
18.2
31
0
0
LINE
8
PANEL
10
5.9
20
18.2
30
0
11
5.9
21
16
31
0
0
LINE
8
PANEL
10
7.2
20
16
30
0
11
8.3
21
16
31
0
0
LINE
8
PANEL
10
8.3
20
16
30
0
11
8.3
21
18.2
31
0
0
LINE
8
PANEL
10
8.3
20
18.2
30
0
11
7.2
21
18.2
31
0
0
LINE
8
PANEL
10
7.2
20
18.2
30
0
11
7.2
21
16
31
0
0
LINE
8
PANEL
10
8.5
20
16
30
0
11
9.6
21
16
31
0
0
LINE
8
PANEL
10
9.6
20
16
30
0
11
9.6
21
18.2
31
0
0
LINE
8
PANEL
10
9.6
20
18.2
30
0
11
8.5
21
18.2
31
0
0
LINE
8
PANEL
10
8.5
20
18.2
30
0
11
8.5
21
16
31
0
0
LINE
8
PANEL
10
9.8
20
16
30
0
11
10.9
21
16
31
0
0
LINE
8
PANEL
10
10.9
20
16
30
0
11
10.9
21
18.2
31
0
0
LINE
8
PANEL
10
10.9
20
18.2
30
0
11
9.8
21
18.2
31
0
0
LINE
8
PANEL
10
9.8
20
18.2
30
0
11
9.8
21
16
31
0
0
LINE
8
PANEL
10
11.1
20
16
30
0
11
12.2
21
16
31
0
0
LINE
8
PANEL
10
12.2
20
16
30
0
11
12.2
21
18.2
31
0
0
LINE
8
PANEL
10
12.2
20
18.2
30
0
11
11.1
21
18.2
31
0
0
LINE
8
PANEL
10
11.1
20
18.2
30
0
11
11.1
21
16
31
0
0
LINE
8
PANEL
10
12.4
20
16
30
0
11
13.5
21
16
31
0
0
LINE
8
PANEL
10
13.5
20
16
30
0
11
13.5
21
18.2
31
0
0
LINE
8
PANEL
10
13.5
20
18.2
30
0
11
12.4
21
18.2
31
0
0
LINE
8
PANEL
10
12.4
20
18.2
30
0
11
12.4
21
16
31
0
0
LINE
8
PANEL
10
13.7
20
16
30
0
11
14.8
21
16
31
0
0
LINE
8
PANEL
10
14.8
20
16
30
0
11
14.8
21
18.2
31
0
0
LINE
8
PANEL
10
14.8
20
18.2
30
0
11
13.7
21
18.2
31
0
0
LINE
8
PANEL
10
13.7
20
18.2
30
0
11
13.7
21
16
31
0
0
LINE
8
PANEL
10
15
20
16
30
0
11
16.1
21
16
31
0
0
LINE
8
PANEL
10
16.1
20
16
30
0
11
16.1
21
18.2
31
0
0
LINE
8
PANEL
10
16.1
20
18.2
30
0
11
15
21
18.2
31
0
0
LINE
8
PANEL
10
15
20
18.2
30
0
11
15
21
16
31
0
0
LINE
8
PANEL
10
16.3
20
16
30
0
11
17.4
21
16
31
0
0
LINE
8
PANEL
10
17.4
20
16
30
0
11
17.4
21
18.2
31
0
0
LINE
8
PANEL
10
17.4
20
18.2
30
0
11
16.3
21
18.2
31
0
0
LINE
8
PANEL
10
16.3
20
18.2
30
0
11
16.3
21
16
31
0
0
LINE
8
PANEL
10
17.6
20
16
30
0
11
18.7
21
16
31
0
0
LINE
8
PANEL
10
18.7
20
16
30
0
11
18.7
21
18.2
31
0
0
LINE
8
PANEL
10
18.7
20
18.2
30
0
11
17.6
21
18.2
31
0
0
LINE
8
PANEL
10
17.6
20
18.2
30
0
11
17.6
21
16
31
0
0
LINE
8
PANEL
10
25.4
20
16
30
0
11
26.5
21
16
31
0
0
LINE
8
PANEL
10
26.5
20
16
30
0
11
26.5
21
18.2
31
0
0
LINE
8
PANEL
10
26.5
20
18.2
30
0
11
25.4
21
18.2
31
0
0
LINE
8
PANEL
10
25.4
20
18.2
30
0
11
25.4
21
16
31
0
0
LINE
8
PANEL
10
26.7
20
16
30
0
11
27.8
21
16
31
0
0
LINE
8
PANEL
10
27.8
20
16
30
0
11
27.8
21
18.2
31
0
0
LINE
8
PANEL
10
27.8
20
18.2
30
0
11
26.7
21
18.2
31
0
0
LINE
8
PANEL
10
26.7
20
18.2
30
0
11
26.7
21
16
31
0
0
LINE
8
PANEL
10
28
20
16
30
0
11
29.1
21
16
31
0
0
LINE
8
PANEL
10
29.1
20
16
30
0
11
29.1
21
18.2
31
0
0
LINE
8
PANEL
10
29.1
20
18.2
30
0
11
28
21
18.2
31
0
0
LINE
8
PANEL
10
28
20
18.2
30
0
11
28
21
16
31
0
0
LINE
8
PANEL
10
29.3
20
16
30
0
11
30.4
21
16
31
0
0
LINE
8
PANEL
10
30.4
20
16
30
0
11
30.4
21
18.2
31
0
0
LINE
8
PANEL
10
30.4
20
18.2
30
0
11
29.3
21
18.2
31
0
0
LINE
8
PANEL
10
29.3
20
18.2
30
0
11
29.3
21
16
31
0
0
LINE
8
PANEL
10
30.6
20
16
30
0
11
31.7
21
16
31
0
0
LINE
8
PANEL
10
31.7
20
16
30
0
11
31.7
21
18.2
31
0
0
LINE
8
PANEL
10
31.7
20
18.2
30
0
11
30.6
21
18.2
31
0
0
LINE
8
PANEL
10
30.6
20
18.2
30
0
11
30.6
21
16
31
0
0
LINE
8
PANEL
10
31.9
20
16
30
0
11
33
21
16
31
0
0
LINE
8
PANEL
10
33
20
16
30
0
11
33
21
18.2
31
0
0
LINE
8
PANEL
10
33
20
18.2
30
0
11
31.9
21
18.2
31
0
0
LINE
8
PANEL
10
31.9
20
18.2
30
0
11
31.9
21
16
31
0
0
LINE
8
PANEL
10
33.2
20
16
30
0
11
34.3
21
16
31
0
0
LINE
8
PANEL
10
34.3
20
16
30
0
11
34.3
21
18.2
31
0
0
LINE
8
PANEL
10
34.3
20
18.2
30
0
11
33.2
21
18.2
31
0
0
LINE
8
PANEL
10
33.2
20
18.2
30
0
11
33.2
21
16
31
0
0
LINE
8
PANEL
10
34.5
20
16
30
0
11
35.6
21
16
31
0
0
LINE
8
PANEL
10
35.6
20
16
30
0
11
35.6
21
18.2
31
0
0
LINE
8
PANEL
10
35.6
20
18.2
30
0
11
34.5
21
18.2
31
0
0
LINE
8
PANEL
10
34.5
20
18.2
30
0
11
34.5
21
16
31
0
0
LINE
8
PANEL
10
35.8
20
16
30
0
11
36.9
21
16
31
0
0
LINE
8
PANEL
10
36.9
20
16
30
0
11
36.9
21
18.2
31
0
0
LINE
8
PANEL
10
36.9
20
18.2
30
0
11
35.8
21
18.2
31
0
0
LINE
8
PANEL
10
35.8
20
18.2
30
0
11
35.8
21
16
31
0
0
LINE
8
PANEL
10
37.1
20
16
30
0
11
38.2
21
16
31
0
0
LINE
8
PANEL
10
38.2
20
16
30
0
11
38.2
21
18.2
31
0
0
LINE
8
PANEL
10
38.2
20
18.2
30
0
11
37.1
21
18.2
31
0
0
LINE
8
PANEL
10
37.1
20
18.2
30
0
11
37.1
21
16
31
0
0
LINE
8
PANEL
10
38.4
20
16
30
0
11
39.5
21
16
31
0
0
LINE
8
PANEL
10
39.5
20
16
30
0
11
39.5
21
18.2
31
0
0
LINE
8
PANEL
10
39.5
20
18.2
30
0
11
38.4
21
18.2
31
0
0
LINE
8
PANEL
10
38.4
20
18.2
30
0
11
38.4
21
16
31
0
0
LINE
8
PANEL
10
39.7
20
16
30
0
11
40.8
21
16
31
0
0
LINE
8
PANEL
10
40.8
20
16
30
0
11
40.8
21
18.2
31
0
0
LINE
8
PANEL
10
40.8
20
18.2
30
0
11
39.7
21
18.2
31
0
0
LINE
8
PANEL
10
39.7
20
18.2
30
0
11
39.7
21
16
31
0
0
LINE
8
PANEL
10
41
20
16
30
0
11
42.1
21
16
31
0
0
LINE
8
PANEL
10
42.1
20
16
30
0
11
42.1
21
18.2
31
0
0
LINE
8
PANEL
10
42.1
20
18.2
30
0
11
41
21
18.2
31
0
0
LINE
8
PANEL
10
41
20
18.2
30
0
11
41
21
16
31
0
0
LINE
8
PANEL
10
42.3
20
16
30
0
11
43.4
21
16
31
0
0
LINE
8
PANEL
10
43.4
20
16
30
0
11
43.4
21
18.2
31
0
0
LINE
8
PANEL
10
43.4
20
18.2
30
0
11
42.3
21
18.2
31
0
0
LINE
8
PANEL
10
42.3
20
18.2
30
0
11
42.3
21
16
31
0
0
LINE
8
PANEL
10
43.6
20
16
30
0
11
44.7
21
16
31
0
0
LINE
8
PANEL
10
44.7
20
16
30
0
11
44.7
21
18.2
31
0
0
LINE
8
PANEL
10
44.7
20
18.2
30
0
11
43.6
21
18.2
31
0
0
LINE
8
PANEL
10
43.6
20
18.2
30
0
11
43.6
21
16
31
0
0
LINE
8
PANEL
10
44.9
20
16
30
0
11
46
21
16
31
0
0
LINE
8
PANEL
10
46
20
16
30
0
11
46
21
18.2
31
0
0
LINE
8
PANEL
10
46
20
18.2
30
0
11
44.9
21
18.2
31
0
0
LINE
8
PANEL
10
44.9
20
18.2
30
0
11
44.9
21
16
31
0
0
LINE
8
PANEL
10
46.2
20
16
30
0
11
47.3
21
16
31
0
0
LINE
8
PANEL
10
47.3
20
16
30
0
11
47.3
21
18.2
31
0
0
LINE
8
PANEL
10
47.3
20
18.2
30
0
11
46.2
21
18.2
31
0
0
LINE
8
PANEL
10
46.2
20
18.2
30
0
11
46.2
21
16
31
0
0
LINE
8
PANEL
10
47.5
20
16
30
0
11
48.6
21
16
31
0
0
LINE
8
PANEL
10
48.6
20
16
30
0
11
48.6
21
18.2
31
0
0
LINE
8
PANEL
10
48.6
20
18.2
30
0
11
47.5
21
18.2
31
0
0
LINE
8
PANEL
10
47.5
20
18.2
30
0
11
47.5
21
16
31
0
0
LINE
8
PANEL
10
48.8
20
16
30
0
11
49.9
21
16
31
0
0
LINE
8
PANEL
10
49.9
20
16
30
0
11
49.9
21
18.2
31
0
0
LINE
8
PANEL
10
49.9
20
18.2
30
0
11
48.8
21
18.2
31
0
0
LINE
8
PANEL
10
48.8
20
18.2
30
0
11
48.8
21
16
31
0
0
LINE
8
PANEL
10
50.1
20
16
30
0
11
51.2
21
16
31
0
0
LINE
8
PANEL
10
51.2
20
16
30
0
11
51.2
21
18.2
31
0
0
LINE
8
PANEL
10
51.2
20
18.2
30
0
11
50.1
21
18.2
31
0
0
LINE
8
PANEL
10
50.1
20
18.2
30
0
11
50.1
21
16
31
0
0
LINE
8
PANEL
10
51.4
20
16
30
0
11
52.5
21
16
31
0
0
LINE
8
PANEL
10
52.5
20
16
30
0
11
52.5
21
18.2
31
0
0
LINE
8
PANEL
10
52.5
20
18.2
30
0
11
51.4
21
18.2
31
0
0
LINE
8
PANEL
10
51.4
20
18.2
30
0
11
51.4
21
16
31
0
0
LINE
8
PANEL
10
52.7
20
16
30
0
11
53.8
21
16
31
0
0
LINE
8
PANEL
10
53.8
20
16
30
0
11
53.8
21
18.2
31
0
0
LINE
8
PANEL
10
53.8
20
18.2
30
0
11
52.7
21
18.2
31
0
0
LINE
8
PANEL
10
52.7
20
18.2
30
0
11
52.7
21
16
31
0
0
LINE
8
PANEL
10
63.1
20
16
30
0
11
64.2
21
16
31
0
0
LINE
8
PANEL
10
64.2
20
16
30
0
11
64.2
21
18.2
31
0
0
LINE
8
PANEL
10
64.2
20
18.2
30
0
11
63.1
21
18.2
31
0
0
LINE
8
PANEL
10
63.1
20
18.2
30
0
11
63.1
21
16
31
0
0
LINE
8
PANEL
10
64.4
20
16
30
0
11
65.5
21
16
31
0
0
LINE
8
PANEL
10
65.5
20
16
30
0
11
65.5
21
18.2
31
0
0
LINE
8
PANEL
10
65.5
20
18.2
30
0
11
64.4
21
18.2
31
0
0
LINE
8
PANEL
10
64.4
20
18.2
30
0
11
64.4
21
16
31
0
0
LINE
8
PANEL
10
65.7
20
16
30
0
11
66.8
21
16
31
0
0
LINE
8
PANEL
10
66.8
20
16
30
0
11
66.8
21
18.2
31
0
0
LINE
8
PANEL
10
66.8
20
18.2
30
0
11
65.7
21
18.2
31
0
0
LINE
8
PANEL
10
65.7
20
18.2
30
0
11
65.7
21
16
31
0
0
LINE
8
PANEL
10
67
20
16
30
0
11
68.1
21
16
31
0
0
LINE
8
PANEL
10
68.1
20
16
30
0
11
68.1
21
18.2
31
0
0
LINE
8
PANEL
10
68.1
20
18.2
30
0
11
67
21
18.2
31
0
0
LINE
8
PANEL
10
67
20
18.2
30
0
11
67
21
16
31
0
0
LINE
8
PANEL
10
68.3
20
16
30
0
11
69.4
21
16
31
0
0
LINE
8
PANEL
10
69.4
20
16
30
0
11
69.4
21
18.2
31
0
0
LINE
8
PANEL
10
69.4
20
18.2
30
0
11
68.3
21
18.2
31
0
0
LINE
8
PANEL
10
68.3
20
18.2
30
0
11
68.3
21
16
31
0
0
LINE
8
PANEL
10
69.6
20
16
30
0
11
70.7
21
16
31
0
0
LINE
8
PANEL
10
70.7
20
16
30
0
11
70.7
21
18.2
31
0
0
LINE
8
PANEL
10
70.7
20
18.2
30
0
11
69.6
21
18.2
31
0
0
LINE
8
PANEL
10
69.6
20
18.2
30
0
11
69.6
21
16
31
0
0
LINE
8
PANEL
10
70.9
20
16
30
0
11
72
21
16
31
0
0
LINE
8
PANEL
10
72
20
16
30
0
11
72
21
18.2
31
0
0
LINE
8
PANEL
10
72
20
18.2
30
0
11
70.9
21
18.2
31
0
0
LINE
8
PANEL
10
70.9
20
18.2
30
0
11
70.9
21
16
31
0
0
LINE
8
PANEL
10
72.2
20
16
30
0
11
73.3
21
16
31
0
0
LINE
8
PANEL
10
73.3
20
16
30
0
11
73.3
21
18.2
31
0
0
LINE
8
PANEL
10
73.3
20
18.2
30
0
11
72.2
21
18.2
31
0
0
LINE
8
PANEL
10
72.2
20
18.2
30
0
11
72.2
21
16
31
0
0
LINE
8
PANEL
10
73.5
20
16
30
0
11
74.6
21
16
31
0
0
LINE
8
PANEL
10
74.6
20
16
30
0
11
74.6
21
18.2
31
0
0
LINE
8
PANEL
10
74.6
20
18.2
30
0
11
73.5
21
18.2
31
0
0
LINE
8
PANEL
10
73.5
20
18.2
30
0
11
73.5
21
16
31
0
0
LINE
8
PANEL
10
74.8
20
16
30
0
11
75.9
21
16
31
0
0
LINE
8
PANEL
10
75.9
20
16
30
0
11
75.9
21
18.2
31
0
0
LINE
8
PANEL
10
75.9
20
18.2
30
0
11
74.8
21
18.2
31
0
0
LINE
8
PANEL
10
74.8
20
18.2
30
0
11
74.8
21
16
31
0
0
LINE
8
PANEL
10
76.1
20
16
30
0
11
77.2
21
16
31
0
0
LINE
8
PANEL
10
77.2
20
16
30
0
11
77.2
21
18.2
31
0
0
LINE
8
PANEL
10
77.2
20
18.2
30
0
11
76.1
21
18.2
31
0
0
LINE
8
PANEL
10
76.1
20
18.2
30
0
11
76.1
21
16
31
0
0
LINE
8
PANEL
10
2
20
18.8
30
0
11
3.1
21
18.8
31
0
0
LINE
8
PANEL
10
3.1
20
18.8
30
0
11
3.1
21
21
31
0
0
LINE
8
PANEL
10
3.1
20
21
30
0
11
2
21
21
31
0
0
LINE
8
PANEL
10
2
20
21
30
0
11
2
21
18.8
31
0
0
LINE
8
PANEL
10
3.3
20
18.8
30
0
11
4.4
21
18.8
31
0
0
LINE
8
PANEL
10
4.4
20
18.8
30
0
11
4.4
21
21
31
0
0
LINE
8
PANEL
10
4.4
20
21
30
0
11
3.3
21
21
31
0
0
LINE
8
PANEL
10
3.3
20
21
30
0
11
3.3
21
18.8
31
0
0
LINE
8
PANEL
10
4.6
20
18.8
30
0
11
5.7
21
18.8
31
0
0
LINE
8
PANEL
10
5.7
20
18.8
30
0
11
5.7
21
21
31
0
0
LINE
8
PANEL
10
5.7
20
21
30
0
11
4.6
21
21
31
0
0
LINE
8
PANEL
10
4.6
20
21
30
0
11
4.6
21
18.8
31
0
0
LINE
8
PANEL
10
5.9
20
18.8
30
0
11
7
21
18.8
31
0
0
LINE
8
PANEL
10
7
20
18.8
30
0
11
7
21
21
31
0
0
LINE
8
PANEL
10
7
20
21
30
0
11
5.9
21
21
31
0
0
LINE
8
PANEL
10
5.9
20
21
30
0
11
5.9
21
18.8
31
0
0
LINE
8
PANEL
10
7.2
20
18.8
30
0
11
8.3
21
18.8
31
0
0
LINE
8
PANEL
10
8.3
20
18.8
30
0
11
8.3
21
21
31
0
0
LINE
8
PANEL
10
8.3
20
21
30
0
11
7.2
21
21
31
0
0
LINE
8
PANEL
10
7.2
20
21
30
0
11
7.2
21
18.8
31
0
0
LINE
8
PANEL
10
8.5
20
18.8
30
0
11
9.6
21
18.8
31
0
0
LINE
8
PANEL
10
9.6
20
18.8
30
0
11
9.6
21
21
31
0
0
LINE
8
PANEL
10
9.6
20
21
30
0
11
8.5
21
21
31
0
0
LINE
8
PANEL
10
8.5
20
21
30
0
11
8.5
21
18.8
31
0
0
LINE
8
PANEL
10
9.8
20
18.8
30
0
11
10.9
21
18.8
31
0
0
LINE
8
PANEL
10
10.9
20
18.8
30
0
11
10.9
21
21
31
0
0
LINE
8
PANEL
10
10.9
20
21
30
0
11
9.8
21
21
31
0
0
LINE
8
PANEL
10
9.8
20
21
30
0
11
9.8
21
18.8
31
0
0
LINE
8
PANEL
10
11.1
20
18.8
30
0
11
12.2
21
18.8
31
0
0
LINE
8
PANEL
10
12.2
20
18.8
30
0
11
12.2
21
21
31
0
0
LINE
8
PANEL
10
12.2
20
21
30
0
11
11.1
21
21
31
0
0
LINE
8
PANEL
10
11.1
20
21
30
0
11
11.1
21
18.8
31
0
0
LINE
8
PANEL
10
12.4
20
18.8
30
0
11
13.5
21
18.8
31
0
0
LINE
8
PANEL
10
13.5
20
18.8
30
0
11
13.5
21
21
31
0
0
LINE
8
PANEL
10
13.5
20
21
30
0
11
12.4
21
21
31
0
0
LINE
8
PANEL
10
12.4
20
21
30
0
11
12.4
21
18.8
31
0
0
LINE
8
PANEL
10
13.7
20
18.8
30
0
11
14.8
21
18.8
31
0
0
LINE
8
PANEL
10
14.8
20
18.8
30
0
11
14.8
21
21
31
0
0
LINE
8
PANEL
10
14.8
20
21
30
0
11
13.7
21
21
31
0
0
LINE
8
PANEL
10
13.7
20
21
30
0
11
13.7
21
18.8
31
0
0
LINE
8
PANEL
10
15
20
18.8
30
0
11
16.1
21
18.8
31
0
0
LINE
8
PANEL
10
16.1
20
18.8
30
0
11
16.1
21
21
31
0
0
LINE
8
PANEL
10
16.1
20
21
30
0
11
15
21
21
31
0
0
LINE
8
PANEL
10
15
20
21
30
0
11
15
21
18.8
31
0
0
LINE
8
PANEL
10
16.3
20
18.8
30
0
11
17.4
21
18.8
31
0
0
LINE
8
PANEL
10
17.4
20
18.8
30
0
11
17.4
21
21
31
0
0
LINE
8
PANEL
10
17.4
20
21
30
0
11
16.3
21
21
31
0
0
LINE
8
PANEL
10
16.3
20
21
30
0
11
16.3
21
18.8
31
0
0
LINE
8
PANEL
10
17.6
20
18.8
30
0
11
18.7
21
18.8
31
0
0
LINE
8
PANEL
10
18.7
20
18.8
30
0
11
18.7
21
21
31
0
0
LINE
8
PANEL
10
18.7
20
21
30
0
11
17.6
21
21
31
0
0
LINE
8
PANEL
10
17.6
20
21
30
0
11
17.6
21
18.8
31
0
0
LINE
8
PANEL
10
25.4
20
18.8
30
0
11
26.5
21
18.8
31
0
0
LINE
8
PANEL
10
26.5
20
18.8
30
0
11
26.5
21
21
31
0
0
LINE
8
PANEL
10
26.5
20
21
30
0
11
25.4
21
21
31
0
0
LINE
8
PANEL
10
25.4
20
21
30
0
11
25.4
21
18.8
31
0
0
LINE
8
PANEL
10
26.7
20
18.8
30
0
11
27.8
21
18.8
31
0
0
LINE
8
PANEL
10
27.8
20
18.8
30
0
11
27.8
21
21
31
0
0
LINE
8
PANEL
10
27.8
20
21
30
0
11
26.7
21
21
31
0
0
LINE
8
PANEL
10
26.7
20
21
30
0
11
26.7
21
18.8
31
0
0
LINE
8
PANEL
10
28
20
18.8
30
0
11
29.1
21
18.8
31
0
0
LINE
8
PANEL
10
29.1
20
18.8
30
0
11
29.1
21
21
31
0
0
LINE
8
PANEL
10
29.1
20
21
30
0
11
28
21
21
31
0
0
LINE
8
PANEL
10
28
20
21
30
0
11
28
21
18.8
31
0
0
LINE
8
PANEL
10
29.3
20
18.8
30
0
11
30.4
21
18.8
31
0
0
LINE
8
PANEL
10
30.4
20
18.8
30
0
11
30.4
21
21
31
0
0
LINE
8
PANEL
10
30.4
20
21
30
0
11
29.3
21
21
31
0
0
LINE
8
PANEL
10
29.3
20
21
30
0
11
29.3
21
18.8
31
0
0
LINE
8
PANEL
10
30.6
20
18.8
30
0
11
31.7
21
18.8
31
0
0
LINE
8
PANEL
10
31.7
20
18.8
30
0
11
31.7
21
21
31
0
0
LINE
8
PANEL
10
31.7
20
21
30
0
11
30.6
21
21
31
0
0
LINE
8
PANEL
10
30.6
20
21
30
0
11
30.6
21
18.8
31
0
0
LINE
8
PANEL
10
31.9
20
18.8
30
0
11
33
21
18.8
31
0
0
LINE
8
PANEL
10
33
20
18.8
30
0
11
33
21
21
31
0
0
LINE
8
PANEL
10
33
20
21
30
0
11
31.9
21
21
31
0
0
LINE
8
PANEL
10
31.9
20
21
30
0
11
31.9
21
18.8
31
0
0
LINE
8
PANEL
10
33.2
20
18.8
30
0
11
34.3
21
18.8
31
0
0
LINE
8
PANEL
10
34.3
20
18.8
30
0
11
34.3
21
21
31
0
0
LINE
8
PANEL
10
34.3
20
21
30
0
11
33.2
21
21
31
0
0
LINE
8
PANEL
10
33.2
20
21
30
0
11
33.2
21
18.8
31
0
0
LINE
8
PANEL
10
34.5
20
18.8
30
0
11
35.6
21
18.8
31
0
0
LINE
8
PANEL
10
35.6
20
18.8
30
0
11
35.6
21
21
31
0
0
LINE
8
PANEL
10
35.6
20
21
30
0
11
34.5
21
21
31
0
0
LINE
8
PANEL
10
34.5
20
21
30
0
11
34.5
21
18.8
31
0
0
LINE
8
PANEL
10
35.8
20
18.8
30
0
11
36.9
21
18.8
31
0
0
LINE
8
PANEL
10
36.9
20
18.8
30
0
11
36.9
21
21
31
0
0
LINE
8
PANEL
10
36.9
20
21
30
0
11
35.8
21
21
31
0
0
LINE
8
PANEL
10
35.8
20
21
30
0
11
35.8
21
18.8
31
0
0
LINE
8
PANEL
10
37.1
20
18.8
30
0
11
38.2
21
18.8
31
0
0
LINE
8
PANEL
10
38.2
20
18.8
30
0
11
38.2
21
21
31
0
0
LINE
8
PANEL
10
38.2
20
21
30
0
11
37.1
21
21
31
0
0
LINE
8
PANEL
10
37.1
20
21
30
0
11
37.1
21
18.8
31
0
0
LINE
8
PANEL
10
38.4
20
18.8
30
0
11
39.5
21
18.8
31
0
0
LINE
8
PANEL
10
39.5
20
18.8
30
0
11
39.5
21
21
31
0
0
LINE
8
PANEL
10
39.5
20
21
30
0
11
38.4
21
21
31
0
0
LINE
8
PANEL
10
38.4
20
21
30
0
11
38.4
21
18.8
31
0
0
LINE
8
PANEL
10
39.7
20
18.8
30
0
11
40.8
21
18.8
31
0
0
LINE
8
PANEL
10
40.8
20
18.8
30
0
11
40.8
21
21
31
0
0
LINE
8
PANEL
10
40.8
20
21
30
0
11
39.7
21
21
31
0
0
LINE
8
PANEL
10
39.7
20
21
30
0
11
39.7
21
18.8
31
0
0
LINE
8
PANEL
10
41
20
18.8
30
0
11
42.1
21
18.8
31
0
0
LINE
8
PANEL
10
42.1
20
18.8
30
0
11
42.1
21
21
31
0
0
LINE
8
PANEL
10
42.1
20
21
30
0
11
41
21
21
31
0
0
LINE
8
PANEL
10
41
20
21
30
0
11
41
21
18.8
31
0
0
LINE
8
PANEL
10
42.3
20
18.8
30
0
11
43.4
21
18.8
31
0
0
LINE
8
PANEL
10
43.4
20
18.8
30
0
11
43.4
21
21
31
0
0
LINE
8
PANEL
10
43.4
20
21
30
0
11
42.3
21
21
31
0
0
LINE
8
PANEL
10
42.3
20
21
30
0
11
42.3
21
18.8
31
0
0
LINE
8
PANEL
10
43.6
20
18.8
30
0
11
44.7
21
18.8
31
0
0
LINE
8
PANEL
10
44.7
20
18.8
30
0
11
44.7
21
21
31
0
0
LINE
8
PANEL
10
44.7
20
21
30
0
11
43.6
21
21
31
0
0
LINE
8
PANEL
10
43.6
20
21
30
0
11
43.6
21
18.8
31
0
0
LINE
8
PANEL
10
44.9
20
18.8
30
0
11
46
21
18.8
31
0
0
LINE
8
PANEL
10
46
20
18.8
30
0
11
46
21
21
31
0
0
LINE
8
PANEL
10
46
20
21
30
0
11
44.9
21
21
31
0
0
LINE
8
PANEL
10
44.9
20
21
30
0
11
44.9
21
18.8
31
0
0
LINE
8
PANEL
10
46.2
20
18.8
30
0
11
47.3
21
18.8
31
0
0
LINE
8
PANEL
10
47.3
20
18.8
30
0
11
47.3
21
21
31
0
0
LINE
8
PANEL
10
47.3
20
21
30
0
11
46.2
21
21
31
0
0
LINE
8
PANEL
10
46.2
20
21
30
0
11
46.2
21
18.8
31
0
0
LINE
8
PANEL
10
47.5
20
18.8
30
0
11
48.6
21
18.8
31
0
0
LINE
8
PANEL
10
48.6
20
18.8
30
0
11
48.6
21
21
31
0
0
LINE
8
PANEL
10
48.6
20
21
30
0
11
47.5
21
21
31
0
0
LINE
8
PANEL
10
47.5
20
21
30
0
11
47.5
21
18.8
31
0
0
LINE
8
PANEL
10
48.8
20
18.8
30
0
11
49.9
21
18.8
31
0
0
LINE
8
PANEL
10
49.9
20
18.8
30
0
11
49.9
21
21
31
0
0
LINE
8
PANEL
10
49.9
20
21
30
0
11
48.8
21
21
31
0
0
LINE
8
PANEL
10
48.8
20
21
30
0
11
48.8
21
18.8
31
0
0
LINE
8
PANEL
10
50.1
20
18.8
30
0
11
51.2
21
18.8
31
0
0
LINE
8
PANEL
10
51.2
20
18.8
30
0
11
51.2
21
21
31
0
0
LINE
8
PANEL
10
51.2
20
21
30
0
11
50.1
21
21
31
0
0
LINE
8
PANEL
10
50.1
20
21
30
0
11
50.1
21
18.8
31
0
0
LINE
8
PANEL
10
51.4
20
18.8
30
0
11
52.5
21
18.8
31
0
0
LINE
8
PANEL
10
52.5
20
18.8
30
0
11
52.5
21
21
31
0
0
LINE
8
PANEL
10
52.5
20
21
30
0
11
51.4
21
21
31
0
0
LINE
8
PANEL
10
51.4
20
21
30
0
11
51.4
21
18.8
31
0
0
LINE
8
PANEL
10
52.7
20
18.8
30
0
11
53.8
21
18.8
31
0
0
LINE
8
PANEL
10
53.8
20
18.8
30
0
11
53.8
21
21
31
0
0
LINE
8
PANEL
10
53.8
20
21
30
0
11
52.7
21
21
31
0
0
LINE
8
PANEL
10
52.7
20
21
30
0
11
52.7
21
18.8
31
0
0
LINE
8
PANEL
10
63.1
20
18.8
30
0
11
64.2
21
18.8
31
0
0
LINE
8
PANEL
10
64.2
20
18.8
30
0
11
64.2
21
21
31
0
0
LINE
8
PANEL
10
64.2
20
21
30
0
11
63.1
21
21
31
0
0
LINE
8
PANEL
10
63.1
20
21
30
0
11
63.1
21
18.8
31
0
0
LINE
8
PANEL
10
64.4
20
18.8
30
0
11
65.5
21
18.8
31
0
0
LINE
8
PANEL
10
65.5
20
18.8
30
0
11
65.5
21
21
31
0
0
LINE
8
PANEL
10
65.5
20
21
30
0
11
64.4
21
21
31
0
0
LINE
8
PANEL
10
64.4
20
21
30
0
11
64.4
21
18.8
31
0
0
LINE
8
PANEL
10
65.7
20
18.8
30
0
11
66.8
21
18.8
31
0
0
LINE
8
PANEL
10
66.8
20
18.8
30
0
11
66.8
21
21
31
0
0
LINE
8
PANEL
10
66.8
20
21
30
0
11
65.7
21
21
31
0
0
LINE
8
PANEL
10
65.7
20
21
30
0
11
65.7
21
18.8
31
0
0
LINE
8
PANEL
10
67
20
18.8
30
0
11
68.1
21
18.8
31
0
0
LINE
8
PANEL
10
68.1
20
18.8
30
0
11
68.1
21
21
31
0
0
LINE
8
PANEL
10
68.1
20
21
30
0
11
67
21
21
31
0
0
LINE
8
PANEL
10
67
20
21
30
0
11
67
21
18.8
31
0
0
LINE
8
PANEL
10
68.3
20
18.8
30
0
11
69.4
21
18.8
31
0
0
LINE
8
PANEL
10
69.4
20
18.8
30
0
11
69.4
21
21
31
0
0
LINE
8
PANEL
10
69.4
20
21
30
0
11
68.3
21
21
31
0
0
LINE
8
PANEL
10
68.3
20
21
30
0
11
68.3
21
18.8
31
0
0
LINE
8
PANEL
10
69.6
20
18.8
30
0
11
70.7
21
18.8
31
0
0
LINE
8
PANEL
10
70.7
20
18.8
30
0
11
70.7
21
21
31
0
0
LINE
8
PANEL
10
70.7
20
21
30
0
11
69.6
21
21
31
0
0
LINE
8
PANEL
10
69.6
20
21
30
0
11
69.6
21
18.8
31
0
0
LINE
8
PANEL
10
70.9
20
18.8
30
0
11
72
21
18.8
31
0
0
LINE
8
PANEL
10
72
20
18.8
30
0
11
72
21
21
31
0
0
LINE
8
PANEL
10
72
20
21
30
0
11
70.9
21
21
31
0
0
LINE
8
PANEL
10
70.9
20
21
30
0
11
70.9
21
18.8
31
0
0
LINE
8
PANEL
10
72.2
20
18.8
30
0
11
73.3
21
18.8
31
0
0
LINE
8
PANEL
10
73.3
20
18.8
30
0
11
73.3
21
21
31
0
0
LINE
8
PANEL
10
73.3
20
21
30
0
11
72.2
21
21
31
0
0
LINE
8
PANEL
10
72.2
20
21
30
0
11
72.2
21
18.8
31
0
0
LINE
8
PANEL
10
73.5
20
18.8
30
0
11
74.6
21
18.8
31
0
0
LINE
8
PANEL
10
74.6
20
18.8
30
0
11
74.6
21
21
31
0
0
LINE
8
PANEL
10
74.6
20
21
30
0
11
73.5
21
21
31
0
0
LINE
8
PANEL
10
73.5
20
21
30
0
11
73.5
21
18.8
31
0
0
LINE
8
PANEL
10
74.8
20
18.8
30
0
11
75.9
21
18.8
31
0
0
LINE
8
PANEL
10
75.9
20
18.8
30
0
11
75.9
21
21
31
0
0
LINE
8
PANEL
10
75.9
20
21
30
0
11
74.8
21
21
31
0
0
LINE
8
PANEL
10
74.8
20
21
30
0
11
74.8
21
18.8
31
0
0
LINE
8
PANEL
10
76.1
20
18.8
30
0
11
77.2
21
18.8
31
0
0
LINE
8
PANEL
10
77.2
20
18.8
30
0
11
77.2
21
21
31
0
0
LINE
8
PANEL
10
77.2
20
21
30
0
11
76.1
21
21
31
0
0
LINE
8
PANEL
10
76.1
20
21
30
0
11
76.1
21
18.8
31
0
0
LINE
8
PANEL
10
2
20
21.6
30
0
11
3.1
21
21.6
31
0
0
LINE
8
PANEL
10
3.1
20
21.6
30
0
11
3.1
21
23.8
31
0
0
LINE
8
PANEL
10
3.1
20
23.8
30
0
11
2
21
23.8
31
0
0
LINE
8
PANEL
10
2
20
23.8
30
0
11
2
21
21.6
31
0
0
LINE
8
PANEL
10
3.3
20
21.6
30
0
11
4.4
21
21.6
31
0
0
LINE
8
PANEL
10
4.4
20
21.6
30
0
11
4.4
21
23.8
31
0
0
LINE
8
PANEL
10
4.4
20
23.8
30
0
11
3.3
21
23.8
31
0
0
LINE
8
PANEL
10
3.3
20
23.8
30
0
11
3.3
21
21.6
31
0
0
LINE
8
PANEL
10
4.6
20
21.6
30
0
11
5.7
21
21.6
31
0
0
LINE
8
PANEL
10
5.7
20
21.6
30
0
11
5.7
21
23.8
31
0
0
LINE
8
PANEL
10
5.7
20
23.8
30
0
11
4.6
21
23.8
31
0
0
LINE
8
PANEL
10
4.6
20
23.8
30
0
11
4.6
21
21.6
31
0
0
LINE
8
PANEL
10
5.9
20
21.6
30
0
11
7
21
21.6
31
0
0
LINE
8
PANEL
10
7
20
21.6
30
0
11
7
21
23.8
31
0
0
LINE
8
PANEL
10
7
20
23.8
30
0
11
5.9
21
23.8
31
0
0
LINE
8
PANEL
10
5.9
20
23.8
30
0
11
5.9
21
21.6
31
0
0
LINE
8
PANEL
10
7.2
20
21.6
30
0
11
8.3
21
21.6
31
0
0
LINE
8
PANEL
10
8.3
20
21.6
30
0
11
8.3
21
23.8
31
0
0
LINE
8
PANEL
10
8.3
20
23.8
30
0
11
7.2
21
23.8
31
0
0
LINE
8
PANEL
10
7.2
20
23.8
30
0
11
7.2
21
21.6
31
0
0
LINE
8
PANEL
10
8.5
20
21.6
30
0
11
9.6
21
21.6
31
0
0
LINE
8
PANEL
10
9.6
20
21.6
30
0
11
9.6
21
23.8
31
0
0
LINE
8
PANEL
10
9.6
20
23.8
30
0
11
8.5
21
23.8
31
0
0
LINE
8
PANEL
10
8.5
20
23.8
30
0
11
8.5
21
21.6
31
0
0
LINE
8
PANEL
10
9.8
20
21.6
30
0
11
10.9
21
21.6
31
0
0
LINE
8
PANEL
10
10.9
20
21.6
30
0
11
10.9
21
23.8
31
0
0
LINE
8
PANEL
10
10.9
20
23.8
30
0
11
9.8
21
23.8
31
0
0
LINE
8
PANEL
10
9.8
20
23.8
30
0
11
9.8
21
21.6
31
0
0
LINE
8
PANEL
10
11.1
20
21.6
30
0
11
12.2
21
21.6
31
0
0
LINE
8
PANEL
10
12.2
20
21.6
30
0
11
12.2
21
23.8
31
0
0
LINE
8
PANEL
10
12.2
20
23.8
30
0
11
11.1
21
23.8
31
0
0
LINE
8
PANEL
10
11.1
20
23.8
30
0
11
11.1
21
21.6
31
0
0
LINE
8
PANEL
10
12.4
20
21.6
30
0
11
13.5
21
21.6
31
0
0
LINE
8
PANEL
10
13.5
20
21.6
30
0
11
13.5
21
23.8
31
0
0
LINE
8
PANEL
10
13.5
20
23.8
30
0
11
12.4
21
23.8
31
0
0
LINE
8
PANEL
10
12.4
20
23.8
30
0
11
12.4
21
21.6
31
0
0
LINE
8
PANEL
10
13.7
20
21.6
30
0
11
14.8
21
21.6
31
0
0
LINE
8
PANEL
10
14.8
20
21.6
30
0
11
14.8
21
23.8
31
0
0
LINE
8
PANEL
10
14.8
20
23.8
30
0
11
13.7
21
23.8
31
0
0
LINE
8
PANEL
10
13.7
20
23.8
30
0
11
13.7
21
21.6
31
0
0
LINE
8
PANEL
10
15
20
21.6
30
0
11
16.1
21
21.6
31
0
0
LINE
8
PANEL
10
16.1
20
21.6
30
0
11
16.1
21
23.8
31
0
0
LINE
8
PANEL
10
16.1
20
23.8
30
0
11
15
21
23.8
31
0
0
LINE
8
PANEL
10
15
20
23.8
30
0
11
15
21
21.6
31
0
0
LINE
8
PANEL
10
16.3
20
21.6
30
0
11
17.4
21
21.6
31
0
0
LINE
8
PANEL
10
17.4
20
21.6
30
0
11
17.4
21
23.8
31
0
0
LINE
8
PANEL
10
17.4
20
23.8
30
0
11
16.3
21
23.8
31
0
0
LINE
8
PANEL
10
16.3
20
23.8
30
0
11
16.3
21
21.6
31
0
0
LINE
8
PANEL
10
17.6
20
21.6
30
0
11
18.7
21
21.6
31
0
0
LINE
8
PANEL
10
18.7
20
21.6
30
0
11
18.7
21
23.8
31
0
0
LINE
8
PANEL
10
18.7
20
23.8
30
0
11
17.6
21
23.8
31
0
0
LINE
8
PANEL
10
17.6
20
23.8
30
0
11
17.6
21
21.6
31
0
0
LINE
8
PANEL
10
18.9
20
21.6
30
0
11
20
21
21.6
31
0
0
LINE
8
PANEL
10
20
20
21.6
30
0
11
20
21
23.8
31
0
0
LINE
8
PANEL
10
20
20
23.8
30
0
11
18.9
21
23.8
31
0
0
LINE
8
PANEL
10
18.9
20
23.8
30
0
11
18.9
21
21.6
31
0
0
LINE
8
PANEL
10
20.2
20
21.6
30
0
11
21.3
21
21.6
31
0
0
LINE
8
PANEL
10
21.3
20
21.6
30
0
11
21.3
21
23.8
31
0
0
LINE
8
PANEL
10
21.3
20
23.8
30
0
11
20.2
21
23.8
31
0
0
LINE
8
PANEL
10
20.2
20
23.8
30
0
11
20.2
21
21.6
31
0
0
LINE
8
PANEL
10
21.5
20
21.6
30
0
11
22.6
21
21.6
31
0
0
LINE
8
PANEL
10
22.6
20
21.6
30
0
11
22.6
21
23.8
31
0
0
LINE
8
PANEL
10
22.6
20
23.8
30
0
11
21.5
21
23.8
31
0
0
LINE
8
PANEL
10
21.5
20
23.8
30
0
11
21.5
21
21.6
31
0
0
LINE
8
PANEL
10
22.8
20
21.6
30
0
11
23.9
21
21.6
31
0
0
LINE
8
PANEL
10
23.9
20
21.6
30
0
11
23.9
21
23.8
31
0
0
LINE
8
PANEL
10
23.9
20
23.8
30
0
11
22.8
21
23.8
31
0
0
LINE
8
PANEL
10
22.8
20
23.8
30
0
11
22.8
21
21.6
31
0
0
LINE
8
PANEL
10
24.1
20
21.6
30
0
11
25.2
21
21.6
31
0
0
LINE
8
PANEL
10
25.2
20
21.6
30
0
11
25.2
21
23.8
31
0
0
LINE
8
PANEL
10
25.2
20
23.8
30
0
11
24.1
21
23.8
31
0
0
LINE
8
PANEL
10
24.1
20
23.8
30
0
11
24.1
21
21.6
31
0
0
LINE
8
PANEL
10
25.4
20
21.6
30
0
11
26.5
21
21.6
31
0
0
LINE
8
PANEL
10
26.5
20
21.6
30
0
11
26.5
21
23.8
31
0
0
LINE
8
PANEL
10
26.5
20
23.8
30
0
11
25.4
21
23.8
31
0
0
LINE
8
PANEL
10
25.4
20
23.8
30
0
11
25.4
21
21.6
31
0
0
LINE
8
PANEL
10
26.7
20
21.6
30
0
11
27.8
21
21.6
31
0
0
LINE
8
PANEL
10
27.8
20
21.6
30
0
11
27.8
21
23.8
31
0
0
LINE
8
PANEL
10
27.8
20
23.8
30
0
11
26.7
21
23.8
31
0
0
LINE
8
PANEL
10
26.7
20
23.8
30
0
11
26.7
21
21.6
31
0
0
LINE
8
PANEL
10
28
20
21.6
30
0
11
29.1
21
21.6
31
0
0
LINE
8
PANEL
10
29.1
20
21.6
30
0
11
29.1
21
23.8
31
0
0
LINE
8
PANEL
10
29.1
20
23.8
30
0
11
28
21
23.8
31
0
0
LINE
8
PANEL
10
28
20
23.8
30
0
11
28
21
21.6
31
0
0
LINE
8
PANEL
10
29.3
20
21.6
30
0
11
30.4
21
21.6
31
0
0
LINE
8
PANEL
10
30.4
20
21.6
30
0
11
30.4
21
23.8
31
0
0
LINE
8
PANEL
10
30.4
20
23.8
30
0
11
29.3
21
23.8
31
0
0
LINE
8
PANEL
10
29.3
20
23.8
30
0
11
29.3
21
21.6
31
0
0
LINE
8
PANEL
10
30.6
20
21.6
30
0
11
31.7
21
21.6
31
0
0
LINE
8
PANEL
10
31.7
20
21.6
30
0
11
31.7
21
23.8
31
0
0
LINE
8
PANEL
10
31.7
20
23.8
30
0
11
30.6
21
23.8
31
0
0
LINE
8
PANEL
10
30.6
20
23.8
30
0
11
30.6
21
21.6
31
0
0
LINE
8
PANEL
10
31.9
20
21.6
30
0
11
33
21
21.6
31
0
0
LINE
8
PANEL
10
33
20
21.6
30
0
11
33
21
23.8
31
0
0
LINE
8
PANEL
10
33
20
23.8
30
0
11
31.9
21
23.8
31
0
0
LINE
8
PANEL
10
31.9
20
23.8
30
0
11
31.9
21
21.6
31
0
0
LINE
8
PANEL
10
33.2
20
21.6
30
0
11
34.3
21
21.6
31
0
0
LINE
8
PANEL
10
34.3
20
21.6
30
0
11
34.3
21
23.8
31
0
0
LINE
8
PANEL
10
34.3
20
23.8
30
0
11
33.2
21
23.8
31
0
0
LINE
8
PANEL
10
33.2
20
23.8
30
0
11
33.2
21
21.6
31
0
0
LINE
8
PANEL
10
34.5
20
21.6
30
0
11
35.6
21
21.6
31
0
0
LINE
8
PANEL
10
35.6
20
21.6
30
0
11
35.6
21
23.8
31
0
0
LINE
8
PANEL
10
35.6
20
23.8
30
0
11
34.5
21
23.8
31
0
0
LINE
8
PANEL
10
34.5
20
23.8
30
0
11
34.5
21
21.6
31
0
0
LINE
8
PANEL
10
35.8
20
21.6
30
0
11
36.9
21
21.6
31
0
0
LINE
8
PANEL
10
36.9
20
21.6
30
0
11
36.9
21
23.8
31
0
0
LINE
8
PANEL
10
36.9
20
23.8
30
0
11
35.8
21
23.8
31
0
0
LINE
8
PANEL
10
35.8
20
23.8
30
0
11
35.8
21
21.6
31
0
0
LINE
8
PANEL
10
37.1
20
21.6
30
0
11
38.2
21
21.6
31
0
0
LINE
8
PANEL
10
38.2
20
21.6
30
0
11
38.2
21
23.8
31
0
0
LINE
8
PANEL
10
38.2
20
23.8
30
0
11
37.1
21
23.8
31
0
0
LINE
8
PANEL
10
37.1
20
23.8
30
0
11
37.1
21
21.6
31
0
0
LINE
8
PANEL
10
38.4
20
21.6
30
0
11
39.5
21
21.6
31
0
0
LINE
8
PANEL
10
39.5
20
21.6
30
0
11
39.5
21
23.8
31
0
0
LINE
8
PANEL
10
39.5
20
23.8
30
0
11
38.4
21
23.8
31
0
0
LINE
8
PANEL
10
38.4
20
23.8
30
0
11
38.4
21
21.6
31
0
0
LINE
8
PANEL
10
39.7
20
21.6
30
0
11
40.8
21
21.6
31
0
0
LINE
8
PANEL
10
40.8
20
21.6
30
0
11
40.8
21
23.8
31
0
0
LINE
8
PANEL
10
40.8
20
23.8
30
0
11
39.7
21
23.8
31
0
0
LINE
8
PANEL
10
39.7
20
23.8
30
0
11
39.7
21
21.6
31
0
0
LINE
8
PANEL
10
41
20
21.6
30
0
11
42.1
21
21.6
31
0
0
LINE
8
PANEL
10
42.1
20
21.6
30
0
11
42.1
21
23.8
31
0
0
LINE
8
PANEL
10
42.1
20
23.8
30
0
11
41
21
23.8
31
0
0
LINE
8
PANEL
10
41
20
23.8
30
0
11
41
21
21.6
31
0
0
LINE
8
PANEL
10
42.3
20
21.6
30
0
11
43.4
21
21.6
31
0
0
LINE
8
PANEL
10
43.4
20
21.6
30
0
11
43.4
21
23.8
31
0
0
LINE
8
PANEL
10
43.4
20
23.8
30
0
11
42.3
21
23.8
31
0
0
LINE
8
PANEL
10
42.3
20
23.8
30
0
11
42.3
21
21.6
31
0
0
LINE
8
PANEL
10
43.6
20
21.6
30
0
11
44.7
21
21.6
31
0
0
LINE
8
PANEL
10
44.7
20
21.6
30
0
11
44.7
21
23.8
31
0
0
LINE
8
PANEL
10
44.7
20
23.8
30
0
11
43.6
21
23.8
31
0
0
LINE
8
PANEL
10
43.6
20
23.8
30
0
11
43.6
21
21.6
31
0
0
LINE
8
PANEL
10
44.9
20
21.6
30
0
11
46
21
21.6
31
0
0
LINE
8
PANEL
10
46
20
21.6
30
0
11
46
21
23.8
31
0
0
LINE
8
PANEL
10
46
20
23.8
30
0
11
44.9
21
23.8
31
0
0
LINE
8
PANEL
10
44.9
20
23.8
30
0
11
44.9
21
21.6
31
0
0
LINE
8
PANEL
10
46.2
20
21.6
30
0
11
47.3
21
21.6
31
0
0
LINE
8
PANEL
10
47.3
20
21.6
30
0
11
47.3
21
23.8
31
0
0
LINE
8
PANEL
10
47.3
20
23.8
30
0
11
46.2
21
23.8
31
0
0
LINE
8
PANEL
10
46.2
20
23.8
30
0
11
46.2
21
21.6
31
0
0
LINE
8
PANEL
10
47.5
20
21.6
30
0
11
48.6
21
21.6
31
0
0
LINE
8
PANEL
10
48.6
20
21.6
30
0
11
48.6
21
23.8
31
0
0
LINE
8
PANEL
10
48.6
20
23.8
30
0
11
47.5
21
23.8
31
0
0
LINE
8
PANEL
10
47.5
20
23.8
30
0
11
47.5
21
21.6
31
0
0
LINE
8
PANEL
10
48.8
20
21.6
30
0
11
49.9
21
21.6
31
0
0
LINE
8
PANEL
10
49.9
20
21.6
30
0
11
49.9
21
23.8
31
0
0
LINE
8
PANEL
10
49.9
20
23.8
30
0
11
48.8
21
23.8
31
0
0
LINE
8
PANEL
10
48.8
20
23.8
30
0
11
48.8
21
21.6
31
0
0
LINE
8
PANEL
10
50.1
20
21.6
30
0
11
51.2
21
21.6
31
0
0
LINE
8
PANEL
10
51.2
20
21.6
30
0
11
51.2
21
23.8
31
0
0
LINE
8
PANEL
10
51.2
20
23.8
30
0
11
50.1
21
23.8
31
0
0
LINE
8
PANEL
10
50.1
20
23.8
30
0
11
50.1
21
21.6
31
0
0
LINE
8
PANEL
10
51.4
20
21.6
30
0
11
52.5
21
21.6
31
0
0
LINE
8
PANEL
10
52.5
20
21.6
30
0
11
52.5
21
23.8
31
0
0
LINE
8
PANEL
10
52.5
20
23.8
30
0
11
51.4
21
23.8
31
0
0
LINE
8
PANEL
10
51.4
20
23.8
30
0
11
51.4
21
21.6
31
0
0
LINE
8
PANEL
10
52.7
20
21.6
30
0
11
53.8
21
21.6
31
0
0
LINE
8
PANEL
10
53.8
20
21.6
30
0
11
53.8
21
23.8
31
0
0
LINE
8
PANEL
10
53.8
20
23.8
30
0
11
52.7
21
23.8
31
0
0
LINE
8
PANEL
10
52.7
20
23.8
30
0
11
52.7
21
21.6
31
0
0
LINE
8
PANEL
10
63.1
20
21.6
30
0
11
64.2
21
21.6
31
0
0
LINE
8
PANEL
10
64.2
20
21.6
30
0
11
64.2
21
23.8
31
0
0
LINE
8
PANEL
10
64.2
20
23.8
30
0
11
63.1
21
23.8
31
0
0
LINE
8
PANEL
10
63.1
20
23.8
30
0
11
63.1
21
21.6
31
0
0
LINE
8
PANEL
10
64.4
20
21.6
30
0
11
65.5
21
21.6
31
0
0
LINE
8
PANEL
10
65.5
20
21.6
30
0
11
65.5
21
23.8
31
0
0
LINE
8
PANEL
10
65.5
20
23.8
30
0
11
64.4
21
23.8
31
0
0
LINE
8
PANEL
10
64.4
20
23.8
30
0
11
64.4
21
21.6
31
0
0
LINE
8
PANEL
10
65.7
20
21.6
30
0
11
66.8
21
21.6
31
0
0
LINE
8
PANEL
10
66.8
20
21.6
30
0
11
66.8
21
23.8
31
0
0
LINE
8
PANEL
10
66.8
20
23.8
30
0
11
65.7
21
23.8
31
0
0
LINE
8
PANEL
10
65.7
20
23.8
30
0
11
65.7
21
21.6
31
0
0
LINE
8
PANEL
10
67
20
21.6
30
0
11
68.1
21
21.6
31
0
0
LINE
8
PANEL
10
68.1
20
21.6
30
0
11
68.1
21
23.8
31
0
0
LINE
8
PANEL
10
68.1
20
23.8
30
0
11
67
21
23.8
31
0
0
LINE
8
PANEL
10
67
20
23.8
30
0
11
67
21
21.6
31
0
0
LINE
8
PANEL
10
68.3
20
21.6
30
0
11
69.4
21
21.6
31
0
0
LINE
8
PANEL
10
69.4
20
21.6
30
0
11
69.4
21
23.8
31
0
0
LINE
8
PANEL
10
69.4
20
23.8
30
0
11
68.3
21
23.8
31
0
0
LINE
8
PANEL
10
68.3
20
23.8
30
0
11
68.3
21
21.6
31
0
0
LINE
8
PANEL
10
69.6
20
21.6
30
0
11
70.7
21
21.6
31
0
0
LINE
8
PANEL
10
70.7
20
21.6
30
0
11
70.7
21
23.8
31
0
0
LINE
8
PANEL
10
70.7
20
23.8
30
0
11
69.6
21
23.8
31
0
0
LINE
8
PANEL
10
69.6
20
23.8
30
0
11
69.6
21
21.6
31
0
0
LINE
8
PANEL
10
70.9
20
21.6
30
0
11
72
21
21.6
31
0
0
LINE
8
PANEL
10
72
20
21.6
30
0
11
72
21
23.8
31
0
0
LINE
8
PANEL
10
72
20
23.8
30
0
11
70.9
21
23.8
31
0
0
LINE
8
PANEL
10
70.9
20
23.8
30
0
11
70.9
21
21.6
31
0
0
LINE
8
PANEL
10
72.2
20
21.6
30
0
11
73.3
21
21.6
31
0
0
LINE
8
PANEL
10
73.3
20
21.6
30
0
11
73.3
21
23.8
31
0
0
LINE
8
PANEL
10
73.3
20
23.8
30
0
11
72.2
21
23.8
31
0
0
LINE
8
PANEL
10
72.2
20
23.8
30
0
11
72.2
21
21.6
31
0
0
LINE
8
PANEL
10
73.5
20
21.6
30
0
11
74.6
21
21.6
31
0
0
LINE
8
PANEL
10
74.6
20
21.6
30
0
11
74.6
21
23.8
31
0
0
LINE
8
PANEL
10
74.6
20
23.8
30
0
11
73.5
21
23.8
31
0
0
LINE
8
PANEL
10
73.5
20
23.8
30
0
11
73.5
21
21.6
31
0
0
LINE
8
PANEL
10
74.8
20
21.6
30
0
11
75.9
21
21.6
31
0
0
LINE
8
PANEL
10
75.9
20
21.6
30
0
11
75.9
21
23.8
31
0
0
LINE
8
PANEL
10
75.9
20
23.8
30
0
11
74.8
21
23.8
31
0
0
LINE
8
PANEL
10
74.8
20
23.8
30
0
11
74.8
21
21.6
31
0
0
LINE
8
PANEL
10
76.1
20
21.6
30
0
11
77.2
21
21.6
31
0
0
LINE
8
PANEL
10
77.2
20
21.6
30
0
11
77.2
21
23.8
31
0
0
LINE
8
PANEL
10
77.2
20
23.8
30
0
11
76.1
21
23.8
31
0
0
LINE
8
PANEL
10
76.1
20
23.8
30
0
11
76.1
21
21.6
31
0
0
LINE
8
PANEL
10
2
20
30
30
0
11
3.1
21
30
31
0
0
LINE
8
PANEL
10
3.1
20
30
30
0
11
3.1
21
32.2
31
0
0
LINE
8
PANEL
10
3.1
20
32.2
30
0
11
2
21
32.2
31
0
0
LINE
8
PANEL
10
2
20
32.2
30
0
11
2
21
30
31
0
0
LINE
8
PANEL
10
3.3
20
30
30
0
11
4.4
21
30
31
0
0
LINE
8
PANEL
10
4.4
20
30
30
0
11
4.4
21
32.2
31
0
0
LINE
8
PANEL
10
4.4
20
32.2
30
0
11
3.3
21
32.2
31
0
0
LINE
8
PANEL
10
3.3
20
32.2
30
0
11
3.3
21
30
31
0
0
LINE
8
PANEL
10
4.6
20
30
30
0
11
5.7
21
30
31
0
0
LINE
8
PANEL
10
5.7
20
30
30
0
11
5.7
21
32.2
31
0
0
LINE
8
PANEL
10
5.7
20
32.2
30
0
11
4.6
21
32.2
31
0
0
LINE
8
PANEL
10
4.6
20
32.2
30
0
11
4.6
21
30
31
0
0
LINE
8
PANEL
10
5.9
20
30
30
0
11
7
21
30
31
0
0
LINE
8
PANEL
10
7
20
30
30
0
11
7
21
32.2
31
0
0
LINE
8
PANEL
10
7
20
32.2
30
0
11
5.9
21
32.2
31
0
0
LINE
8
PANEL
10
5.9
20
32.2
30
0
11
5.9
21
30
31
0
0
LINE
8
PANEL
10
7.2
20
30
30
0
11
8.3
21
30
31
0
0
LINE
8
PANEL
10
8.3
20
30
30
0
11
8.3
21
32.2
31
0
0
LINE
8
PANEL
10
8.3
20
32.2
30
0
11
7.2
21
32.2
31
0
0
LINE
8
PANEL
10
7.2
20
32.2
30
0
11
7.2
21
30
31
0
0
LINE
8
PANEL
10
8.5
20
30
30
0
11
9.6
21
30
31
0
0
LINE
8
PANEL
10
9.6
20
30
30
0
11
9.6
21
32.2
31
0
0
LINE
8
PANEL
10
9.6
20
32.2
30
0
11
8.5
21
32.2
31
0
0
LINE
8
PANEL
10
8.5
20
32.2
30
0
11
8.5
21
30
31
0
0
LINE
8
PANEL
10
9.8
20
30
30
0
11
10.9
21
30
31
0
0
LINE
8
PANEL
10
10.9
20
30
30
0
11
10.9
21
32.2
31
0
0
LINE
8
PANEL
10
10.9
20
32.2
30
0
11
9.8
21
32.2
31
0
0
LINE
8
PANEL
10
9.8
20
32.2
30
0
11
9.8
21
30
31
0
0
LINE
8
PANEL
10
11.1
20
30
30
0
11
12.2
21
30
31
0
0
LINE
8
PANEL
10
12.2
20
30
30
0
11
12.2
21
32.2
31
0
0
LINE
8
PANEL
10
12.2
20
32.2
30
0
11
11.1
21
32.2
31
0
0
LINE
8
PANEL
10
11.1
20
32.2
30
0
11
11.1
21
30
31
0
0
LINE
8
PANEL
10
12.4
20
30
30
0
11
13.5
21
30
31
0
0
LINE
8
PANEL
10
13.5
20
30
30
0
11
13.5
21
32.2
31
0
0
LINE
8
PANEL
10
13.5
20
32.2
30
0
11
12.4
21
32.2
31
0
0
LINE
8
PANEL
10
12.4
20
32.2
30
0
11
12.4
21
30
31
0
0
LINE
8
PANEL
10
13.7
20
30
30
0
11
14.8
21
30
31
0
0
LINE
8
PANEL
10
14.8
20
30
30
0
11
14.8
21
32.2
31
0
0
LINE
8
PANEL
10
14.8
20
32.2
30
0
11
13.7
21
32.2
31
0
0
LINE
8
PANEL
10
13.7
20
32.2
30
0
11
13.7
21
30
31
0
0
LINE
8
PANEL
10
15
20
30
30
0
11
16.1
21
30
31
0
0
LINE
8
PANEL
10
16.1
20
30
30
0
11
16.1
21
32.2
31
0
0
LINE
8
PANEL
10
16.1
20
32.2
30
0
11
15
21
32.2
31
0
0
LINE
8
PANEL
10
15
20
32.2
30
0
11
15
21
30
31
0
0
LINE
8
PANEL
10
16.3
20
30
30
0
11
17.4
21
30
31
0
0
LINE
8
PANEL
10
17.4
20
30
30
0
11
17.4
21
32.2
31
0
0
LINE
8
PANEL
10
17.4
20
32.2
30
0
11
16.3
21
32.2
31
0
0
LINE
8
PANEL
10
16.3
20
32.2
30
0
11
16.3
21
30
31
0
0
LINE
8
PANEL
10
17.6
20
30
30
0
11
18.7
21
30
31
0
0
LINE
8
PANEL
10
18.7
20
30
30
0
11
18.7
21
32.2
31
0
0
LINE
8
PANEL
10
18.7
20
32.2
30
0
11
17.6
21
32.2
31
0
0
LINE
8
PANEL
10
17.6
20
32.2
30
0
11
17.6
21
30
31
0
0
LINE
8
PANEL
10
18.9
20
30
30
0
11
20
21
30
31
0
0
LINE
8
PANEL
10
20
20
30
30
0
11
20
21
32.2
31
0
0
LINE
8
PANEL
10
20
20
32.2
30
0
11
18.9
21
32.2
31
0
0
LINE
8
PANEL
10
18.9
20
32.2
30
0
11
18.9
21
30
31
0
0
LINE
8
PANEL
10
20.2
20
30
30
0
11
21.3
21
30
31
0
0
LINE
8
PANEL
10
21.3
20
30
30
0
11
21.3
21
32.2
31
0
0
LINE
8
PANEL
10
21.3
20
32.2
30
0
11
20.2
21
32.2
31
0
0
LINE
8
PANEL
10
20.2
20
32.2
30
0
11
20.2
21
30
31
0
0
LINE
8
PANEL
10
21.5
20
30
30
0
11
22.6
21
30
31
0
0
LINE
8
PANEL
10
22.6
20
30
30
0
11
22.6
21
32.2
31
0
0
LINE
8
PANEL
10
22.6
20
32.2
30
0
11
21.5
21
32.2
31
0
0
LINE
8
PANEL
10
21.5
20
32.2
30
0
11
21.5
21
30
31
0
0
LINE
8
PANEL
10
22.8
20
30
30
0
11
23.9
21
30
31
0
0
LINE
8
PANEL
10
23.9
20
30
30
0
11
23.9
21
32.2
31
0
0
LINE
8
PANEL
10
23.9
20
32.2
30
0
11
22.8
21
32.2
31
0
0
LINE
8
PANEL
10
22.8
20
32.2
30
0
11
22.8
21
30
31
0
0
LINE
8
PANEL
10
24.1
20
30
30
0
11
25.2
21
30
31
0
0
LINE
8
PANEL
10
25.2
20
30
30
0
11
25.2
21
32.2
31
0
0
LINE
8
PANEL
10
25.2
20
32.2
30
0
11
24.1
21
32.2
31
0
0
LINE
8
PANEL
10
24.1
20
32.2
30
0
11
24.1
21
30
31
0
0
LINE
8
PANEL
10
25.4
20
30
30
0
11
26.5
21
30
31
0
0
LINE
8
PANEL
10
26.5
20
30
30
0
11
26.5
21
32.2
31
0
0
LINE
8
PANEL
10
26.5
20
32.2
30
0
11
25.4
21
32.2
31
0
0
LINE
8
PANEL
10
25.4
20
32.2
30
0
11
25.4
21
30
31
0
0
LINE
8
PANEL
10
26.7
20
30
30
0
11
27.8
21
30
31
0
0
LINE
8
PANEL
10
27.8
20
30
30
0
11
27.8
21
32.2
31
0
0
LINE
8
PANEL
10
27.8
20
32.2
30
0
11
26.7
21
32.2
31
0
0
LINE
8
PANEL
10
26.7
20
32.2
30
0
11
26.7
21
30
31
0
0
LINE
8
PANEL
10
28
20
30
30
0
11
29.1
21
30
31
0
0
LINE
8
PANEL
10
29.1
20
30
30
0
11
29.1
21
32.2
31
0
0
LINE
8
PANEL
10
29.1
20
32.2
30
0
11
28
21
32.2
31
0
0
LINE
8
PANEL
10
28
20
32.2
30
0
11
28
21
30
31
0
0
LINE
8
PANEL
10
29.3
20
30
30
0
11
30.4
21
30
31
0
0
LINE
8
PANEL
10
30.4
20
30
30
0
11
30.4
21
32.2
31
0
0
LINE
8
PANEL
10
30.4
20
32.2
30
0
11
29.3
21
32.2
31
0
0
LINE
8
PANEL
10
29.3
20
32.2
30
0
11
29.3
21
30
31
0
0
LINE
8
PANEL
10
30.6
20
30
30
0
11
31.7
21
30
31
0
0
LINE
8
PANEL
10
31.7
20
30
30
0
11
31.7
21
32.2
31
0
0
LINE
8
PANEL
10
31.7
20
32.2
30
0
11
30.6
21
32.2
31
0
0
LINE
8
PANEL
10
30.6
20
32.2
30
0
11
30.6
21
30
31
0
0
LINE
8
PANEL
10
31.9
20
30
30
0
11
33
21
30
31
0
0
LINE
8
PANEL
10
33
20
30
30
0
11
33
21
32.2
31
0
0
LINE
8
PANEL
10
33
20
32.2
30
0
11
31.9
21
32.2
31
0
0
LINE
8
PANEL
10
31.9
20
32.2
30
0
11
31.9
21
30
31
0
0
LINE
8
PANEL
10
33.2
20
30
30
0
11
34.3
21
30
31
0
0
LINE
8
PANEL
10
34.3
20
30
30
0
11
34.3
21
32.2
31
0
0
LINE
8
PANEL
10
34.3
20
32.2
30
0
11
33.2
21
32.2
31
0
0
LINE
8
PANEL
10
33.2
20
32.2
30
0
11
33.2
21
30
31
0
0
LINE
8
PANEL
10
34.5
20
30
30
0
11
35.6
21
30
31
0
0
LINE
8
PANEL
10
35.6
20
30
30
0
11
35.6
21
32.2
31
0
0
LINE
8
PANEL
10
35.6
20
32.2
30
0
11
34.5
21
32.2
31
0
0
LINE
8
PANEL
10
34.5
20
32.2
30
0
11
34.5
21
30
31
0
0
LINE
8
PANEL
10
35.8
20
30
30
0
11
36.9
21
30
31
0
0
LINE
8
PANEL
10
36.9
20
30
30
0
11
36.9
21
32.2
31
0
0
LINE
8
PANEL
10
36.9
20
32.2
30
0
11
35.8
21
32.2
31
0
0
LINE
8
PANEL
10
35.8
20
32.2
30
0
11
35.8
21
30
31
0
0
LINE
8
PANEL
10
37.1
20
30
30
0
11
38.2
21
30
31
0
0
LINE
8
PANEL
10
38.2
20
30
30
0
11
38.2
21
32.2
31
0
0
LINE
8
PANEL
10
38.2
20
32.2
30
0
11
37.1
21
32.2
31
0
0
LINE
8
PANEL
10
37.1
20
32.2
30
0
11
37.1
21
30
31
0
0
LINE
8
PANEL
10
38.4
20
30
30
0
11
39.5
21
30
31
0
0
LINE
8
PANEL
10
39.5
20
30
30
0
11
39.5
21
32.2
31
0
0
LINE
8
PANEL
10
39.5
20
32.2
30
0
11
38.4
21
32.2
31
0
0
LINE
8
PANEL
10
38.4
20
32.2
30
0
11
38.4
21
30
31
0
0
LINE
8
PANEL
10
39.7
20
30
30
0
11
40.8
21
30
31
0
0
LINE
8
PANEL
10
40.8
20
30
30
0
11
40.8
21
32.2
31
0
0
LINE
8
PANEL
10
40.8
20
32.2
30
0
11
39.7
21
32.2
31
0
0
LINE
8
PANEL
10
39.7
20
32.2
30
0
11
39.7
21
30
31
0
0
LINE
8
PANEL
10
41
20
30
30
0
11
42.1
21
30
31
0
0
LINE
8
PANEL
10
42.1
20
30
30
0
11
42.1
21
32.2
31
0
0
LINE
8
PANEL
10
42.1
20
32.2
30
0
11
41
21
32.2
31
0
0
LINE
8
PANEL
10
41
20
32.2
30
0
11
41
21
30
31
0
0
LINE
8
PANEL
10
42.3
20
30
30
0
11
43.4
21
30
31
0
0
LINE
8
PANEL
10
43.4
20
30
30
0
11
43.4
21
32.2
31
0
0
LINE
8
PANEL
10
43.4
20
32.2
30
0
11
42.3
21
32.2
31
0
0
LINE
8
PANEL
10
42.3
20
32.2
30
0
11
42.3
21
30
31
0
0
LINE
8
PANEL
10
43.6
20
30
30
0
11
44.7
21
30
31
0
0
LINE
8
PANEL
10
44.7
20
30
30
0
11
44.7
21
32.2
31
0
0
LINE
8
PANEL
10
44.7
20
32.2
30
0
11
43.6
21
32.2
31
0
0
LINE
8
PANEL
10
43.6
20
32.2
30
0
11
43.6
21
30
31
0
0
LINE
8
PANEL
10
44.9
20
30
30
0
11
46
21
30
31
0
0
LINE
8
PANEL
10
46
20
30
30
0
11
46
21
32.2
31
0
0
LINE
8
PANEL
10
46
20
32.2
30
0
11
44.9
21
32.2
31
0
0
LINE
8
PANEL
10
44.9
20
32.2
30
0
11
44.9
21
30
31
0
0
LINE
8
PANEL
10
46.2
20
30
30
0
11
47.3
21
30
31
0
0
LINE
8
PANEL
10
47.3
20
30
30
0
11
47.3
21
32.2
31
0
0
LINE
8
PANEL
10
47.3
20
32.2
30
0
11
46.2
21
32.2
31
0
0
LINE
8
PANEL
10
46.2
20
32.2
30
0
11
46.2
21
30
31
0
0
LINE
8
PANEL
10
47.5
20
30
30
0
11
48.6
21
30
31
0
0
LINE
8
PANEL
10
48.6
20
30
30
0
11
48.6
21
32.2
31
0
0
LINE
8
PANEL
10
48.6
20
32.2
30
0
11
47.5
21
32.2
31
0
0
LINE
8
PANEL
10
47.5
20
32.2
30
0
11
47.5
21
30
31
0
0
LINE
8
PANEL
10
48.8
20
30
30
0
11
49.9
21
30
31
0
0
LINE
8
PANEL
10
49.9
20
30
30
0
11
49.9
21
32.2
31
0
0
LINE
8
PANEL
10
49.9
20
32.2
30
0
11
48.8
21
32.2
31
0
0
LINE
8
PANEL
10
48.8
20
32.2
30
0
11
48.8
21
30
31
0
0
LINE
8
PANEL
10
50.1
20
30
30
0
11
51.2
21
30
31
0
0
LINE
8
PANEL
10
51.2
20
30
30
0
11
51.2
21
32.2
31
0
0
LINE
8
PANEL
10
51.2
20
32.2
30
0
11
50.1
21
32.2
31
0
0
LINE
8
PANEL
10
50.1
20
32.2
30
0
11
50.1
21
30
31
0
0
LINE
8
PANEL
10
51.4
20
30
30
0
11
52.5
21
30
31
0
0
LINE
8
PANEL
10
52.5
20
30
30
0
11
52.5
21
32.2
31
0
0
LINE
8
PANEL
10
52.5
20
32.2
30
0
11
51.4
21
32.2
31
0
0
LINE
8
PANEL
10
51.4
20
32.2
30
0
11
51.4
21
30
31
0
0
LINE
8
PANEL
10
52.7
20
30
30
0
11
53.8
21
30
31
0
0
LINE
8
PANEL
10
53.8
20
30
30
0
11
53.8
21
32.2
31
0
0
LINE
8
PANEL
10
53.8
20
32.2
30
0
11
52.7
21
32.2
31
0
0
LINE
8
PANEL
10
52.7
20
32.2
30
0
11
52.7
21
30
31
0
0
LINE
8
PANEL
10
54
20
30
30
0
11
55.1
21
30
31
0
0
LINE
8
PANEL
10
55.1
20
30
30
0
11
55.1
21
32.2
31
0
0
LINE
8
PANEL
10
55.1
20
32.2
30
0
11
54
21
32.2
31
0
0
LINE
8
PANEL
10
54
20
32.2
30
0
11
54
21
30
31
0
0
LINE
8
PANEL
10
55.3
20
30
30
0
11
56.4
21
30
31
0
0
LINE
8
PANEL
10
56.4
20
30
30
0
11
56.4
21
32.2
31
0
0
LINE
8
PANEL
10
56.4
20
32.2
30
0
11
55.3
21
32.2
31
0
0
LINE
8
PANEL
10
55.3
20
32.2
30
0
11
55.3
21
30
31
0
0
LINE
8
PANEL
10
56.6
20
30
30
0
11
57.7
21
30
31
0
0
LINE
8
PANEL
10
57.7
20
30
30
0
11
57.7
21
32.2
31
0
0
LINE
8
PANEL
10
57.7
20
32.2
30
0
11
56.6
21
32.2
31
0
0
LINE
8
PANEL
10
56.6
20
32.2
30
0
11
56.6
21
30
31
0
0
LINE
8
PANEL
10
57.9
20
30
30
0
11
59
21
30
31
0
0
LINE
8
PANEL
10
59
20
30
30
0
11
59
21
32.2
31
0
0
LINE
8
PANEL
10
59
20
32.2
30
0
11
57.9
21
32.2
31
0
0
LINE
8
PANEL
10
57.9
20
32.2
30
0
11
57.9
21
30
31
0
0
LINE
8
PANEL
10
59.2
20
30
30
0
11
60.3
21
30
31
0
0
LINE
8
PANEL
10
60.3
20
30
30
0
11
60.3
21
32.2
31
0
0
LINE
8
PANEL
10
60.3
20
32.2
30
0
11
59.2
21
32.2
31
0
0
LINE
8
PANEL
10
59.2
20
32.2
30
0
11
59.2
21
30
31
0
0
LINE
8
PANEL
10
60.5
20
30
30
0
11
61.6
21
30
31
0
0
LINE
8
PANEL
10
61.6
20
30
30
0
11
61.6
21
32.2
31
0
0
LINE
8
PANEL
10
61.6
20
32.2
30
0
11
60.5
21
32.2
31
0
0
LINE
8
PANEL
10
60.5
20
32.2
30
0
11
60.5
21
30
31
0
0
LINE
8
PANEL
10
61.8
20
30
30
0
11
62.9
21
30
31
0
0
LINE
8
PANEL
10
62.9
20
30
30
0
11
62.9
21
32.2
31
0
0
LINE
8
PANEL
10
62.9
20
32.2
30
0
11
61.8
21
32.2
31
0
0
LINE
8
PANEL
10
61.8
20
32.2
30
0
11
61.8
21
30
31
0
0
LINE
8
PANEL
10
63.1
20
30
30
0
11
64.2
21
30
31
0
0
LINE
8
PANEL
10
64.2
20
30
30
0
11
64.2
21
32.2
31
0
0
LINE
8
PANEL
10
64.2
20
32.2
30
0
11
63.1
21
32.2
31
0
0
LINE
8
PANEL
10
63.1
20
32.2
30
0
11
63.1
21
30
31
0
0
LINE
8
PANEL
10
64.4
20
30
30
0
11
65.5
21
30
31
0
0
LINE
8
PANEL
10
65.5
20
30
30
0
11
65.5
21
32.2
31
0
0
LINE
8
PANEL
10
65.5
20
32.2
30
0
11
64.4
21
32.2
31
0
0
LINE
8
PANEL
10
64.4
20
32.2
30
0
11
64.4
21
30
31
0
0
LINE
8
PANEL
10
65.7
20
30
30
0
11
66.8
21
30
31
0
0
LINE
8
PANEL
10
66.8
20
30
30
0
11
66.8
21
32.2
31
0
0
LINE
8
PANEL
10
66.8
20
32.2
30
0
11
65.7
21
32.2
31
0
0
LINE
8
PANEL
10
65.7
20
32.2
30
0
11
65.7
21
30
31
0
0
LINE
8
PANEL
10
67
20
30
30
0
11
68.1
21
30
31
0
0
LINE
8
PANEL
10
68.1
20
30
30
0
11
68.1
21
32.2
31
0
0
LINE
8
PANEL
10
68.1
20
32.2
30
0
11
67
21
32.2
31
0
0
LINE
8
PANEL
10
67
20
32.2
30
0
11
67
21
30
31
0
0
LINE
8
PANEL
10
68.3
20
30
30
0
11
69.4
21
30
31
0
0
LINE
8
PANEL
10
69.4
20
30
30
0
11
69.4
21
32.2
31
0
0
LINE
8
PANEL
10
69.4
20
32.2
30
0
11
68.3
21
32.2
31
0
0
LINE
8
PANEL
10
68.3
20
32.2
30
0
11
68.3
21
30
31
0
0
LINE
8
PANEL
10
69.6
20
30
30
0
11
70.7
21
30
31
0
0
LINE
8
PANEL
10
70.7
20
30
30
0
11
70.7
21
32.2
31
0
0
LINE
8
PANEL
10
70.7
20
32.2
30
0
11
69.6
21
32.2
31
0
0
LINE
8
PANEL
10
69.6
20
32.2
30
0
11
69.6
21
30
31
0
0
LINE
8
PANEL
10
70.9
20
30
30
0
11
72
21
30
31
0
0
LINE
8
PANEL
10
72
20
30
30
0
11
72
21
32.2
31
0
0
LINE
8
PANEL
10
72
20
32.2
30
0
11
70.9
21
32.2
31
0
0
LINE
8
PANEL
10
70.9
20
32.2
30
0
11
70.9
21
30
31
0
0
LINE
8
PANEL
10
72.2
20
30
30
0
11
73.3
21
30
31
0
0
LINE
8
PANEL
10
73.3
20
30
30
0
11
73.3
21
32.2
31
0
0
LINE
8
PANEL
10
73.3
20
32.2
30
0
11
72.2
21
32.2
31
0
0
LINE
8
PANEL
10
72.2
20
32.2
30
0
11
72.2
21
30
31
0
0
LINE
8
PANEL
10
73.5
20
30
30
0
11
74.6
21
30
31
0
0
LINE
8
PANEL
10
74.6
20
30
30
0
11
74.6
21
32.2
31
0
0
LINE
8
PANEL
10
74.6
20
32.2
30
0
11
73.5
21
32.2
31
0
0
LINE
8
PANEL
10
73.5
20
32.2
30
0
11
73.5
21
30
31
0
0
LINE
8
PANEL
10
74.8
20
30
30
0
11
75.9
21
30
31
0
0
LINE
8
PANEL
10
75.9
20
30
30
0
11
75.9
21
32.2
31
0
0
LINE
8
PANEL
10
75.9
20
32.2
30
0
11
74.8
21
32.2
31
0
0
LINE
8
PANEL
10
74.8
20
32.2
30
0
11
74.8
21
30
31
0
0
LINE
8
PANEL
10
76.1
20
30
30
0
11
77.2
21
30
31
0
0
LINE
8
PANEL
10
77.2
20
30
30
0
11
77.2
21
32.2
31
0
0
LINE
8
PANEL
10
77.2
20
32.2
30
0
11
76.1
21
32.2
31
0
0
LINE
8
PANEL
10
76.1
20
32.2
30
0
11
76.1
21
30
31
0
0
LINE
8
PANEL
10
2
20
32.8
30
0
11
3.1
21
32.8
31
0
0
LINE
8
PANEL
10
3.1
20
32.8
30
0
11
3.1
21
35
31
0
0
LINE
8
PANEL
10
3.1
20
35
30
0
11
2
21
35
31
0
0
LINE
8
PANEL
10
2
20
35
30
0
11
2
21
32.8
31
0
0
LINE
8
PANEL
10
3.3
20
32.8
30
0
11
4.4
21
32.8
31
0
0
LINE
8
PANEL
10
4.4
20
32.8
30
0
11
4.4
21
35
31
0
0
LINE
8
PANEL
10
4.4
20
35
30
0
11
3.3
21
35
31
0
0
LINE
8
PANEL
10
3.3
20
35
30
0
11
3.3
21
32.8
31
0
0
LINE
8
PANEL
10
4.6
20
32.8
30
0
11
5.7
21
32.8
31
0
0
LINE
8
PANEL
10
5.7
20
32.8
30
0
11
5.7
21
35
31
0
0
LINE
8
PANEL
10
5.7
20
35
30
0
11
4.6
21
35
31
0
0
LINE
8
PANEL
10
4.6
20
35
30
0
11
4.6
21
32.8
31
0
0
LINE
8
PANEL
10
5.9
20
32.8
30
0
11
7
21
32.8
31
0
0
LINE
8
PANEL
10
7
20
32.8
30
0
11
7
21
35
31
0
0
LINE
8
PANEL
10
7
20
35
30
0
11
5.9
21
35
31
0
0
LINE
8
PANEL
10
5.9
20
35
30
0
11
5.9
21
32.8
31
0
0
LINE
8
PANEL
10
7.2
20
32.8
30
0
11
8.3
21
32.8
31
0
0
LINE
8
PANEL
10
8.3
20
32.8
30
0
11
8.3
21
35
31
0
0
LINE
8
PANEL
10
8.3
20
35
30
0
11
7.2
21
35
31
0
0
LINE
8
PANEL
10
7.2
20
35
30
0
11
7.2
21
32.8
31
0
0
LINE
8
PANEL
10
8.5
20
32.8
30
0
11
9.6
21
32.8
31
0
0
LINE
8
PANEL
10
9.6
20
32.8
30
0
11
9.6
21
35
31
0
0
LINE
8
PANEL
10
9.6
20
35
30
0
11
8.5
21
35
31
0
0
LINE
8
PANEL
10
8.5
20
35
30
0
11
8.5
21
32.8
31
0
0
LINE
8
PANEL
10
9.8
20
32.8
30
0
11
10.9
21
32.8
31
0
0
LINE
8
PANEL
10
10.9
20
32.8
30
0
11
10.9
21
35
31
0
0
LINE
8
PANEL
10
10.9
20
35
30
0
11
9.8
21
35
31
0
0
LINE
8
PANEL
10
9.8
20
35
30
0
11
9.8
21
32.8
31
0
0
LINE
8
PANEL
10
11.1
20
32.8
30
0
11
12.2
21
32.8
31
0
0
LINE
8
PANEL
10
12.2
20
32.8
30
0
11
12.2
21
35
31
0
0
LINE
8
PANEL
10
12.2
20
35
30
0
11
11.1
21
35
31
0
0
LINE
8
PANEL
10
11.1
20
35
30
0
11
11.1
21
32.8
31
0
0
LINE
8
PANEL
10
12.4
20
32.8
30
0
11
13.5
21
32.8
31
0
0
LINE
8
PANEL
10
13.5
20
32.8
30
0
11
13.5
21
35
31
0
0
LINE
8
PANEL
10
13.5
20
35
30
0
11
12.4
21
35
31
0
0
LINE
8
PANEL
10
12.4
20
35
30
0
11
12.4
21
32.8
31
0
0
LINE
8
PANEL
10
13.7
20
32.8
30
0
11
14.8
21
32.8
31
0
0
LINE
8
PANEL
10
14.8
20
32.8
30
0
11
14.8
21
35
31
0
0
LINE
8
PANEL
10
14.8
20
35
30
0
11
13.7
21
35
31
0
0
LINE
8
PANEL
10
13.7
20
35
30
0
11
13.7
21
32.8
31
0
0
LINE
8
PANEL
10
15
20
32.8
30
0
11
16.1
21
32.8
31
0
0
LINE
8
PANEL
10
16.1
20
32.8
30
0
11
16.1
21
35
31
0
0
LINE
8
PANEL
10
16.1
20
35
30
0
11
15
21
35
31
0
0
LINE
8
PANEL
10
15
20
35
30
0
11
15
21
32.8
31
0
0
LINE
8
PANEL
10
16.3
20
32.8
30
0
11
17.4
21
32.8
31
0
0
LINE
8
PANEL
10
17.4
20
32.8
30
0
11
17.4
21
35
31
0
0
LINE
8
PANEL
10
17.4
20
35
30
0
11
16.3
21
35
31
0
0
LINE
8
PANEL
10
16.3
20
35
30
0
11
16.3
21
32.8
31
0
0
LINE
8
PANEL
10
17.6
20
32.8
30
0
11
18.7
21
32.8
31
0
0
LINE
8
PANEL
10
18.7
20
32.8
30
0
11
18.7
21
35
31
0
0
LINE
8
PANEL
10
18.7
20
35
30
0
11
17.6
21
35
31
0
0
LINE
8
PANEL
10
17.6
20
35
30
0
11
17.6
21
32.8
31
0
0
LINE
8
PANEL
10
18.9
20
32.8
30
0
11
20
21
32.8
31
0
0
LINE
8
PANEL
10
20
20
32.8
30
0
11
20
21
35
31
0
0
LINE
8
PANEL
10
20
20
35
30
0
11
18.9
21
35
31
0
0
LINE
8
PANEL
10
18.9
20
35
30
0
11
18.9
21
32.8
31
0
0
LINE
8
PANEL
10
20.2
20
32.8
30
0
11
21.3
21
32.8
31
0
0
LINE
8
PANEL
10
21.3
20
32.8
30
0
11
21.3
21
35
31
0
0
LINE
8
PANEL
10
21.3
20
35
30
0
11
20.2
21
35
31
0
0
LINE
8
PANEL
10
20.2
20
35
30
0
11
20.2
21
32.8
31
0
0
LINE
8
PANEL
10
21.5
20
32.8
30
0
11
22.6
21
32.8
31
0
0
LINE
8
PANEL
10
22.6
20
32.8
30
0
11
22.6
21
35
31
0
0
LINE
8
PANEL
10
22.6
20
35
30
0
11
21.5
21
35
31
0
0
LINE
8
PANEL
10
21.5
20
35
30
0
11
21.5
21
32.8
31
0
0
LINE
8
PANEL
10
22.8
20
32.8
30
0
11
23.9
21
32.8
31
0
0
LINE
8
PANEL
10
23.9
20
32.8
30
0
11
23.9
21
35
31
0
0
LINE
8
PANEL
10
23.9
20
35
30
0
11
22.8
21
35
31
0
0
LINE
8
PANEL
10
22.8
20
35
30
0
11
22.8
21
32.8
31
0
0
LINE
8
PANEL
10
24.1
20
32.8
30
0
11
25.2
21
32.8
31
0
0
LINE
8
PANEL
10
25.2
20
32.8
30
0
11
25.2
21
35
31
0
0
LINE
8
PANEL
10
25.2
20
35
30
0
11
24.1
21
35
31
0
0
LINE
8
PANEL
10
24.1
20
35
30
0
11
24.1
21
32.8
31
0
0
LINE
8
PANEL
10
25.4
20
32.8
30
0
11
26.5
21
32.8
31
0
0
LINE
8
PANEL
10
26.5
20
32.8
30
0
11
26.5
21
35
31
0
0
LINE
8
PANEL
10
26.5
20
35
30
0
11
25.4
21
35
31
0
0
LINE
8
PANEL
10
25.4
20
35
30
0
11
25.4
21
32.8
31
0
0
LINE
8
PANEL
10
26.7
20
32.8
30
0
11
27.8
21
32.8
31
0
0
LINE
8
PANEL
10
27.8
20
32.8
30
0
11
27.8
21
35
31
0
0
LINE
8
PANEL
10
27.8
20
35
30
0
11
26.7
21
35
31
0
0
LINE
8
PANEL
10
26.7
20
35
30
0
11
26.7
21
32.8
31
0
0
LINE
8
PANEL
10
28
20
32.8
30
0
11
29.1
21
32.8
31
0
0
LINE
8
PANEL
10
29.1
20
32.8
30
0
11
29.1
21
35
31
0
0
LINE
8
PANEL
10
29.1
20
35
30
0
11
28
21
35
31
0
0
LINE
8
PANEL
10
28
20
35
30
0
11
28
21
32.8
31
0
0
LINE
8
PANEL
10
29.3
20
32.8
30
0
11
30.4
21
32.8
31
0
0
LINE
8
PANEL
10
30.4
20
32.8
30
0
11
30.4
21
35
31
0
0
LINE
8
PANEL
10
30.4
20
35
30
0
11
29.3
21
35
31
0
0
LINE
8
PANEL
10
29.3
20
35
30
0
11
29.3
21
32.8
31
0
0
LINE
8
PANEL
10
30.6
20
32.8
30
0
11
31.7
21
32.8
31
0
0
LINE
8
PANEL
10
31.7
20
32.8
30
0
11
31.7
21
35
31
0
0
LINE
8
PANEL
10
31.7
20
35
30
0
11
30.6
21
35
31
0
0
LINE
8
PANEL
10
30.6
20
35
30
0
11
30.6
21
32.8
31
0
0
LINE
8
PANEL
10
31.9
20
32.8
30
0
11
33
21
32.8
31
0
0
LINE
8
PANEL
10
33
20
32.8
30
0
11
33
21
35
31
0
0
LINE
8
PANEL
10
33
20
35
30
0
11
31.9
21
35
31
0
0
LINE
8
PANEL
10
31.9
20
35
30
0
11
31.9
21
32.8
31
0
0
LINE
8
PANEL
10
33.2
20
32.8
30
0
11
34.3
21
32.8
31
0
0
LINE
8
PANEL
10
34.3
20
32.8
30
0
11
34.3
21
35
31
0
0
LINE
8
PANEL
10
34.3
20
35
30
0
11
33.2
21
35
31
0
0
LINE
8
PANEL
10
33.2
20
35
30
0
11
33.2
21
32.8
31
0
0
LINE
8
PANEL
10
34.5
20
32.8
30
0
11
35.6
21
32.8
31
0
0
LINE
8
PANEL
10
35.6
20
32.8
30
0
11
35.6
21
35
31
0
0
LINE
8
PANEL
10
35.6
20
35
30
0
11
34.5
21
35
31
0
0
LINE
8
PANEL
10
34.5
20
35
30
0
11
34.5
21
32.8
31
0
0
LINE
8
PANEL
10
35.8
20
32.8
30
0
11
36.9
21
32.8
31
0
0
LINE
8
PANEL
10
36.9
20
32.8
30
0
11
36.9
21
35
31
0
0
LINE
8
PANEL
10
36.9
20
35
30
0
11
35.8
21
35
31
0
0
LINE
8
PANEL
10
35.8
20
35
30
0
11
35.8
21
32.8
31
0
0
LINE
8
PANEL
10
37.1
20
32.8
30
0
11
38.2
21
32.8
31
0
0
LINE
8
PANEL
10
38.2
20
32.8
30
0
11
38.2
21
35
31
0
0
LINE
8
PANEL
10
38.2
20
35
30
0
11
37.1
21
35
31
0
0
LINE
8
PANEL
10
37.1
20
35
30
0
11
37.1
21
32.8
31
0
0
LINE
8
PANEL
10
38.4
20
32.8
30
0
11
39.5
21
32.8
31
0
0
LINE
8
PANEL
10
39.5
20
32.8
30
0
11
39.5
21
35
31
0
0
LINE
8
PANEL
10
39.5
20
35
30
0
11
38.4
21
35
31
0
0
LINE
8
PANEL
10
38.4
20
35
30
0
11
38.4
21
32.8
31
0
0
LINE
8
PANEL
10
39.7
20
32.8
30
0
11
40.8
21
32.8
31
0
0
LINE
8
PANEL
10
40.8
20
32.8
30
0
11
40.8
21
35
31
0
0
LINE
8
PANEL
10
40.8
20
35
30
0
11
39.7
21
35
31
0
0
LINE
8
PANEL
10
39.7
20
35
30
0
11
39.7
21
32.8
31
0
0
LINE
8
PANEL
10
41
20
32.8
30
0
11
42.1
21
32.8
31
0
0
LINE
8
PANEL
10
42.1
20
32.8
30
0
11
42.1
21
35
31
0
0
LINE
8
PANEL
10
42.1
20
35
30
0
11
41
21
35
31
0
0
LINE
8
PANEL
10
41
20
35
30
0
11
41
21
32.8
31
0
0
LINE
8
PANEL
10
42.3
20
32.8
30
0
11
43.4
21
32.8
31
0
0
LINE
8
PANEL
10
43.4
20
32.8
30
0
11
43.4
21
35
31
0
0
LINE
8
PANEL
10
43.4
20
35
30
0
11
42.3
21
35
31
0
0
LINE
8
PANEL
10
42.3
20
35
30
0
11
42.3
21
32.8
31
0
0
LINE
8
PANEL
10
43.6
20
32.8
30
0
11
44.7
21
32.8
31
0
0
LINE
8
PANEL
10
44.7
20
32.8
30
0
11
44.7
21
35
31
0
0
LINE
8
PANEL
10
44.7
20
35
30
0
11
43.6
21
35
31
0
0
LINE
8
PANEL
10
43.6
20
35
30
0
11
43.6
21
32.8
31
0
0
LINE
8
PANEL
10
44.9
20
32.8
30
0
11
46
21
32.8
31
0
0
LINE
8
PANEL
10
46
20
32.8
30
0
11
46
21
35
31
0
0
LINE
8
PANEL
10
46
20
35
30
0
11
44.9
21
35
31
0
0
LINE
8
PANEL
10
44.9
20
35
30
0
11
44.9
21
32.8
31
0
0
LINE
8
PANEL
10
46.2
20
32.8
30
0
11
47.3
21
32.8
31
0
0
LINE
8
PANEL
10
47.3
20
32.8
30
0
11
47.3
21
35
31
0
0
LINE
8
PANEL
10
47.3
20
35
30
0
11
46.2
21
35
31
0
0
LINE
8
PANEL
10
46.2
20
35
30
0
11
46.2
21
32.8
31
0
0
LINE
8
PANEL
10
47.5
20
32.8
30
0
11
48.6
21
32.8
31
0
0
LINE
8
PANEL
10
48.6
20
32.8
30
0
11
48.6
21
35
31
0
0
LINE
8
PANEL
10
48.6
20
35
30
0
11
47.5
21
35
31
0
0
LINE
8
PANEL
10
47.5
20
35
30
0
11
47.5
21
32.8
31
0
0
LINE
8
PANEL
10
48.8
20
32.8
30
0
11
49.9
21
32.8
31
0
0
LINE
8
PANEL
10
49.9
20
32.8
30
0
11
49.9
21
35
31
0
0
LINE
8
PANEL
10
49.9
20
35
30
0
11
48.8
21
35
31
0
0
LINE
8
PANEL
10
48.8
20
35
30
0
11
48.8
21
32.8
31
0
0
LINE
8
PANEL
10
50.1
20
32.8
30
0
11
51.2
21
32.8
31
0
0
LINE
8
PANEL
10
51.2
20
32.8
30
0
11
51.2
21
35
31
0
0
LINE
8
PANEL
10
51.2
20
35
30
0
11
50.1
21
35
31
0
0
LINE
8
PANEL
10
50.1
20
35
30
0
11
50.1
21
32.8
31
0
0
LINE
8
PANEL
10
51.4
20
32.8
30
0
11
52.5
21
32.8
31
0
0
LINE
8
PANEL
10
52.5
20
32.8
30
0
11
52.5
21
35
31
0
0
LINE
8
PANEL
10
52.5
20
35
30
0
11
51.4
21
35
31
0
0
LINE
8
PANEL
10
51.4
20
35
30
0
11
51.4
21
32.8
31
0
0
LINE
8
PANEL
10
52.7
20
32.8
30
0
11
53.8
21
32.8
31
0
0
LINE
8
PANEL
10
53.8
20
32.8
30
0
11
53.8
21
35
31
0
0
LINE
8
PANEL
10
53.8
20
35
30
0
11
52.7
21
35
31
0
0
LINE
8
PANEL
10
52.7
20
35
30
0
11
52.7
21
32.8
31
0
0
LINE
8
PANEL
10
54
20
32.8
30
0
11
55.1
21
32.8
31
0
0
LINE
8
PANEL
10
55.1
20
32.8
30
0
11
55.1
21
35
31
0
0
LINE
8
PANEL
10
55.1
20
35
30
0
11
54
21
35
31
0
0
LINE
8
PANEL
10
54
20
35
30
0
11
54
21
32.8
31
0
0
LINE
8
PANEL
10
55.3
20
32.8
30
0
11
56.4
21
32.8
31
0
0
LINE
8
PANEL
10
56.4
20
32.8
30
0
11
56.4
21
35
31
0
0
LINE
8
PANEL
10
56.4
20
35
30
0
11
55.3
21
35
31
0
0
LINE
8
PANEL
10
55.3
20
35
30
0
11
55.3
21
32.8
31
0
0
LINE
8
PANEL
10
56.6
20
32.8
30
0
11
57.7
21
32.8
31
0
0
LINE
8
PANEL
10
57.7
20
32.8
30
0
11
57.7
21
35
31
0
0
LINE
8
PANEL
10
57.7
20
35
30
0
11
56.6
21
35
31
0
0
LINE
8
PANEL
10
56.6
20
35
30
0
11
56.6
21
32.8
31
0
0
LINE
8
PANEL
10
57.9
20
32.8
30
0
11
59
21
32.8
31
0
0
LINE
8
PANEL
10
59
20
32.8
30
0
11
59
21
35
31
0
0
LINE
8
PANEL
10
59
20
35
30
0
11
57.9
21
35
31
0
0
LINE
8
PANEL
10
57.9
20
35
30
0
11
57.9
21
32.8
31
0
0
LINE
8
PANEL
10
59.2
20
32.8
30
0
11
60.3
21
32.8
31
0
0
LINE
8
PANEL
10
60.3
20
32.8
30
0
11
60.3
21
35
31
0
0
LINE
8
PANEL
10
60.3
20
35
30
0
11
59.2
21
35
31
0
0
LINE
8
PANEL
10
59.2
20
35
30
0
11
59.2
21
32.8
31
0
0
LINE
8
PANEL
10
60.5
20
32.8
30
0
11
61.6
21
32.8
31
0
0
LINE
8
PANEL
10
61.6
20
32.8
30
0
11
61.6
21
35
31
0
0
LINE
8
PANEL
10
61.6
20
35
30
0
11
60.5
21
35
31
0
0
LINE
8
PANEL
10
60.5
20
35
30
0
11
60.5
21
32.8
31
0
0
LINE
8
PANEL
10
61.8
20
32.8
30
0
11
62.9
21
32.8
31
0
0
LINE
8
PANEL
10
62.9
20
32.8
30
0
11
62.9
21
35
31
0
0
LINE
8
PANEL
10
62.9
20
35
30
0
11
61.8
21
35
31
0
0
LINE
8
PANEL
10
61.8
20
35
30
0
11
61.8
21
32.8
31
0
0
LINE
8
PANEL
10
63.1
20
32.8
30
0
11
64.2
21
32.8
31
0
0
LINE
8
PANEL
10
64.2
20
32.8
30
0
11
64.2
21
35
31
0
0
LINE
8
PANEL
10
64.2
20
35
30
0
11
63.1
21
35
31
0
0
LINE
8
PANEL
10
63.1
20
35
30
0
11
63.1
21
32.8
31
0
0
LINE
8
PANEL
10
64.4
20
32.8
30
0
11
65.5
21
32.8
31
0
0
LINE
8
PANEL
10
65.5
20
32.8
30
0
11
65.5
21
35
31
0
0
LINE
8
PANEL
10
65.5
20
35
30
0
11
64.4
21
35
31
0
0
LINE
8
PANEL
10
64.4
20
35
30
0
11
64.4
21
32.8
31
0
0
LINE
8
PANEL
10
65.7
20
32.8
30
0
11
66.8
21
32.8
31
0
0
LINE
8
PANEL
10
66.8
20
32.8
30
0
11
66.8
21
35
31
0
0
LINE
8
PANEL
10
66.8
20
35
30
0
11
65.7
21
35
31
0
0
LINE
8
PANEL
10
65.7
20
35
30
0
11
65.7
21
32.8
31
0
0
LINE
8
PANEL
10
67
20
32.8
30
0
11
68.1
21
32.8
31
0
0
LINE
8
PANEL
10
68.1
20
32.8
30
0
11
68.1
21
35
31
0
0
LINE
8
PANEL
10
68.1
20
35
30
0
11
67
21
35
31
0
0
LINE
8
PANEL
10
67
20
35
30
0
11
67
21
32.8
31
0
0
LINE
8
PANEL
10
68.3
20
32.8
30
0
11
69.4
21
32.8
31
0
0
LINE
8
PANEL
10
69.4
20
32.8
30
0
11
69.4
21
35
31
0
0
LINE
8
PANEL
10
69.4
20
35
30
0
11
68.3
21
35
31
0
0
LINE
8
PANEL
10
68.3
20
35
30
0
11
68.3
21
32.8
31
0
0
LINE
8
PANEL
10
69.6
20
32.8
30
0
11
70.7
21
32.8
31
0
0
LINE
8
PANEL
10
70.7
20
32.8
30
0
11
70.7
21
35
31
0
0
LINE
8
PANEL
10
70.7
20
35
30
0
11
69.6
21
35
31
0
0
LINE
8
PANEL
10
69.6
20
35
30
0
11
69.6
21
32.8
31
0
0
LINE
8
PANEL
10
70.9
20
32.8
30
0
11
72
21
32.8
31
0
0
LINE
8
PANEL
10
72
20
32.8
30
0
11
72
21
35
31
0
0
LINE
8
PANEL
10
72
20
35
30
0
11
70.9
21
35
31
0
0
LINE
8
PANEL
10
70.9
20
35
30
0
11
70.9
21
32.8
31
0
0
LINE
8
PANEL
10
72.2
20
32.8
30
0
11
73.3
21
32.8
31
0
0
LINE
8
PANEL
10
73.3
20
32.8
30
0
11
73.3
21
35
31
0
0
LINE
8
PANEL
10
73.3
20
35
30
0
11
72.2
21
35
31
0
0
LINE
8
PANEL
10
72.2
20
35
30
0
11
72.2
21
32.8
31
0
0
LINE
8
PANEL
10
73.5
20
32.8
30
0
11
74.6
21
32.8
31
0
0
LINE
8
PANEL
10
74.6
20
32.8
30
0
11
74.6
21
35
31
0
0
LINE
8
PANEL
10
74.6
20
35
30
0
11
73.5
21
35
31
0
0
LINE
8
PANEL
10
73.5
20
35
30
0
11
73.5
21
32.8
31
0
0
LINE
8
PANEL
10
74.8
20
32.8
30
0
11
75.9
21
32.8
31
0
0
LINE
8
PANEL
10
75.9
20
32.8
30
0
11
75.9
21
35
31
0
0
LINE
8
PANEL
10
75.9
20
35
30
0
11
74.8
21
35
31
0
0
LINE
8
PANEL
10
74.8
20
35
30
0
11
74.8
21
32.8
31
0
0
LINE
8
PANEL
10
76.1
20
32.8
30
0
11
77.2
21
32.8
31
0
0
LINE
8
PANEL
10
77.2
20
32.8
30
0
11
77.2
21
35
31
0
0
LINE
8
PANEL
10
77.2
20
35
30
0
11
76.1
21
35
31
0
0
LINE
8
PANEL
10
76.1
20
35
30
0
11
76.1
21
32.8
31
0
0
LINE
8
PANEL
10
2
20
35.6
30
0
11
3.1
21
35.6
31
0
0
LINE
8
PANEL
10
3.1
20
35.6
30
0
11
3.1
21
37.8
31
0
0
LINE
8
PANEL
10
3.1
20
37.8
30
0
11
2
21
37.8
31
0
0
LINE
8
PANEL
10
2
20
37.8
30
0
11
2
21
35.6
31
0
0
LINE
8
PANEL
10
3.3
20
35.6
30
0
11
4.4
21
35.6
31
0
0
LINE
8
PANEL
10
4.4
20
35.6
30
0
11
4.4
21
37.8
31
0
0
LINE
8
PANEL
10
4.4
20
37.8
30
0
11
3.3
21
37.8
31
0
0
LINE
8
PANEL
10
3.3
20
37.8
30
0
11
3.3
21
35.6
31
0
0
LINE
8
PANEL
10
4.6
20
35.6
30
0
11
5.7
21
35.6
31
0
0
LINE
8
PANEL
10
5.7
20
35.6
30
0
11
5.7
21
37.8
31
0
0
LINE
8
PANEL
10
5.7
20
37.8
30
0
11
4.6
21
37.8
31
0
0
LINE
8
PANEL
10
4.6
20
37.8
30
0
11
4.6
21
35.6
31
0
0
LINE
8
PANEL
10
5.9
20
35.6
30
0
11
7
21
35.6
31
0
0
LINE
8
PANEL
10
7
20
35.6
30
0
11
7
21
37.8
31
0
0
LINE
8
PANEL
10
7
20
37.8
30
0
11
5.9
21
37.8
31
0
0
LINE
8
PANEL
10
5.9
20
37.8
30
0
11
5.9
21
35.6
31
0
0
LINE
8
PANEL
10
7.2
20
35.6
30
0
11
8.3
21
35.6
31
0
0
LINE
8
PANEL
10
8.3
20
35.6
30
0
11
8.3
21
37.8
31
0
0
LINE
8
PANEL
10
8.3
20
37.8
30
0
11
7.2
21
37.8
31
0
0
LINE
8
PANEL
10
7.2
20
37.8
30
0
11
7.2
21
35.6
31
0
0
LINE
8
PANEL
10
8.5
20
35.6
30
0
11
9.6
21
35.6
31
0
0
LINE
8
PANEL
10
9.6
20
35.6
30
0
11
9.6
21
37.8
31
0
0
LINE
8
PANEL
10
9.6
20
37.8
30
0
11
8.5
21
37.8
31
0
0
LINE
8
PANEL
10
8.5
20
37.8
30
0
11
8.5
21
35.6
31
0
0
LINE
8
PANEL
10
9.8
20
35.6
30
0
11
10.9
21
35.6
31
0
0
LINE
8
PANEL
10
10.9
20
35.6
30
0
11
10.9
21
37.8
31
0
0
LINE
8
PANEL
10
10.9
20
37.8
30
0
11
9.8
21
37.8
31
0
0
LINE
8
PANEL
10
9.8
20
37.8
30
0
11
9.8
21
35.6
31
0
0
LINE
8
PANEL
10
11.1
20
35.6
30
0
11
12.2
21
35.6
31
0
0
LINE
8
PANEL
10
12.2
20
35.6
30
0
11
12.2
21
37.8
31
0
0
LINE
8
PANEL
10
12.2
20
37.8
30
0
11
11.1
21
37.8
31
0
0
LINE
8
PANEL
10
11.1
20
37.8
30
0
11
11.1
21
35.6
31
0
0
LINE
8
PANEL
10
12.4
20
35.6
30
0
11
13.5
21
35.6
31
0
0
LINE
8
PANEL
10
13.5
20
35.6
30
0
11
13.5
21
37.8
31
0
0
LINE
8
PANEL
10
13.5
20
37.8
30
0
11
12.4
21
37.8
31
0
0
LINE
8
PANEL
10
12.4
20
37.8
30
0
11
12.4
21
35.6
31
0
0
LINE
8
PANEL
10
13.7
20
35.6
30
0
11
14.8
21
35.6
31
0
0
LINE
8
PANEL
10
14.8
20
35.6
30
0
11
14.8
21
37.8
31
0
0
LINE
8
PANEL
10
14.8
20
37.8
30
0
11
13.7
21
37.8
31
0
0
LINE
8
PANEL
10
13.7
20
37.8
30
0
11
13.7
21
35.6
31
0
0
LINE
8
PANEL
10
15
20
35.6
30
0
11
16.1
21
35.6
31
0
0
LINE
8
PANEL
10
16.1
20
35.6
30
0
11
16.1
21
37.8
31
0
0
LINE
8
PANEL
10
16.1
20
37.8
30
0
11
15
21
37.8
31
0
0
LINE
8
PANEL
10
15
20
37.8
30
0
11
15
21
35.6
31
0
0
LINE
8
PANEL
10
16.3
20
35.6
30
0
11
17.4
21
35.6
31
0
0
LINE
8
PANEL
10
17.4
20
35.6
30
0
11
17.4
21
37.8
31
0
0
LINE
8
PANEL
10
17.4
20
37.8
30
0
11
16.3
21
37.8
31
0
0
LINE
8
PANEL
10
16.3
20
37.8
30
0
11
16.3
21
35.6
31
0
0
LINE
8
PANEL
10
17.6
20
35.6
30
0
11
18.7
21
35.6
31
0
0
LINE
8
PANEL
10
18.7
20
35.6
30
0
11
18.7
21
37.8
31
0
0
LINE
8
PANEL
10
18.7
20
37.8
30
0
11
17.6
21
37.8
31
0
0
LINE
8
PANEL
10
17.6
20
37.8
30
0
11
17.6
21
35.6
31
0
0
LINE
8
PANEL
10
18.9
20
35.6
30
0
11
20
21
35.6
31
0
0
LINE
8
PANEL
10
20
20
35.6
30
0
11
20
21
37.8
31
0
0
LINE
8
PANEL
10
20
20
37.8
30
0
11
18.9
21
37.8
31
0
0
LINE
8
PANEL
10
18.9
20
37.8
30
0
11
18.9
21
35.6
31
0
0
LINE
8
PANEL
10
20.2
20
35.6
30
0
11
21.3
21
35.6
31
0
0
LINE
8
PANEL
10
21.3
20
35.6
30
0
11
21.3
21
37.8
31
0
0
LINE
8
PANEL
10
21.3
20
37.8
30
0
11
20.2
21
37.8
31
0
0
LINE
8
PANEL
10
20.2
20
37.8
30
0
11
20.2
21
35.6
31
0
0
LINE
8
PANEL
10
21.5
20
35.6
30
0
11
22.6
21
35.6
31
0
0
LINE
8
PANEL
10
22.6
20
35.6
30
0
11
22.6
21
37.8
31
0
0
LINE
8
PANEL
10
22.6
20
37.8
30
0
11
21.5
21
37.8
31
0
0
LINE
8
PANEL
10
21.5
20
37.8
30
0
11
21.5
21
35.6
31
0
0
LINE
8
PANEL
10
22.8
20
35.6
30
0
11
23.9
21
35.6
31
0
0
LINE
8
PANEL
10
23.9
20
35.6
30
0
11
23.9
21
37.8
31
0
0
LINE
8
PANEL
10
23.9
20
37.8
30
0
11
22.8
21
37.8
31
0
0
LINE
8
PANEL
10
22.8
20
37.8
30
0
11
22.8
21
35.6
31
0
0
LINE
8
PANEL
10
24.1
20
35.6
30
0
11
25.2
21
35.6
31
0
0
LINE
8
PANEL
10
25.2
20
35.6
30
0
11
25.2
21
37.8
31
0
0
LINE
8
PANEL
10
25.2
20
37.8
30
0
11
24.1
21
37.8
31
0
0
LINE
8
PANEL
10
24.1
20
37.8
30
0
11
24.1
21
35.6
31
0
0
LINE
8
PANEL
10
25.4
20
35.6
30
0
11
26.5
21
35.6
31
0
0
LINE
8
PANEL
10
26.5
20
35.6
30
0
11
26.5
21
37.8
31
0
0
LINE
8
PANEL
10
26.5
20
37.8
30
0
11
25.4
21
37.8
31
0
0
LINE
8
PANEL
10
25.4
20
37.8
30
0
11
25.4
21
35.6
31
0
0
LINE
8
PANEL
10
26.7
20
35.6
30
0
11
27.8
21
35.6
31
0
0
LINE
8
PANEL
10
27.8
20
35.6
30
0
11
27.8
21
37.8
31
0
0
LINE
8
PANEL
10
27.8
20
37.8
30
0
11
26.7
21
37.8
31
0
0
LINE
8
PANEL
10
26.7
20
37.8
30
0
11
26.7
21
35.6
31
0
0
LINE
8
PANEL
10
28
20
35.6
30
0
11
29.1
21
35.6
31
0
0
LINE
8
PANEL
10
29.1
20
35.6
30
0
11
29.1
21
37.8
31
0
0
LINE
8
PANEL
10
29.1
20
37.8
30
0
11
28
21
37.8
31
0
0
LINE
8
PANEL
10
28
20
37.8
30
0
11
28
21
35.6
31
0
0
LINE
8
PANEL
10
29.3
20
35.6
30
0
11
30.4
21
35.6
31
0
0
LINE
8
PANEL
10
30.4
20
35.6
30
0
11
30.4
21
37.8
31
0
0
LINE
8
PANEL
10
30.4
20
37.8
30
0
11
29.3
21
37.8
31
0
0
LINE
8
PANEL
10
29.3
20
37.8
30
0
11
29.3
21
35.6
31
0
0
LINE
8
PANEL
10
30.6
20
35.6
30
0
11
31.7
21
35.6
31
0
0
LINE
8
PANEL
10
31.7
20
35.6
30
0
11
31.7
21
37.8
31
0
0
LINE
8
PANEL
10
31.7
20
37.8
30
0
11
30.6
21
37.8
31
0
0
LINE
8
PANEL
10
30.6
20
37.8
30
0
11
30.6
21
35.6
31
0
0
LINE
8
PANEL
10
31.9
20
35.6
30
0
11
33
21
35.6
31
0
0
LINE
8
PANEL
10
33
20
35.6
30
0
11
33
21
37.8
31
0
0
LINE
8
PANEL
10
33
20
37.8
30
0
11
31.9
21
37.8
31
0
0
LINE
8
PANEL
10
31.9
20
37.8
30
0
11
31.9
21
35.6
31
0
0
LINE
8
PANEL
10
33.2
20
35.6
30
0
11
34.3
21
35.6
31
0
0
LINE
8
PANEL
10
34.3
20
35.6
30
0
11
34.3
21
37.8
31
0
0
LINE
8
PANEL
10
34.3
20
37.8
30
0
11
33.2
21
37.8
31
0
0
LINE
8
PANEL
10
33.2
20
37.8
30
0
11
33.2
21
35.6
31
0
0
LINE
8
PANEL
10
34.5
20
35.6
30
0
11
35.6
21
35.6
31
0
0
LINE
8
PANEL
10
35.6
20
35.6
30
0
11
35.6
21
37.8
31
0
0
LINE
8
PANEL
10
35.6
20
37.8
30
0
11
34.5
21
37.8
31
0
0
LINE
8
PANEL
10
34.5
20
37.8
30
0
11
34.5
21
35.6
31
0
0
LINE
8
PANEL
10
35.8
20
35.6
30
0
11
36.9
21
35.6
31
0
0
LINE
8
PANEL
10
36.9
20
35.6
30
0
11
36.9
21
37.8
31
0
0
LINE
8
PANEL
10
36.9
20
37.8
30
0
11
35.8
21
37.8
31
0
0
LINE
8
PANEL
10
35.8
20
37.8
30
0
11
35.8
21
35.6
31
0
0
LINE
8
PANEL
10
37.1
20
35.6
30
0
11
38.2
21
35.6
31
0
0
LINE
8
PANEL
10
38.2
20
35.6
30
0
11
38.2
21
37.8
31
0
0
LINE
8
PANEL
10
38.2
20
37.8
30
0
11
37.1
21
37.8
31
0
0
LINE
8
PANEL
10
37.1
20
37.8
30
0
11
37.1
21
35.6
31
0
0
LINE
8
PANEL
10
38.4
20
35.6
30
0
11
39.5
21
35.6
31
0
0
LINE
8
PANEL
10
39.5
20
35.6
30
0
11
39.5
21
37.8
31
0
0
LINE
8
PANEL
10
39.5
20
37.8
30
0
11
38.4
21
37.8
31
0
0
LINE
8
PANEL
10
38.4
20
37.8
30
0
11
38.4
21
35.6
31
0
0
LINE
8
PANEL
10
39.7
20
35.6
30
0
11
40.8
21
35.6
31
0
0
LINE
8
PANEL
10
40.8
20
35.6
30
0
11
40.8
21
37.8
31
0
0
LINE
8
PANEL
10
40.8
20
37.8
30
0
11
39.7
21
37.8
31
0
0
LINE
8
PANEL
10
39.7
20
37.8
30
0
11
39.7
21
35.6
31
0
0
LINE
8
PANEL
10
41
20
35.6
30
0
11
42.1
21
35.6
31
0
0
LINE
8
PANEL
10
42.1
20
35.6
30
0
11
42.1
21
37.8
31
0
0
LINE
8
PANEL
10
42.1
20
37.8
30
0
11
41
21
37.8
31
0
0
LINE
8
PANEL
10
41
20
37.8
30
0
11
41
21
35.6
31
0
0
LINE
8
PANEL
10
42.3
20
35.6
30
0
11
43.4
21
35.6
31
0
0
LINE
8
PANEL
10
43.4
20
35.6
30
0
11
43.4
21
37.8
31
0
0
LINE
8
PANEL
10
43.4
20
37.8
30
0
11
42.3
21
37.8
31
0
0
LINE
8
PANEL
10
42.3
20
37.8
30
0
11
42.3
21
35.6
31
0
0
LINE
8
PANEL
10
43.6
20
35.6
30
0
11
44.7
21
35.6
31
0
0
LINE
8
PANEL
10
44.7
20
35.6
30
0
11
44.7
21
37.8
31
0
0
LINE
8
PANEL
10
44.7
20
37.8
30
0
11
43.6
21
37.8
31
0
0
LINE
8
PANEL
10
43.6
20
37.8
30
0
11
43.6
21
35.6
31
0
0
LINE
8
PANEL
10
44.9
20
35.6
30
0
11
46
21
35.6
31
0
0
LINE
8
PANEL
10
46
20
35.6
30
0
11
46
21
37.8
31
0
0
LINE
8
PANEL
10
46
20
37.8
30
0
11
44.9
21
37.8
31
0
0
LINE
8
PANEL
10
44.9
20
37.8
30
0
11
44.9
21
35.6
31
0
0
LINE
8
PANEL
10
46.2
20
35.6
30
0
11
47.3
21
35.6
31
0
0
LINE
8
PANEL
10
47.3
20
35.6
30
0
11
47.3
21
37.8
31
0
0
LINE
8
PANEL
10
47.3
20
37.8
30
0
11
46.2
21
37.8
31
0
0
LINE
8
PANEL
10
46.2
20
37.8
30
0
11
46.2
21
35.6
31
0
0
LINE
8
PANEL
10
47.5
20
35.6
30
0
11
48.6
21
35.6
31
0
0
LINE
8
PANEL
10
48.6
20
35.6
30
0
11
48.6
21
37.8
31
0
0
LINE
8
PANEL
10
48.6
20
37.8
30
0
11
47.5
21
37.8
31
0
0
LINE
8
PANEL
10
47.5
20
37.8
30
0
11
47.5
21
35.6
31
0
0
LINE
8
PANEL
10
48.8
20
35.6
30
0
11
49.9
21
35.6
31
0
0
LINE
8
PANEL
10
49.9
20
35.6
30
0
11
49.9
21
37.8
31
0
0
LINE
8
PANEL
10
49.9
20
37.8
30
0
11
48.8
21
37.8
31
0
0
LINE
8
PANEL
10
48.8
20
37.8
30
0
11
48.8
21
35.6
31
0
0
LINE
8
PANEL
10
50.1
20
35.6
30
0
11
51.2
21
35.6
31
0
0
LINE
8
PANEL
10
51.2
20
35.6
30
0
11
51.2
21
37.8
31
0
0
LINE
8
PANEL
10
51.2
20
37.8
30
0
11
50.1
21
37.8
31
0
0
LINE
8
PANEL
10
50.1
20
37.8
30
0
11
50.1
21
35.6
31
0
0
LINE
8
PANEL
10
51.4
20
35.6
30
0
11
52.5
21
35.6
31
0
0
LINE
8
PANEL
10
52.5
20
35.6
30
0
11
52.5
21
37.8
31
0
0
LINE
8
PANEL
10
52.5
20
37.8
30
0
11
51.4
21
37.8
31
0
0
LINE
8
PANEL
10
51.4
20
37.8
30
0
11
51.4
21
35.6
31
0
0
LINE
8
PANEL
10
52.7
20
35.6
30
0
11
53.8
21
35.6
31
0
0
LINE
8
PANEL
10
53.8
20
35.6
30
0
11
53.8
21
37.8
31
0
0
LINE
8
PANEL
10
53.8
20
37.8
30
0
11
52.7
21
37.8
31
0
0
LINE
8
PANEL
10
52.7
20
37.8
30
0
11
52.7
21
35.6
31
0
0
LINE
8
PANEL
10
54
20
35.6
30
0
11
55.1
21
35.6
31
0
0
LINE
8
PANEL
10
55.1
20
35.6
30
0
11
55.1
21
37.8
31
0
0
LINE
8
PANEL
10
55.1
20
37.8
30
0
11
54
21
37.8
31
0
0
LINE
8
PANEL
10
54
20
37.8
30
0
11
54
21
35.6
31
0
0
LINE
8
PANEL
10
55.3
20
35.6
30
0
11
56.4
21
35.6
31
0
0
LINE
8
PANEL
10
56.4
20
35.6
30
0
11
56.4
21
37.8
31
0
0
LINE
8
PANEL
10
56.4
20
37.8
30
0
11
55.3
21
37.8
31
0
0
LINE
8
PANEL
10
55.3
20
37.8
30
0
11
55.3
21
35.6
31
0
0
LINE
8
PANEL
10
56.6
20
35.6
30
0
11
57.7
21
35.6
31
0
0
LINE
8
PANEL
10
57.7
20
35.6
30
0
11
57.7
21
37.8
31
0
0
LINE
8
PANEL
10
57.7
20
37.8
30
0
11
56.6
21
37.8
31
0
0
LINE
8
PANEL
10
56.6
20
37.8
30
0
11
56.6
21
35.6
31
0
0
LINE
8
PANEL
10
57.9
20
35.6
30
0
11
59
21
35.6
31
0
0
LINE
8
PANEL
10
59
20
35.6
30
0
11
59
21
37.8
31
0
0
LINE
8
PANEL
10
59
20
37.8
30
0
11
57.9
21
37.8
31
0
0
LINE
8
PANEL
10
57.9
20
37.8
30
0
11
57.9
21
35.6
31
0
0
LINE
8
PANEL
10
59.2
20
35.6
30
0
11
60.3
21
35.6
31
0
0
LINE
8
PANEL
10
60.3
20
35.6
30
0
11
60.3
21
37.8
31
0
0
LINE
8
PANEL
10
60.3
20
37.8
30
0
11
59.2
21
37.8
31
0
0
LINE
8
PANEL
10
59.2
20
37.8
30
0
11
59.2
21
35.6
31
0
0
LINE
8
PANEL
10
60.5
20
35.6
30
0
11
61.6
21
35.6
31
0
0
LINE
8
PANEL
10
61.6
20
35.6
30
0
11
61.6
21
37.8
31
0
0
LINE
8
PANEL
10
61.6
20
37.8
30
0
11
60.5
21
37.8
31
0
0
LINE
8
PANEL
10
60.5
20
37.8
30
0
11
60.5
21
35.6
31
0
0
LINE
8
PANEL
10
61.8
20
35.6
30
0
11
62.9
21
35.6
31
0
0
LINE
8
PANEL
10
62.9
20
35.6
30
0
11
62.9
21
37.8
31
0
0
LINE
8
PANEL
10
62.9
20
37.8
30
0
11
61.8
21
37.8
31
0
0
LINE
8
PANEL
10
61.8
20
37.8
30
0
11
61.8
21
35.6
31
0
0
LINE
8
PANEL
10
63.1
20
35.6
30
0
11
64.2
21
35.6
31
0
0
LINE
8
PANEL
10
64.2
20
35.6
30
0
11
64.2
21
37.8
31
0
0
LINE
8
PANEL
10
64.2
20
37.8
30
0
11
63.1
21
37.8
31
0
0
LINE
8
PANEL
10
63.1
20
37.8
30
0
11
63.1
21
35.6
31
0
0
LINE
8
PANEL
10
64.4
20
35.6
30
0
11
65.5
21
35.6
31
0
0
LINE
8
PANEL
10
65.5
20
35.6
30
0
11
65.5
21
37.8
31
0
0
LINE
8
PANEL
10
65.5
20
37.8
30
0
11
64.4
21
37.8
31
0
0
LINE
8
PANEL
10
64.4
20
37.8
30
0
11
64.4
21
35.6
31
0
0
LINE
8
PANEL
10
65.7
20
35.6
30
0
11
66.8
21
35.6
31
0
0
LINE
8
PANEL
10
66.8
20
35.6
30
0
11
66.8
21
37.8
31
0
0
LINE
8
PANEL
10
66.8
20
37.8
30
0
11
65.7
21
37.8
31
0
0
LINE
8
PANEL
10
65.7
20
37.8
30
0
11
65.7
21
35.6
31
0
0
LINE
8
PANEL
10
67
20
35.6
30
0
11
68.1
21
35.6
31
0
0
LINE
8
PANEL
10
68.1
20
35.6
30
0
11
68.1
21
37.8
31
0
0
LINE
8
PANEL
10
68.1
20
37.8
30
0
11
67
21
37.8
31
0
0
LINE
8
PANEL
10
67
20
37.8
30
0
11
67
21
35.6
31
0
0
LINE
8
PANEL
10
68.3
20
35.6
30
0
11
69.4
21
35.6
31
0
0
LINE
8
PANEL
10
69.4
20
35.6
30
0
11
69.4
21
37.8
31
0
0
LINE
8
PANEL
10
69.4
20
37.8
30
0
11
68.3
21
37.8
31
0
0
LINE
8
PANEL
10
68.3
20
37.8
30
0
11
68.3
21
35.6
31
0
0
LINE
8
PANEL
10
69.6
20
35.6
30
0
11
70.7
21
35.6
31
0
0
LINE
8
PANEL
10
70.7
20
35.6
30
0
11
70.7
21
37.8
31
0
0
LINE
8
PANEL
10
70.7
20
37.8
30
0
11
69.6
21
37.8
31
0
0
LINE
8
PANEL
10
69.6
20
37.8
30
0
11
69.6
21
35.6
31
0
0
LINE
8
PANEL
10
70.9
20
35.6
30
0
11
72
21
35.6
31
0
0
LINE
8
PANEL
10
72
20
35.6
30
0
11
72
21
37.8
31
0
0
LINE
8
PANEL
10
72
20
37.8
30
0
11
70.9
21
37.8
31
0
0
LINE
8
PANEL
10
70.9
20
37.8
30
0
11
70.9
21
35.6
31
0
0
LINE
8
PANEL
10
72.2
20
35.6
30
0
11
73.3
21
35.6
31
0
0
LINE
8
PANEL
10
73.3
20
35.6
30
0
11
73.3
21
37.8
31
0
0
LINE
8
PANEL
10
73.3
20
37.8
30
0
11
72.2
21
37.8
31
0
0
LINE
8
PANEL
10
72.2
20
37.8
30
0
11
72.2
21
35.6
31
0
0
LINE
8
PANEL
10
73.5
20
35.6
30
0
11
74.6
21
35.6
31
0
0
LINE
8
PANEL
10
74.6
20
35.6
30
0
11
74.6
21
37.8
31
0
0
LINE
8
PANEL
10
74.6
20
37.8
30
0
11
73.5
21
37.8
31
0
0
LINE
8
PANEL
10
73.5
20
37.8
30
0
11
73.5
21
35.6
31
0
0
LINE
8
PANEL
10
74.8
20
35.6
30
0
11
75.9
21
35.6
31
0
0
LINE
8
PANEL
10
75.9
20
35.6
30
0
11
75.9
21
37.8
31
0
0
LINE
8
PANEL
10
75.9
20
37.8
30
0
11
74.8
21
37.8
31
0
0
LINE
8
PANEL
10
74.8
20
37.8
30
0
11
74.8
21
35.6
31
0
0
LINE
8
PANEL
10
76.1
20
35.6
30
0
11
77.2
21
35.6
31
0
0
LINE
8
PANEL
10
77.2
20
35.6
30
0
11
77.2
21
37.8
31
0
0
LINE
8
PANEL
10
77.2
20
37.8
30
0
11
76.1
21
37.8
31
0
0
LINE
8
PANEL
10
76.1
20
37.8
30
0
11
76.1
21
35.6
31
0
0
LINE
8
PANEL
10
2
20
38.4
30
0
11
3.1
21
38.4
31
0
0
LINE
8
PANEL
10
3.1
20
38.4
30
0
11
3.1
21
40.6
31
0
0
LINE
8
PANEL
10
3.1
20
40.6
30
0
11
2
21
40.6
31
0
0
LINE
8
PANEL
10
2
20
40.6
30
0
11
2
21
38.4
31
0
0
LINE
8
PANEL
10
3.3
20
38.4
30
0
11
4.4
21
38.4
31
0
0
LINE
8
PANEL
10
4.4
20
38.4
30
0
11
4.4
21
40.6
31
0
0
LINE
8
PANEL
10
4.4
20
40.6
30
0
11
3.3
21
40.6
31
0
0
LINE
8
PANEL
10
3.3
20
40.6
30
0
11
3.3
21
38.4
31
0
0
LINE
8
PANEL
10
4.6
20
38.4
30
0
11
5.7
21
38.4
31
0
0
LINE
8
PANEL
10
5.7
20
38.4
30
0
11
5.7
21
40.6
31
0
0
LINE
8
PANEL
10
5.7
20
40.6
30
0
11
4.6
21
40.6
31
0
0
LINE
8
PANEL
10
4.6
20
40.6
30
0
11
4.6
21
38.4
31
0
0
LINE
8
PANEL
10
5.9
20
38.4
30
0
11
7
21
38.4
31
0
0
LINE
8
PANEL
10
7
20
38.4
30
0
11
7
21
40.6
31
0
0
LINE
8
PANEL
10
7
20
40.6
30
0
11
5.9
21
40.6
31
0
0
LINE
8
PANEL
10
5.9
20
40.6
30
0
11
5.9
21
38.4
31
0
0
LINE
8
PANEL
10
7.2
20
38.4
30
0
11
8.3
21
38.4
31
0
0
LINE
8
PANEL
10
8.3
20
38.4
30
0
11
8.3
21
40.6
31
0
0
LINE
8
PANEL
10
8.3
20
40.6
30
0
11
7.2
21
40.6
31
0
0
LINE
8
PANEL
10
7.2
20
40.6
30
0
11
7.2
21
38.4
31
0
0
LINE
8
PANEL
10
8.5
20
38.4
30
0
11
9.6
21
38.4
31
0
0
LINE
8
PANEL
10
9.6
20
38.4
30
0
11
9.6
21
40.6
31
0
0
LINE
8
PANEL
10
9.6
20
40.6
30
0
11
8.5
21
40.6
31
0
0
LINE
8
PANEL
10
8.5
20
40.6
30
0
11
8.5
21
38.4
31
0
0
LINE
8
PANEL
10
9.8
20
38.4
30
0
11
10.9
21
38.4
31
0
0
LINE
8
PANEL
10
10.9
20
38.4
30
0
11
10.9
21
40.6
31
0
0
LINE
8
PANEL
10
10.9
20
40.6
30
0
11
9.8
21
40.6
31
0
0
LINE
8
PANEL
10
9.8
20
40.6
30
0
11
9.8
21
38.4
31
0
0
LINE
8
PANEL
10
11.1
20
38.4
30
0
11
12.2
21
38.4
31
0
0
LINE
8
PANEL
10
12.2
20
38.4
30
0
11
12.2
21
40.6
31
0
0
LINE
8
PANEL
10
12.2
20
40.6
30
0
11
11.1
21
40.6
31
0
0
LINE
8
PANEL
10
11.1
20
40.6
30
0
11
11.1
21
38.4
31
0
0
LINE
8
PANEL
10
12.4
20
38.4
30
0
11
13.5
21
38.4
31
0
0
LINE
8
PANEL
10
13.5
20
38.4
30
0
11
13.5
21
40.6
31
0
0
LINE
8
PANEL
10
13.5
20
40.6
30
0
11
12.4
21
40.6
31
0
0
LINE
8
PANEL
10
12.4
20
40.6
30
0
11
12.4
21
38.4
31
0
0
LINE
8
PANEL
10
13.7
20
38.4
30
0
11
14.8
21
38.4
31
0
0
LINE
8
PANEL
10
14.8
20
38.4
30
0
11
14.8
21
40.6
31
0
0
LINE
8
PANEL
10
14.8
20
40.6
30
0
11
13.7
21
40.6
31
0
0
LINE
8
PANEL
10
13.7
20
40.6
30
0
11
13.7
21
38.4
31
0
0
LINE
8
PANEL
10
15
20
38.4
30
0
11
16.1
21
38.4
31
0
0
LINE
8
PANEL
10
16.1
20
38.4
30
0
11
16.1
21
40.6
31
0
0
LINE
8
PANEL
10
16.1
20
40.6
30
0
11
15
21
40.6
31
0
0
LINE
8
PANEL
10
15
20
40.6
30
0
11
15
21
38.4
31
0
0
LINE
8
PANEL
10
16.3
20
38.4
30
0
11
17.4
21
38.4
31
0
0
LINE
8
PANEL
10
17.4
20
38.4
30
0
11
17.4
21
40.6
31
0
0
LINE
8
PANEL
10
17.4
20
40.6
30
0
11
16.3
21
40.6
31
0
0
LINE
8
PANEL
10
16.3
20
40.6
30
0
11
16.3
21
38.4
31
0
0
LINE
8
PANEL
10
17.6
20
38.4
30
0
11
18.7
21
38.4
31
0
0
LINE
8
PANEL
10
18.7
20
38.4
30
0
11
18.7
21
40.6
31
0
0
LINE
8
PANEL
10
18.7
20
40.6
30
0
11
17.6
21
40.6
31
0
0
LINE
8
PANEL
10
17.6
20
40.6
30
0
11
17.6
21
38.4
31
0
0
LINE
8
PANEL
10
18.9
20
38.4
30
0
11
20
21
38.4
31
0
0
LINE
8
PANEL
10
20
20
38.4
30
0
11
20
21
40.6
31
0
0
LINE
8
PANEL
10
20
20
40.6
30
0
11
18.9
21
40.6
31
0
0
LINE
8
PANEL
10
18.9
20
40.6
30
0
11
18.9
21
38.4
31
0
0
LINE
8
PANEL
10
20.2
20
38.4
30
0
11
21.3
21
38.4
31
0
0
LINE
8
PANEL
10
21.3
20
38.4
30
0
11
21.3
21
40.6
31
0
0
LINE
8
PANEL
10
21.3
20
40.6
30
0
11
20.2
21
40.6
31
0
0
LINE
8
PANEL
10
20.2
20
40.6
30
0
11
20.2
21
38.4
31
0
0
LINE
8
PANEL
10
21.5
20
38.4
30
0
11
22.6
21
38.4
31
0
0
LINE
8
PANEL
10
22.6
20
38.4
30
0
11
22.6
21
40.6
31
0
0
LINE
8
PANEL
10
22.6
20
40.6
30
0
11
21.5
21
40.6
31
0
0
LINE
8
PANEL
10
21.5
20
40.6
30
0
11
21.5
21
38.4
31
0
0
LINE
8
PANEL
10
22.8
20
38.4
30
0
11
23.9
21
38.4
31
0
0
LINE
8
PANEL
10
23.9
20
38.4
30
0
11
23.9
21
40.6
31
0
0
LINE
8
PANEL
10
23.9
20
40.6
30
0
11
22.8
21
40.6
31
0
0
LINE
8
PANEL
10
22.8
20
40.6
30
0
11
22.8
21
38.4
31
0
0
LINE
8
PANEL
10
24.1
20
38.4
30
0
11
25.2
21
38.4
31
0
0
LINE
8
PANEL
10
25.2
20
38.4
30
0
11
25.2
21
40.6
31
0
0
LINE
8
PANEL
10
25.2
20
40.6
30
0
11
24.1
21
40.6
31
0
0
LINE
8
PANEL
10
24.1
20
40.6
30
0
11
24.1
21
38.4
31
0
0
LINE
8
PANEL
10
25.4
20
38.4
30
0
11
26.5
21
38.4
31
0
0
LINE
8
PANEL
10
26.5
20
38.4
30
0
11
26.5
21
40.6
31
0
0
LINE
8
PANEL
10
26.5
20
40.6
30
0
11
25.4
21
40.6
31
0
0
LINE
8
PANEL
10
25.4
20
40.6
30
0
11
25.4
21
38.4
31
0
0
LINE
8
PANEL
10
26.7
20
38.4
30
0
11
27.8
21
38.4
31
0
0
LINE
8
PANEL
10
27.8
20
38.4
30
0
11
27.8
21
40.6
31
0
0
LINE
8
PANEL
10
27.8
20
40.6
30
0
11
26.7
21
40.6
31
0
0
LINE
8
PANEL
10
26.7
20
40.6
30
0
11
26.7
21
38.4
31
0
0
LINE
8
PANEL
10
28
20
38.4
30
0
11
29.1
21
38.4
31
0
0
LINE
8
PANEL
10
29.1
20
38.4
30
0
11
29.1
21
40.6
31
0
0
LINE
8
PANEL
10
29.1
20
40.6
30
0
11
28
21
40.6
31
0
0
LINE
8
PANEL
10
28
20
40.6
30
0
11
28
21
38.4
31
0
0
LINE
8
PANEL
10
29.3
20
38.4
30
0
11
30.4
21
38.4
31
0
0
LINE
8
PANEL
10
30.4
20
38.4
30
0
11
30.4
21
40.6
31
0
0
LINE
8
PANEL
10
30.4
20
40.6
30
0
11
29.3
21
40.6
31
0
0
LINE
8
PANEL
10
29.3
20
40.6
30
0
11
29.3
21
38.4
31
0
0
LINE
8
PANEL
10
30.6
20
38.4
30
0
11
31.7
21
38.4
31
0
0
LINE
8
PANEL
10
31.7
20
38.4
30
0
11
31.7
21
40.6
31
0
0
LINE
8
PANEL
10
31.7
20
40.6
30
0
11
30.6
21
40.6
31
0
0
LINE
8
PANEL
10
30.6
20
40.6
30
0
11
30.6
21
38.4
31
0
0
LINE
8
PANEL
10
31.9
20
38.4
30
0
11
33
21
38.4
31
0
0
LINE
8
PANEL
10
33
20
38.4
30
0
11
33
21
40.6
31
0
0
LINE
8
PANEL
10
33
20
40.6
30
0
11
31.9
21
40.6
31
0
0
LINE
8
PANEL
10
31.9
20
40.6
30
0
11
31.9
21
38.4
31
0
0
LINE
8
PANEL
10
33.2
20
38.4
30
0
11
34.3
21
38.4
31
0
0
LINE
8
PANEL
10
34.3
20
38.4
30
0
11
34.3
21
40.6
31
0
0
LINE
8
PANEL
10
34.3
20
40.6
30
0
11
33.2
21
40.6
31
0
0
LINE
8
PANEL
10
33.2
20
40.6
30
0
11
33.2
21
38.4
31
0
0
LINE
8
PANEL
10
34.5
20
38.4
30
0
11
35.6
21
38.4
31
0
0
LINE
8
PANEL
10
35.6
20
38.4
30
0
11
35.6
21
40.6
31
0
0
LINE
8
PANEL
10
35.6
20
40.6
30
0
11
34.5
21
40.6
31
0
0
LINE
8
PANEL
10
34.5
20
40.6
30
0
11
34.5
21
38.4
31
0
0
LINE
8
PANEL
10
35.8
20
38.4
30
0
11
36.9
21
38.4
31
0
0
LINE
8
PANEL
10
36.9
20
38.4
30
0
11
36.9
21
40.6
31
0
0
LINE
8
PANEL
10
36.9
20
40.6
30
0
11
35.8
21
40.6
31
0
0
LINE
8
PANEL
10
35.8
20
40.6
30
0
11
35.8
21
38.4
31
0
0
LINE
8
PANEL
10
37.1
20
38.4
30
0
11
38.2
21
38.4
31
0
0
LINE
8
PANEL
10
38.2
20
38.4
30
0
11
38.2
21
40.6
31
0
0
LINE
8
PANEL
10
38.2
20
40.6
30
0
11
37.1
21
40.6
31
0
0
LINE
8
PANEL
10
37.1
20
40.6
30
0
11
37.1
21
38.4
31
0
0
LINE
8
PANEL
10
38.4
20
38.4
30
0
11
39.5
21
38.4
31
0
0
LINE
8
PANEL
10
39.5
20
38.4
30
0
11
39.5
21
40.6
31
0
0
LINE
8
PANEL
10
39.5
20
40.6
30
0
11
38.4
21
40.6
31
0
0
LINE
8
PANEL
10
38.4
20
40.6
30
0
11
38.4
21
38.4
31
0
0
LINE
8
PANEL
10
39.7
20
38.4
30
0
11
40.8
21
38.4
31
0
0
LINE
8
PANEL
10
40.8
20
38.4
30
0
11
40.8
21
40.6
31
0
0
LINE
8
PANEL
10
40.8
20
40.6
30
0
11
39.7
21
40.6
31
0
0
LINE
8
PANEL
10
39.7
20
40.6
30
0
11
39.7
21
38.4
31
0
0
LINE
8
PANEL
10
41
20
38.4
30
0
11
42.1
21
38.4
31
0
0
LINE
8
PANEL
10
42.1
20
38.4
30
0
11
42.1
21
40.6
31
0
0
LINE
8
PANEL
10
42.1
20
40.6
30
0
11
41
21
40.6
31
0
0
LINE
8
PANEL
10
41
20
40.6
30
0
11
41
21
38.4
31
0
0
LINE
8
PANEL
10
42.3
20
38.4
30
0
11
43.4
21
38.4
31
0
0
LINE
8
PANEL
10
43.4
20
38.4
30
0
11
43.4
21
40.6
31
0
0
LINE
8
PANEL
10
43.4
20
40.6
30
0
11
42.3
21
40.6
31
0
0
LINE
8
PANEL
10
42.3
20
40.6
30
0
11
42.3
21
38.4
31
0
0
LINE
8
PANEL
10
43.6
20
38.4
30
0
11
44.7
21
38.4
31
0
0
LINE
8
PANEL
10
44.7
20
38.4
30
0
11
44.7
21
40.6
31
0
0
LINE
8
PANEL
10
44.7
20
40.6
30
0
11
43.6
21
40.6
31
0
0
LINE
8
PANEL
10
43.6
20
40.6
30
0
11
43.6
21
38.4
31
0
0
LINE
8
PANEL
10
44.9
20
38.4
30
0
11
46
21
38.4
31
0
0
LINE
8
PANEL
10
46
20
38.4
30
0
11
46
21
40.6
31
0
0
LINE
8
PANEL
10
46
20
40.6
30
0
11
44.9
21
40.6
31
0
0
LINE
8
PANEL
10
44.9
20
40.6
30
0
11
44.9
21
38.4
31
0
0
LINE
8
PANEL
10
46.2
20
38.4
30
0
11
47.3
21
38.4
31
0
0
LINE
8
PANEL
10
47.3
20
38.4
30
0
11
47.3
21
40.6
31
0
0
LINE
8
PANEL
10
47.3
20
40.6
30
0
11
46.2
21
40.6
31
0
0
LINE
8
PANEL
10
46.2
20
40.6
30
0
11
46.2
21
38.4
31
0
0
LINE
8
PANEL
10
47.5
20
38.4
30
0
11
48.6
21
38.4
31
0
0
LINE
8
PANEL
10
48.6
20
38.4
30
0
11
48.6
21
40.6
31
0
0
LINE
8
PANEL
10
48.6
20
40.6
30
0
11
47.5
21
40.6
31
0
0
LINE
8
PANEL
10
47.5
20
40.6
30
0
11
47.5
21
38.4
31
0
0
LINE
8
PANEL
10
48.8
20
38.4
30
0
11
49.9
21
38.4
31
0
0
LINE
8
PANEL
10
49.9
20
38.4
30
0
11
49.9
21
40.6
31
0
0
LINE
8
PANEL
10
49.9
20
40.6
30
0
11
48.8
21
40.6
31
0
0
LINE
8
PANEL
10
48.8
20
40.6
30
0
11
48.8
21
38.4
31
0
0
LINE
8
PANEL
10
50.1
20
38.4
30
0
11
51.2
21
38.4
31
0
0
LINE
8
PANEL
10
51.2
20
38.4
30
0
11
51.2
21
40.6
31
0
0
LINE
8
PANEL
10
51.2
20
40.6
30
0
11
50.1
21
40.6
31
0
0
LINE
8
PANEL
10
50.1
20
40.6
30
0
11
50.1
21
38.4
31
0
0
LINE
8
PANEL
10
51.4
20
38.4
30
0
11
52.5
21
38.4
31
0
0
LINE
8
PANEL
10
52.5
20
38.4
30
0
11
52.5
21
40.6
31
0
0
LINE
8
PANEL
10
52.5
20
40.6
30
0
11
51.4
21
40.6
31
0
0
LINE
8
PANEL
10
51.4
20
40.6
30
0
11
51.4
21
38.4
31
0
0
LINE
8
PANEL
10
52.7
20
38.4
30
0
11
53.8
21
38.4
31
0
0
LINE
8
PANEL
10
53.8
20
38.4
30
0
11
53.8
21
40.6
31
0
0
LINE
8
PANEL
10
53.8
20
40.6
30
0
11
52.7
21
40.6
31
0
0
LINE
8
PANEL
10
52.7
20
40.6
30
0
11
52.7
21
38.4
31
0
0
LINE
8
PANEL
10
54
20
38.4
30
0
11
55.1
21
38.4
31
0
0
LINE
8
PANEL
10
55.1
20
38.4
30
0
11
55.1
21
40.6
31
0
0
LINE
8
PANEL
10
55.1
20
40.6
30
0
11
54
21
40.6
31
0
0
LINE
8
PANEL
10
54
20
40.6
30
0
11
54
21
38.4
31
0
0
LINE
8
PANEL
10
55.3
20
38.4
30
0
11
56.4
21
38.4
31
0
0
LINE
8
PANEL
10
56.4
20
38.4
30
0
11
56.4
21
40.6
31
0
0
LINE
8
PANEL
10
56.4
20
40.6
30
0
11
55.3
21
40.6
31
0
0
LINE
8
PANEL
10
55.3
20
40.6
30
0
11
55.3
21
38.4
31
0
0
LINE
8
PANEL
10
56.6
20
38.4
30
0
11
57.7
21
38.4
31
0
0
LINE
8
PANEL
10
57.7
20
38.4
30
0
11
57.7
21
40.6
31
0
0
LINE
8
PANEL
10
57.7
20
40.6
30
0
11
56.6
21
40.6
31
0
0
LINE
8
PANEL
10
56.6
20
40.6
30
0
11
56.6
21
38.4
31
0
0
LINE
8
PANEL
10
57.9
20
38.4
30
0
11
59
21
38.4
31
0
0
LINE
8
PANEL
10
59
20
38.4
30
0
11
59
21
40.6
31
0
0
LINE
8
PANEL
10
59
20
40.6
30
0
11
57.9
21
40.6
31
0
0
LINE
8
PANEL
10
57.9
20
40.6
30
0
11
57.9
21
38.4
31
0
0
LINE
8
PANEL
10
59.2
20
38.4
30
0
11
60.3
21
38.4
31
0
0
LINE
8
PANEL
10
60.3
20
38.4
30
0
11
60.3
21
40.6
31
0
0
LINE
8
PANEL
10
60.3
20
40.6
30
0
11
59.2
21
40.6
31
0
0
LINE
8
PANEL
10
59.2
20
40.6
30
0
11
59.2
21
38.4
31
0
0
LINE
8
PANEL
10
60.5
20
38.4
30
0
11
61.6
21
38.4
31
0
0
LINE
8
PANEL
10
61.6
20
38.4
30
0
11
61.6
21
40.6
31
0
0
LINE
8
PANEL
10
61.6
20
40.6
30
0
11
60.5
21
40.6
31
0
0
LINE
8
PANEL
10
60.5
20
40.6
30
0
11
60.5
21
38.4
31
0
0
LINE
8
PANEL
10
61.8
20
38.4
30
0
11
62.9
21
38.4
31
0
0
LINE
8
PANEL
10
62.9
20
38.4
30
0
11
62.9
21
40.6
31
0
0
LINE
8
PANEL
10
62.9
20
40.6
30
0
11
61.8
21
40.6
31
0
0
LINE
8
PANEL
10
61.8
20
40.6
30
0
11
61.8
21
38.4
31
0
0
LINE
8
PANEL
10
63.1
20
38.4
30
0
11
64.2
21
38.4
31
0
0
LINE
8
PANEL
10
64.2
20
38.4
30
0
11
64.2
21
40.6
31
0
0
LINE
8
PANEL
10
64.2
20
40.6
30
0
11
63.1
21
40.6
31
0
0
LINE
8
PANEL
10
63.1
20
40.6
30
0
11
63.1
21
38.4
31
0
0
LINE
8
PANEL
10
64.4
20
38.4
30
0
11
65.5
21
38.4
31
0
0
LINE
8
PANEL
10
65.5
20
38.4
30
0
11
65.5
21
40.6
31
0
0
LINE
8
PANEL
10
65.5
20
40.6
30
0
11
64.4
21
40.6
31
0
0
LINE
8
PANEL
10
64.4
20
40.6
30
0
11
64.4
21
38.4
31
0
0
LINE
8
PANEL
10
65.7
20
38.4
30
0
11
66.8
21
38.4
31
0
0
LINE
8
PANEL
10
66.8
20
38.4
30
0
11
66.8
21
40.6
31
0
0
LINE
8
PANEL
10
66.8
20
40.6
30
0
11
65.7
21
40.6
31
0
0
LINE
8
PANEL
10
65.7
20
40.6
30
0
11
65.7
21
38.4
31
0
0
LINE
8
PANEL
10
67
20
38.4
30
0
11
68.1
21
38.4
31
0
0
LINE
8
PANEL
10
68.1
20
38.4
30
0
11
68.1
21
40.6
31
0
0
LINE
8
PANEL
10
68.1
20
40.6
30
0
11
67
21
40.6
31
0
0
LINE
8
PANEL
10
67
20
40.6
30
0
11
67
21
38.4
31
0
0
LINE
8
PANEL
10
68.3
20
38.4
30
0
11
69.4
21
38.4
31
0
0
LINE
8
PANEL
10
69.4
20
38.4
30
0
11
69.4
21
40.6
31
0
0
LINE
8
PANEL
10
69.4
20
40.6
30
0
11
68.3
21
40.6
31
0
0
LINE
8
PANEL
10
68.3
20
40.6
30
0
11
68.3
21
38.4
31
0
0
LINE
8
PANEL
10
69.6
20
38.4
30
0
11
70.7
21
38.4
31
0
0
LINE
8
PANEL
10
70.7
20
38.4
30
0
11
70.7
21
40.6
31
0
0
LINE
8
PANEL
10
70.7
20
40.6
30
0
11
69.6
21
40.6
31
0
0
LINE
8
PANEL
10
69.6
20
40.6
30
0
11
69.6
21
38.4
31
0
0
LINE
8
PANEL
10
70.9
20
38.4
30
0
11
72
21
38.4
31
0
0
LINE
8
PANEL
10
72
20
38.4
30
0
11
72
21
40.6
31
0
0
LINE
8
PANEL
10
72
20
40.6
30
0
11
70.9
21
40.6
31
0
0
LINE
8
PANEL
10
70.9
20
40.6
30
0
11
70.9
21
38.4
31
0
0
LINE
8
PANEL
10
72.2
20
38.4
30
0
11
73.3
21
38.4
31
0
0
LINE
8
PANEL
10
73.3
20
38.4
30
0
11
73.3
21
40.6
31
0
0
LINE
8
PANEL
10
73.3
20
40.6
30
0
11
72.2
21
40.6
31
0
0
LINE
8
PANEL
10
72.2
20
40.6
30
0
11
72.2
21
38.4
31
0
0
LINE
8
PANEL
10
73.5
20
38.4
30
0
11
74.6
21
38.4
31
0
0
LINE
8
PANEL
10
74.6
20
38.4
30
0
11
74.6
21
40.6
31
0
0
LINE
8
PANEL
10
74.6
20
40.6
30
0
11
73.5
21
40.6
31
0
0
LINE
8
PANEL
10
73.5
20
40.6
30
0
11
73.5
21
38.4
31
0
0
LINE
8
PANEL
10
74.8
20
38.4
30
0
11
75.9
21
38.4
31
0
0
LINE
8
PANEL
10
75.9
20
38.4
30
0
11
75.9
21
40.6
31
0
0
LINE
8
PANEL
10
75.9
20
40.6
30
0
11
74.8
21
40.6
31
0
0
LINE
8
PANEL
10
74.8
20
40.6
30
0
11
74.8
21
38.4
31
0
0
LINE
8
PANEL
10
76.1
20
38.4
30
0
11
77.2
21
38.4
31
0
0
LINE
8
PANEL
10
77.2
20
38.4
30
0
11
77.2
21
40.6
31
0
0
LINE
8
PANEL
10
77.2
20
40.6
30
0
11
76.1
21
40.6
31
0
0
LINE
8
PANEL
10
76.1
20
40.6
30
0
11
76.1
21
38.4
31
0
0
LINE
8
PANEL
10
2
20
41.2
30
0
11
3.1
21
41.2
31
0
0
LINE
8
PANEL
10
3.1
20
41.2
30
0
11
3.1
21
43.4
31
0
0
LINE
8
PANEL
10
3.1
20
43.4
30
0
11
2
21
43.4
31
0
0
LINE
8
PANEL
10
2
20
43.4
30
0
11
2
21
41.2
31
0
0
LINE
8
PANEL
10
3.3
20
41.2
30
0
11
4.4
21
41.2
31
0
0
LINE
8
PANEL
10
4.4
20
41.2
30
0
11
4.4
21
43.4
31
0
0
LINE
8
PANEL
10
4.4
20
43.4
30
0
11
3.3
21
43.4
31
0
0
LINE
8
PANEL
10
3.3
20
43.4
30
0
11
3.3
21
41.2
31
0
0
LINE
8
PANEL
10
4.6
20
41.2
30
0
11
5.7
21
41.2
31
0
0
LINE
8
PANEL
10
5.7
20
41.2
30
0
11
5.7
21
43.4
31
0
0
LINE
8
PANEL
10
5.7
20
43.4
30
0
11
4.6
21
43.4
31
0
0
LINE
8
PANEL
10
4.6
20
43.4
30
0
11
4.6
21
41.2
31
0
0
LINE
8
PANEL
10
5.9
20
41.2
30
0
11
7
21
41.2
31
0
0
LINE
8
PANEL
10
7
20
41.2
30
0
11
7
21
43.4
31
0
0
LINE
8
PANEL
10
7
20
43.4
30
0
11
5.9
21
43.4
31
0
0
LINE
8
PANEL
10
5.9
20
43.4
30
0
11
5.9
21
41.2
31
0
0
LINE
8
PANEL
10
7.2
20
41.2
30
0
11
8.3
21
41.2
31
0
0
LINE
8
PANEL
10
8.3
20
41.2
30
0
11
8.3
21
43.4
31
0
0
LINE
8
PANEL
10
8.3
20
43.4
30
0
11
7.2
21
43.4
31
0
0
LINE
8
PANEL
10
7.2
20
43.4
30
0
11
7.2
21
41.2
31
0
0
LINE
8
PANEL
10
8.5
20
41.2
30
0
11
9.6
21
41.2
31
0
0
LINE
8
PANEL
10
9.6
20
41.2
30
0
11
9.6
21
43.4
31
0
0
LINE
8
PANEL
10
9.6
20
43.4
30
0
11
8.5
21
43.4
31
0
0
LINE
8
PANEL
10
8.5
20
43.4
30
0
11
8.5
21
41.2
31
0
0
LINE
8
PANEL
10
9.8
20
41.2
30
0
11
10.9
21
41.2
31
0
0
LINE
8
PANEL
10
10.9
20
41.2
30
0
11
10.9
21
43.4
31
0
0
LINE
8
PANEL
10
10.9
20
43.4
30
0
11
9.8
21
43.4
31
0
0
LINE
8
PANEL
10
9.8
20
43.4
30
0
11
9.8
21
41.2
31
0
0
LINE
8
PANEL
10
11.1
20
41.2
30
0
11
12.2
21
41.2
31
0
0
LINE
8
PANEL
10
12.2
20
41.2
30
0
11
12.2
21
43.4
31
0
0
LINE
8
PANEL
10
12.2
20
43.4
30
0
11
11.1
21
43.4
31
0
0
LINE
8
PANEL
10
11.1
20
43.4
30
0
11
11.1
21
41.2
31
0
0
LINE
8
PANEL
10
12.4
20
41.2
30
0
11
13.5
21
41.2
31
0
0
LINE
8
PANEL
10
13.5
20
41.2
30
0
11
13.5
21
43.4
31
0
0
LINE
8
PANEL
10
13.5
20
43.4
30
0
11
12.4
21
43.4
31
0
0
LINE
8
PANEL
10
12.4
20
43.4
30
0
11
12.4
21
41.2
31
0
0
LINE
8
PANEL
10
13.7
20
41.2
30
0
11
14.8
21
41.2
31
0
0
LINE
8
PANEL
10
14.8
20
41.2
30
0
11
14.8
21
43.4
31
0
0
LINE
8
PANEL
10
14.8
20
43.4
30
0
11
13.7
21
43.4
31
0
0
LINE
8
PANEL
10
13.7
20
43.4
30
0
11
13.7
21
41.2
31
0
0
LINE
8
PANEL
10
15
20
41.2
30
0
11
16.1
21
41.2
31
0
0
LINE
8
PANEL
10
16.1
20
41.2
30
0
11
16.1
21
43.4
31
0
0
LINE
8
PANEL
10
16.1
20
43.4
30
0
11
15
21
43.4
31
0
0
LINE
8
PANEL
10
15
20
43.4
30
0
11
15
21
41.2
31
0
0
LINE
8
PANEL
10
16.3
20
41.2
30
0
11
17.4
21
41.2
31
0
0
LINE
8
PANEL
10
17.4
20
41.2
30
0
11
17.4
21
43.4
31
0
0
LINE
8
PANEL
10
17.4
20
43.4
30
0
11
16.3
21
43.4
31
0
0
LINE
8
PANEL
10
16.3
20
43.4
30
0
11
16.3
21
41.2
31
0
0
LINE
8
PANEL
10
17.6
20
41.2
30
0
11
18.7
21
41.2
31
0
0
LINE
8
PANEL
10
18.7
20
41.2
30
0
11
18.7
21
43.4
31
0
0
LINE
8
PANEL
10
18.7
20
43.4
30
0
11
17.6
21
43.4
31
0
0
LINE
8
PANEL
10
17.6
20
43.4
30
0
11
17.6
21
41.2
31
0
0
LINE
8
PANEL
10
18.9
20
41.2
30
0
11
20
21
41.2
31
0
0
LINE
8
PANEL
10
20
20
41.2
30
0
11
20
21
43.4
31
0
0
LINE
8
PANEL
10
20
20
43.4
30
0
11
18.9
21
43.4
31
0
0
LINE
8
PANEL
10
18.9
20
43.4
30
0
11
18.9
21
41.2
31
0
0
LINE
8
PANEL
10
20.2
20
41.2
30
0
11
21.3
21
41.2
31
0
0
LINE
8
PANEL
10
21.3
20
41.2
30
0
11
21.3
21
43.4
31
0
0
LINE
8
PANEL
10
21.3
20
43.4
30
0
11
20.2
21
43.4
31
0
0
LINE
8
PANEL
10
20.2
20
43.4
30
0
11
20.2
21
41.2
31
0
0
LINE
8
PANEL
10
21.5
20
41.2
30
0
11
22.6
21
41.2
31
0
0
LINE
8
PANEL
10
22.6
20
41.2
30
0
11
22.6
21
43.4
31
0
0
LINE
8
PANEL
10
22.6
20
43.4
30
0
11
21.5
21
43.4
31
0
0
LINE
8
PANEL
10
21.5
20
43.4
30
0
11
21.5
21
41.2
31
0
0
LINE
8
PANEL
10
22.8
20
41.2
30
0
11
23.9
21
41.2
31
0
0
LINE
8
PANEL
10
23.9
20
41.2
30
0
11
23.9
21
43.4
31
0
0
LINE
8
PANEL
10
23.9
20
43.4
30
0
11
22.8
21
43.4
31
0
0
LINE
8
PANEL
10
22.8
20
43.4
30
0
11
22.8
21
41.2
31
0
0
LINE
8
PANEL
10
24.1
20
41.2
30
0
11
25.2
21
41.2
31
0
0
LINE
8
PANEL
10
25.2
20
41.2
30
0
11
25.2
21
43.4
31
0
0
LINE
8
PANEL
10
25.2
20
43.4
30
0
11
24.1
21
43.4
31
0
0
LINE
8
PANEL
10
24.1
20
43.4
30
0
11
24.1
21
41.2
31
0
0
LINE
8
PANEL
10
25.4
20
41.2
30
0
11
26.5
21
41.2
31
0
0
LINE
8
PANEL
10
26.5
20
41.2
30
0
11
26.5
21
43.4
31
0
0
LINE
8
PANEL
10
26.5
20
43.4
30
0
11
25.4
21
43.4
31
0
0
LINE
8
PANEL
10
25.4
20
43.4
30
0
11
25.4
21
41.2
31
0
0
LINE
8
PANEL
10
26.7
20
41.2
30
0
11
27.8
21
41.2
31
0
0
LINE
8
PANEL
10
27.8
20
41.2
30
0
11
27.8
21
43.4
31
0
0
LINE
8
PANEL
10
27.8
20
43.4
30
0
11
26.7
21
43.4
31
0
0
LINE
8
PANEL
10
26.7
20
43.4
30
0
11
26.7
21
41.2
31
0
0
LINE
8
PANEL
10
28
20
41.2
30
0
11
29.1
21
41.2
31
0
0
LINE
8
PANEL
10
29.1
20
41.2
30
0
11
29.1
21
43.4
31
0
0
LINE
8
PANEL
10
29.1
20
43.4
30
0
11
28
21
43.4
31
0
0
LINE
8
PANEL
10
28
20
43.4
30
0
11
28
21
41.2
31
0
0
LINE
8
PANEL
10
29.3
20
41.2
30
0
11
30.4
21
41.2
31
0
0
LINE
8
PANEL
10
30.4
20
41.2
30
0
11
30.4
21
43.4
31
0
0
LINE
8
PANEL
10
30.4
20
43.4
30
0
11
29.3
21
43.4
31
0
0
LINE
8
PANEL
10
29.3
20
43.4
30
0
11
29.3
21
41.2
31
0
0
LINE
8
PANEL
10
30.6
20
41.2
30
0
11
31.7
21
41.2
31
0
0
LINE
8
PANEL
10
31.7
20
41.2
30
0
11
31.7
21
43.4
31
0
0
LINE
8
PANEL
10
31.7
20
43.4
30
0
11
30.6
21
43.4
31
0
0
LINE
8
PANEL
10
30.6
20
43.4
30
0
11
30.6
21
41.2
31
0
0
LINE
8
PANEL
10
31.9
20
41.2
30
0
11
33
21
41.2
31
0
0
LINE
8
PANEL
10
33
20
41.2
30
0
11
33
21
43.4
31
0
0
LINE
8
PANEL
10
33
20
43.4
30
0
11
31.9
21
43.4
31
0
0
LINE
8
PANEL
10
31.9
20
43.4
30
0
11
31.9
21
41.2
31
0
0
LINE
8
PANEL
10
33.2
20
41.2
30
0
11
34.3
21
41.2
31
0
0
LINE
8
PANEL
10
34.3
20
41.2
30
0
11
34.3
21
43.4
31
0
0
LINE
8
PANEL
10
34.3
20
43.4
30
0
11
33.2
21
43.4
31
0
0
LINE
8
PANEL
10
33.2
20
43.4
30
0
11
33.2
21
41.2
31
0
0
LINE
8
PANEL
10
34.5
20
41.2
30
0
11
35.6
21
41.2
31
0
0
LINE
8
PANEL
10
35.6
20
41.2
30
0
11
35.6
21
43.4
31
0
0
LINE
8
PANEL
10
35.6
20
43.4
30
0
11
34.5
21
43.4
31
0
0
LINE
8
PANEL
10
34.5
20
43.4
30
0
11
34.5
21
41.2
31
0
0
LINE
8
PANEL
10
35.8
20
41.2
30
0
11
36.9
21
41.2
31
0
0
LINE
8
PANEL
10
36.9
20
41.2
30
0
11
36.9
21
43.4
31
0
0
LINE
8
PANEL
10
36.9
20
43.4
30
0
11
35.8
21
43.4
31
0
0
LINE
8
PANEL
10
35.8
20
43.4
30
0
11
35.8
21
41.2
31
0
0
LINE
8
PANEL
10
37.1
20
41.2
30
0
11
38.2
21
41.2
31
0
0
LINE
8
PANEL
10
38.2
20
41.2
30
0
11
38.2
21
43.4
31
0
0
LINE
8
PANEL
10
38.2
20
43.4
30
0
11
37.1
21
43.4
31
0
0
LINE
8
PANEL
10
37.1
20
43.4
30
0
11
37.1
21
41.2
31
0
0
LINE
8
PANEL
10
38.4
20
41.2
30
0
11
39.5
21
41.2
31
0
0
LINE
8
PANEL
10
39.5
20
41.2
30
0
11
39.5
21
43.4
31
0
0
LINE
8
PANEL
10
39.5
20
43.4
30
0
11
38.4
21
43.4
31
0
0
LINE
8
PANEL
10
38.4
20
43.4
30
0
11
38.4
21
41.2
31
0
0
LINE
8
PANEL
10
39.7
20
41.2
30
0
11
40.8
21
41.2
31
0
0
LINE
8
PANEL
10
40.8
20
41.2
30
0
11
40.8
21
43.4
31
0
0
LINE
8
PANEL
10
40.8
20
43.4
30
0
11
39.7
21
43.4
31
0
0
LINE
8
PANEL
10
39.7
20
43.4
30
0
11
39.7
21
41.2
31
0
0
LINE
8
PANEL
10
41
20
41.2
30
0
11
42.1
21
41.2
31
0
0
LINE
8
PANEL
10
42.1
20
41.2
30
0
11
42.1
21
43.4
31
0
0
LINE
8
PANEL
10
42.1
20
43.4
30
0
11
41
21
43.4
31
0
0
LINE
8
PANEL
10
41
20
43.4
30
0
11
41
21
41.2
31
0
0
LINE
8
PANEL
10
42.3
20
41.2
30
0
11
43.4
21
41.2
31
0
0
LINE
8
PANEL
10
43.4
20
41.2
30
0
11
43.4
21
43.4
31
0
0
LINE
8
PANEL
10
43.4
20
43.4
30
0
11
42.3
21
43.4
31
0
0
LINE
8
PANEL
10
42.3
20
43.4
30
0
11
42.3
21
41.2
31
0
0
LINE
8
PANEL
10
43.6
20
41.2
30
0
11
44.7
21
41.2
31
0
0
LINE
8
PANEL
10
44.7
20
41.2
30
0
11
44.7
21
43.4
31
0
0
LINE
8
PANEL
10
44.7
20
43.4
30
0
11
43.6
21
43.4
31
0
0
LINE
8
PANEL
10
43.6
20
43.4
30
0
11
43.6
21
41.2
31
0
0
LINE
8
PANEL
10
44.9
20
41.2
30
0
11
46
21
41.2
31
0
0
LINE
8
PANEL
10
46
20
41.2
30
0
11
46
21
43.4
31
0
0
LINE
8
PANEL
10
46
20
43.4
30
0
11
44.9
21
43.4
31
0
0
LINE
8
PANEL
10
44.9
20
43.4
30
0
11
44.9
21
41.2
31
0
0
LINE
8
PANEL
10
46.2
20
41.2
30
0
11
47.3
21
41.2
31
0
0
LINE
8
PANEL
10
47.3
20
41.2
30
0
11
47.3
21
43.4
31
0
0
LINE
8
PANEL
10
47.3
20
43.4
30
0
11
46.2
21
43.4
31
0
0
LINE
8
PANEL
10
46.2
20
43.4
30
0
11
46.2
21
41.2
31
0
0
LINE
8
PANEL
10
47.5
20
41.2
30
0
11
48.6
21
41.2
31
0
0
LINE
8
PANEL
10
48.6
20
41.2
30
0
11
48.6
21
43.4
31
0
0
LINE
8
PANEL
10
48.6
20
43.4
30
0
11
47.5
21
43.4
31
0
0
LINE
8
PANEL
10
47.5
20
43.4
30
0
11
47.5
21
41.2
31
0
0
LINE
8
PANEL
10
48.8
20
41.2
30
0
11
49.9
21
41.2
31
0
0
LINE
8
PANEL
10
49.9
20
41.2
30
0
11
49.9
21
43.4
31
0
0
LINE
8
PANEL
10
49.9
20
43.4
30
0
11
48.8
21
43.4
31
0
0
LINE
8
PANEL
10
48.8
20
43.4
30
0
11
48.8
21
41.2
31
0
0
LINE
8
PANEL
10
50.1
20
41.2
30
0
11
51.2
21
41.2
31
0
0
LINE
8
PANEL
10
51.2
20
41.2
30
0
11
51.2
21
43.4
31
0
0
LINE
8
PANEL
10
51.2
20
43.4
30
0
11
50.1
21
43.4
31
0
0
LINE
8
PANEL
10
50.1
20
43.4
30
0
11
50.1
21
41.2
31
0
0
LINE
8
PANEL
10
51.4
20
41.2
30
0
11
52.5
21
41.2
31
0
0
LINE
8
PANEL
10
52.5
20
41.2
30
0
11
52.5
21
43.4
31
0
0
LINE
8
PANEL
10
52.5
20
43.4
30
0
11
51.4
21
43.4
31
0
0
LINE
8
PANEL
10
51.4
20
43.4
30
0
11
51.4
21
41.2
31
0
0
LINE
8
PANEL
10
52.7
20
41.2
30
0
11
53.8
21
41.2
31
0
0
LINE
8
PANEL
10
53.8
20
41.2
30
0
11
53.8
21
43.4
31
0
0
LINE
8
PANEL
10
53.8
20
43.4
30
0
11
52.7
21
43.4
31
0
0
LINE
8
PANEL
10
52.7
20
43.4
30
0
11
52.7
21
41.2
31
0
0
LINE
8
PANEL
10
54
20
41.2
30
0
11
55.1
21
41.2
31
0
0
LINE
8
PANEL
10
55.1
20
41.2
30
0
11
55.1
21
43.4
31
0
0
LINE
8
PANEL
10
55.1
20
43.4
30
0
11
54
21
43.4
31
0
0
LINE
8
PANEL
10
54
20
43.4
30
0
11
54
21
41.2
31
0
0
LINE
8
PANEL
10
55.3
20
41.2
30
0
11
56.4
21
41.2
31
0
0
LINE
8
PANEL
10
56.4
20
41.2
30
0
11
56.4
21
43.4
31
0
0
LINE
8
PANEL
10
56.4
20
43.4
30
0
11
55.3
21
43.4
31
0
0
LINE
8
PANEL
10
55.3
20
43.4
30
0
11
55.3
21
41.2
31
0
0
LINE
8
PANEL
10
56.6
20
41.2
30
0
11
57.7
21
41.2
31
0
0
LINE
8
PANEL
10
57.7
20
41.2
30
0
11
57.7
21
43.4
31
0
0
LINE
8
PANEL
10
57.7
20
43.4
30
0
11
56.6
21
43.4
31
0
0
LINE
8
PANEL
10
56.6
20
43.4
30
0
11
56.6
21
41.2
31
0
0
LINE
8
PANEL
10
57.9
20
41.2
30
0
11
59
21
41.2
31
0
0
LINE
8
PANEL
10
59
20
41.2
30
0
11
59
21
43.4
31
0
0
LINE
8
PANEL
10
59
20
43.4
30
0
11
57.9
21
43.4
31
0
0
LINE
8
PANEL
10
57.9
20
43.4
30
0
11
57.9
21
41.2
31
0
0
LINE
8
PANEL
10
59.2
20
41.2
30
0
11
60.3
21
41.2
31
0
0
LINE
8
PANEL
10
60.3
20
41.2
30
0
11
60.3
21
43.4
31
0
0
LINE
8
PANEL
10
60.3
20
43.4
30
0
11
59.2
21
43.4
31
0
0
LINE
8
PANEL
10
59.2
20
43.4
30
0
11
59.2
21
41.2
31
0
0
LINE
8
PANEL
10
60.5
20
41.2
30
0
11
61.6
21
41.2
31
0
0
LINE
8
PANEL
10
61.6
20
41.2
30
0
11
61.6
21
43.4
31
0
0
LINE
8
PANEL
10
61.6
20
43.4
30
0
11
60.5
21
43.4
31
0
0
LINE
8
PANEL
10
60.5
20
43.4
30
0
11
60.5
21
41.2
31
0
0
LINE
8
PANEL
10
61.8
20
41.2
30
0
11
62.9
21
41.2
31
0
0
LINE
8
PANEL
10
62.9
20
41.2
30
0
11
62.9
21
43.4
31
0
0
LINE
8
PANEL
10
62.9
20
43.4
30
0
11
61.8
21
43.4
31
0
0
LINE
8
PANEL
10
61.8
20
43.4
30
0
11
61.8
21
41.2
31
0
0
LINE
8
PANEL
10
63.1
20
41.2
30
0
11
64.2
21
41.2
31
0
0
LINE
8
PANEL
10
64.2
20
41.2
30
0
11
64.2
21
43.4
31
0
0
LINE
8
PANEL
10
64.2
20
43.4
30
0
11
63.1
21
43.4
31
0
0
LINE
8
PANEL
10
63.1
20
43.4
30
0
11
63.1
21
41.2
31
0
0
LINE
8
PANEL
10
64.4
20
41.2
30
0
11
65.5
21
41.2
31
0
0
LINE
8
PANEL
10
65.5
20
41.2
30
0
11
65.5
21
43.4
31
0
0
LINE
8
PANEL
10
65.5
20
43.4
30
0
11
64.4
21
43.4
31
0
0
LINE
8
PANEL
10
64.4
20
43.4
30
0
11
64.4
21
41.2
31
0
0
LINE
8
PANEL
10
65.7
20
41.2
30
0
11
66.8
21
41.2
31
0
0
LINE
8
PANEL
10
66.8
20
41.2
30
0
11
66.8
21
43.4
31
0
0
LINE
8
PANEL
10
66.8
20
43.4
30
0
11
65.7
21
43.4
31
0
0
LINE
8
PANEL
10
65.7
20
43.4
30
0
11
65.7
21
41.2
31
0
0
LINE
8
PANEL
10
67
20
41.2
30
0
11
68.1
21
41.2
31
0
0
LINE
8
PANEL
10
68.1
20
41.2
30
0
11
68.1
21
43.4
31
0
0
LINE
8
PANEL
10
68.1
20
43.4
30
0
11
67
21
43.4
31
0
0
LINE
8
PANEL
10
67
20
43.4
30
0
11
67
21
41.2
31
0
0
LINE
8
PANEL
10
68.3
20
41.2
30
0
11
69.4
21
41.2
31
0
0
LINE
8
PANEL
10
69.4
20
41.2
30
0
11
69.4
21
43.4
31
0
0
LINE
8
PANEL
10
69.4
20
43.4
30
0
11
68.3
21
43.4
31
0
0
LINE
8
PANEL
10
68.3
20
43.4
30
0
11
68.3
21
41.2
31
0
0
LINE
8
PANEL
10
69.6
20
41.2
30
0
11
70.7
21
41.2
31
0
0
LINE
8
PANEL
10
70.7
20
41.2
30
0
11
70.7
21
43.4
31
0
0
LINE
8
PANEL
10
70.7
20
43.4
30
0
11
69.6
21
43.4
31
0
0
LINE
8
PANEL
10
69.6
20
43.4
30
0
11
69.6
21
41.2
31
0
0
LINE
8
PANEL
10
70.9
20
41.2
30
0
11
72
21
41.2
31
0
0
LINE
8
PANEL
10
72
20
41.2
30
0
11
72
21
43.4
31
0
0
LINE
8
PANEL
10
72
20
43.4
30
0
11
70.9
21
43.4
31
0
0
LINE
8
PANEL
10
70.9
20
43.4
30
0
11
70.9
21
41.2
31
0
0
LINE
8
PANEL
10
72.2
20
41.2
30
0
11
73.3
21
41.2
31
0
0
LINE
8
PANEL
10
73.3
20
41.2
30
0
11
73.3
21
43.4
31
0
0
LINE
8
PANEL
10
73.3
20
43.4
30
0
11
72.2
21
43.4
31
0
0
LINE
8
PANEL
10
72.2
20
43.4
30
0
11
72.2
21
41.2
31
0
0
LINE
8
PANEL
10
73.5
20
41.2
30
0
11
74.6
21
41.2
31
0
0
LINE
8
PANEL
10
74.6
20
41.2
30
0
11
74.6
21
43.4
31
0
0
LINE
8
PANEL
10
74.6
20
43.4
30
0
11
73.5
21
43.4
31
0
0
LINE
8
PANEL
10
73.5
20
43.4
30
0
11
73.5
21
41.2
31
0
0
LINE
8
PANEL
10
74.8
20
41.2
30
0
11
75.9
21
41.2
31
0
0
LINE
8
PANEL
10
75.9
20
41.2
30
0
11
75.9
21
43.4
31
0
0
LINE
8
PANEL
10
75.9
20
43.4
30
0
11
74.8
21
43.4
31
0
0
LINE
8
PANEL
10
74.8
20
43.4
30
0
11
74.8
21
41.2
31
0
0
LINE
8
PANEL
10
76.1
20
41.2
30
0
11
77.2
21
41.2
31
0
0
LINE
8
PANEL
10
77.2
20
41.2
30
0
11
77.2
21
43.4
31
0
0
LINE
8
PANEL
10
77.2
20
43.4
30
0
11
76.1
21
43.4
31
0
0
LINE
8
PANEL
10
76.1
20
43.4
30
0
11
76.1
21
41.2
31
0
0
LINE
8
PANEL
10
2
20
44
30
0
11
3.1
21
44
31
0
0
LINE
8
PANEL
10
3.1
20
44
30
0
11
3.1
21
46.2
31
0
0
LINE
8
PANEL
10
3.1
20
46.2
30
0
11
2
21
46.2
31
0
0
LINE
8
PANEL
10
2
20
46.2
30
0
11
2
21
44
31
0
0
LINE
8
PANEL
10
3.3
20
44
30
0
11
4.4
21
44
31
0
0
LINE
8
PANEL
10
4.4
20
44
30
0
11
4.4
21
46.2
31
0
0
LINE
8
PANEL
10
4.4
20
46.2
30
0
11
3.3
21
46.2
31
0
0
LINE
8
PANEL
10
3.3
20
46.2
30
0
11
3.3
21
44
31
0
0
LINE
8
PANEL
10
4.6
20
44
30
0
11
5.7
21
44
31
0
0
LINE
8
PANEL
10
5.7
20
44
30
0
11
5.7
21
46.2
31
0
0
LINE
8
PANEL
10
5.7
20
46.2
30
0
11
4.6
21
46.2
31
0
0
LINE
8
PANEL
10
4.6
20
46.2
30
0
11
4.6
21
44
31
0
0
LINE
8
PANEL
10
5.9
20
44
30
0
11
7
21
44
31
0
0
LINE
8
PANEL
10
7
20
44
30
0
11
7
21
46.2
31
0
0
LINE
8
PANEL
10
7
20
46.2
30
0
11
5.9
21
46.2
31
0
0
LINE
8
PANEL
10
5.9
20
46.2
30
0
11
5.9
21
44
31
0
0
LINE
8
PANEL
10
7.2
20
44
30
0
11
8.3
21
44
31
0
0
LINE
8
PANEL
10
8.3
20
44
30
0
11
8.3
21
46.2
31
0
0
LINE
8
PANEL
10
8.3
20
46.2
30
0
11
7.2
21
46.2
31
0
0
LINE
8
PANEL
10
7.2
20
46.2
30
0
11
7.2
21
44
31
0
0
LINE
8
PANEL
10
8.5
20
44
30
0
11
9.6
21
44
31
0
0
LINE
8
PANEL
10
9.6
20
44
30
0
11
9.6
21
46.2
31
0
0
LINE
8
PANEL
10
9.6
20
46.2
30
0
11
8.5
21
46.2
31
0
0
LINE
8
PANEL
10
8.5
20
46.2
30
0
11
8.5
21
44
31
0
0
LINE
8
PANEL
10
9.8
20
44
30
0
11
10.9
21
44
31
0
0
LINE
8
PANEL
10
10.9
20
44
30
0
11
10.9
21
46.2
31
0
0
LINE
8
PANEL
10
10.9
20
46.2
30
0
11
9.8
21
46.2
31
0
0
LINE
8
PANEL
10
9.8
20
46.2
30
0
11
9.8
21
44
31
0
0
LINE
8
PANEL
10
11.1
20
44
30
0
11
12.2
21
44
31
0
0
LINE
8
PANEL
10
12.2
20
44
30
0
11
12.2
21
46.2
31
0
0
LINE
8
PANEL
10
12.2
20
46.2
30
0
11
11.1
21
46.2
31
0
0
LINE
8
PANEL
10
11.1
20
46.2
30
0
11
11.1
21
44
31
0
0
LINE
8
PANEL
10
12.4
20
44
30
0
11
13.5
21
44
31
0
0
LINE
8
PANEL
10
13.5
20
44
30
0
11
13.5
21
46.2
31
0
0
LINE
8
PANEL
10
13.5
20
46.2
30
0
11
12.4
21
46.2
31
0
0
LINE
8
PANEL
10
12.4
20
46.2
30
0
11
12.4
21
44
31
0
0
LINE
8
PANEL
10
13.7
20
44
30
0
11
14.8
21
44
31
0
0
LINE
8
PANEL
10
14.8
20
44
30
0
11
14.8
21
46.2
31
0
0
LINE
8
PANEL
10
14.8
20
46.2
30
0
11
13.7
21
46.2
31
0
0
LINE
8
PANEL
10
13.7
20
46.2
30
0
11
13.7
21
44
31
0
0
LINE
8
PANEL
10
15
20
44
30
0
11
16.1
21
44
31
0
0
LINE
8
PANEL
10
16.1
20
44
30
0
11
16.1
21
46.2
31
0
0
LINE
8
PANEL
10
16.1
20
46.2
30
0
11
15
21
46.2
31
0
0
LINE
8
PANEL
10
15
20
46.2
30
0
11
15
21
44
31
0
0
LINE
8
PANEL
10
16.3
20
44
30
0
11
17.4
21
44
31
0
0
LINE
8
PANEL
10
17.4
20
44
30
0
11
17.4
21
46.2
31
0
0
LINE
8
PANEL
10
17.4
20
46.2
30
0
11
16.3
21
46.2
31
0
0
LINE
8
PANEL
10
16.3
20
46.2
30
0
11
16.3
21
44
31
0
0
LINE
8
PANEL
10
17.6
20
44
30
0
11
18.7
21
44
31
0
0
LINE
8
PANEL
10
18.7
20
44
30
0
11
18.7
21
46.2
31
0
0
LINE
8
PANEL
10
18.7
20
46.2
30
0
11
17.6
21
46.2
31
0
0
LINE
8
PANEL
10
17.6
20
46.2
30
0
11
17.6
21
44
31
0
0
LINE
8
PANEL
10
18.9
20
44
30
0
11
20
21
44
31
0
0
LINE
8
PANEL
10
20
20
44
30
0
11
20
21
46.2
31
0
0
LINE
8
PANEL
10
20
20
46.2
30
0
11
18.9
21
46.2
31
0
0
LINE
8
PANEL
10
18.9
20
46.2
30
0
11
18.9
21
44
31
0
0
LINE
8
PANEL
10
20.2
20
44
30
0
11
21.3
21
44
31
0
0
LINE
8
PANEL
10
21.3
20
44
30
0
11
21.3
21
46.2
31
0
0
LINE
8
PANEL
10
21.3
20
46.2
30
0
11
20.2
21
46.2
31
0
0
LINE
8
PANEL
10
20.2
20
46.2
30
0
11
20.2
21
44
31
0
0
LINE
8
PANEL
10
21.5
20
44
30
0
11
22.6
21
44
31
0
0
LINE
8
PANEL
10
22.6
20
44
30
0
11
22.6
21
46.2
31
0
0
LINE
8
PANEL
10
22.6
20
46.2
30
0
11
21.5
21
46.2
31
0
0
LINE
8
PANEL
10
21.5
20
46.2
30
0
11
21.5
21
44
31
0
0
LINE
8
PANEL
10
22.8
20
44
30
0
11
23.9
21
44
31
0
0
LINE
8
PANEL
10
23.9
20
44
30
0
11
23.9
21
46.2
31
0
0
LINE
8
PANEL
10
23.9
20
46.2
30
0
11
22.8
21
46.2
31
0
0
LINE
8
PANEL
10
22.8
20
46.2
30
0
11
22.8
21
44
31
0
0
LINE
8
PANEL
10
24.1
20
44
30
0
11
25.2
21
44
31
0
0
LINE
8
PANEL
10
25.2
20
44
30
0
11
25.2
21
46.2
31
0
0
LINE
8
PANEL
10
25.2
20
46.2
30
0
11
24.1
21
46.2
31
0
0
LINE
8
PANEL
10
24.1
20
46.2
30
0
11
24.1
21
44
31
0
0
LINE
8
PANEL
10
25.4
20
44
30
0
11
26.5
21
44
31
0
0
LINE
8
PANEL
10
26.5
20
44
30
0
11
26.5
21
46.2
31
0
0
LINE
8
PANEL
10
26.5
20
46.2
30
0
11
25.4
21
46.2
31
0
0
LINE
8
PANEL
10
25.4
20
46.2
30
0
11
25.4
21
44
31
0
0
LINE
8
PANEL
10
26.7
20
44
30
0
11
27.8
21
44
31
0
0
LINE
8
PANEL
10
27.8
20
44
30
0
11
27.8
21
46.2
31
0
0
LINE
8
PANEL
10
27.8
20
46.2
30
0
11
26.7
21
46.2
31
0
0
LINE
8
PANEL
10
26.7
20
46.2
30
0
11
26.7
21
44
31
0
0
LINE
8
PANEL
10
28
20
44
30
0
11
29.1
21
44
31
0
0
LINE
8
PANEL
10
29.1
20
44
30
0
11
29.1
21
46.2
31
0
0
LINE
8
PANEL
10
29.1
20
46.2
30
0
11
28
21
46.2
31
0
0
LINE
8
PANEL
10
28
20
46.2
30
0
11
28
21
44
31
0
0
LINE
8
PANEL
10
29.3
20
44
30
0
11
30.4
21
44
31
0
0
LINE
8
PANEL
10
30.4
20
44
30
0
11
30.4
21
46.2
31
0
0
LINE
8
PANEL
10
30.4
20
46.2
30
0
11
29.3
21
46.2
31
0
0
LINE
8
PANEL
10
29.3
20
46.2
30
0
11
29.3
21
44
31
0
0
LINE
8
PANEL
10
30.6
20
44
30
0
11
31.7
21
44
31
0
0
LINE
8
PANEL
10
31.7
20
44
30
0
11
31.7
21
46.2
31
0
0
LINE
8
PANEL
10
31.7
20
46.2
30
0
11
30.6
21
46.2
31
0
0
LINE
8
PANEL
10
30.6
20
46.2
30
0
11
30.6
21
44
31
0
0
LINE
8
PANEL
10
31.9
20
44
30
0
11
33
21
44
31
0
0
LINE
8
PANEL
10
33
20
44
30
0
11
33
21
46.2
31
0
0
LINE
8
PANEL
10
33
20
46.2
30
0
11
31.9
21
46.2
31
0
0
LINE
8
PANEL
10
31.9
20
46.2
30
0
11
31.9
21
44
31
0
0
LINE
8
PANEL
10
33.2
20
44
30
0
11
34.3
21
44
31
0
0
LINE
8
PANEL
10
34.3
20
44
30
0
11
34.3
21
46.2
31
0
0
LINE
8
PANEL
10
34.3
20
46.2
30
0
11
33.2
21
46.2
31
0
0
LINE
8
PANEL
10
33.2
20
46.2
30
0
11
33.2
21
44
31
0
0
LINE
8
PANEL
10
34.5
20
44
30
0
11
35.6
21
44
31
0
0
LINE
8
PANEL
10
35.6
20
44
30
0
11
35.6
21
46.2
31
0
0
LINE
8
PANEL
10
35.6
20
46.2
30
0
11
34.5
21
46.2
31
0
0
LINE
8
PANEL
10
34.5
20
46.2
30
0
11
34.5
21
44
31
0
0
LINE
8
PANEL
10
35.8
20
44
30
0
11
36.9
21
44
31
0
0
LINE
8
PANEL
10
36.9
20
44
30
0
11
36.9
21
46.2
31
0
0
LINE
8
PANEL
10
36.9
20
46.2
30
0
11
35.8
21
46.2
31
0
0
LINE
8
PANEL
10
35.8
20
46.2
30
0
11
35.8
21
44
31
0
0
LINE
8
PANEL
10
37.1
20
44
30
0
11
38.2
21
44
31
0
0
LINE
8
PANEL
10
38.2
20
44
30
0
11
38.2
21
46.2
31
0
0
LINE
8
PANEL
10
38.2
20
46.2
30
0
11
37.1
21
46.2
31
0
0
LINE
8
PANEL
10
37.1
20
46.2
30
0
11
37.1
21
44
31
0
0
LINE
8
PANEL
10
38.4
20
44
30
0
11
39.5
21
44
31
0
0
LINE
8
PANEL
10
39.5
20
44
30
0
11
39.5
21
46.2
31
0
0
LINE
8
PANEL
10
39.5
20
46.2
30
0
11
38.4
21
46.2
31
0
0
LINE
8
PANEL
10
38.4
20
46.2
30
0
11
38.4
21
44
31
0
0
LINE
8
PANEL
10
39.7
20
44
30
0
11
40.8
21
44
31
0
0
LINE
8
PANEL
10
40.8
20
44
30
0
11
40.8
21
46.2
31
0
0
LINE
8
PANEL
10
40.8
20
46.2
30
0
11
39.7
21
46.2
31
0
0
LINE
8
PANEL
10
39.7
20
46.2
30
0
11
39.7
21
44
31
0
0
LINE
8
PANEL
10
41
20
44
30
0
11
42.1
21
44
31
0
0
LINE
8
PANEL
10
42.1
20
44
30
0
11
42.1
21
46.2
31
0
0
LINE
8
PANEL
10
42.1
20
46.2
30
0
11
41
21
46.2
31
0
0
LINE
8
PANEL
10
41
20
46.2
30
0
11
41
21
44
31
0
0
LINE
8
PANEL
10
42.3
20
44
30
0
11
43.4
21
44
31
0
0
LINE
8
PANEL
10
43.4
20
44
30
0
11
43.4
21
46.2
31
0
0
LINE
8
PANEL
10
43.4
20
46.2
30
0
11
42.3
21
46.2
31
0
0
LINE
8
PANEL
10
42.3
20
46.2
30
0
11
42.3
21
44
31
0
0
LINE
8
PANEL
10
43.6
20
44
30
0
11
44.7
21
44
31
0
0
LINE
8
PANEL
10
44.7
20
44
30
0
11
44.7
21
46.2
31
0
0
LINE
8
PANEL
10
44.7
20
46.2
30
0
11
43.6
21
46.2
31
0
0
LINE
8
PANEL
10
43.6
20
46.2
30
0
11
43.6
21
44
31
0
0
LINE
8
PANEL
10
44.9
20
44
30
0
11
46
21
44
31
0
0
LINE
8
PANEL
10
46
20
44
30
0
11
46
21
46.2
31
0
0
LINE
8
PANEL
10
46
20
46.2
30
0
11
44.9
21
46.2
31
0
0
LINE
8
PANEL
10
44.9
20
46.2
30
0
11
44.9
21
44
31
0
0
LINE
8
PANEL
10
46.2
20
44
30
0
11
47.3
21
44
31
0
0
LINE
8
PANEL
10
47.3
20
44
30
0
11
47.3
21
46.2
31
0
0
LINE
8
PANEL
10
47.3
20
46.2
30
0
11
46.2
21
46.2
31
0
0
LINE
8
PANEL
10
46.2
20
46.2
30
0
11
46.2
21
44
31
0
0
LINE
8
PANEL
10
47.5
20
44
30
0
11
48.6
21
44
31
0
0
LINE
8
PANEL
10
48.6
20
44
30
0
11
48.6
21
46.2
31
0
0
LINE
8
PANEL
10
48.6
20
46.2
30
0
11
47.5
21
46.2
31
0
0
LINE
8
PANEL
10
47.5
20
46.2
30
0
11
47.5
21
44
31
0
0
LINE
8
PANEL
10
48.8
20
44
30
0
11
49.9
21
44
31
0
0
LINE
8
PANEL
10
49.9
20
44
30
0
11
49.9
21
46.2
31
0
0
LINE
8
PANEL
10
49.9
20
46.2
30
0
11
48.8
21
46.2
31
0
0
LINE
8
PANEL
10
48.8
20
46.2
30
0
11
48.8
21
44
31
0
0
LINE
8
PANEL
10
50.1
20
44
30
0
11
51.2
21
44
31
0
0
LINE
8
PANEL
10
51.2
20
44
30
0
11
51.2
21
46.2
31
0
0
LINE
8
PANEL
10
51.2
20
46.2
30
0
11
50.1
21
46.2
31
0
0
LINE
8
PANEL
10
50.1
20
46.2
30
0
11
50.1
21
44
31
0
0
LINE
8
PANEL
10
51.4
20
44
30
0
11
52.5
21
44
31
0
0
LINE
8
PANEL
10
52.5
20
44
30
0
11
52.5
21
46.2
31
0
0
LINE
8
PANEL
10
52.5
20
46.2
30
0
11
51.4
21
46.2
31
0
0
LINE
8
PANEL
10
51.4
20
46.2
30
0
11
51.4
21
44
31
0
0
LINE
8
PANEL
10
52.7
20
44
30
0
11
53.8
21
44
31
0
0
LINE
8
PANEL
10
53.8
20
44
30
0
11
53.8
21
46.2
31
0
0
LINE
8
PANEL
10
53.8
20
46.2
30
0
11
52.7
21
46.2
31
0
0
LINE
8
PANEL
10
52.7
20
46.2
30
0
11
52.7
21
44
31
0
0
LINE
8
PANEL
10
54
20
44
30
0
11
55.1
21
44
31
0
0
LINE
8
PANEL
10
55.1
20
44
30
0
11
55.1
21
46.2
31
0
0
LINE
8
PANEL
10
55.1
20
46.2
30
0
11
54
21
46.2
31
0
0
LINE
8
PANEL
10
54
20
46.2
30
0
11
54
21
44
31
0
0
LINE
8
PANEL
10
55.3
20
44
30
0
11
56.4
21
44
31
0
0
LINE
8
PANEL
10
56.4
20
44
30
0
11
56.4
21
46.2
31
0
0
LINE
8
PANEL
10
56.4
20
46.2
30
0
11
55.3
21
46.2
31
0
0
LINE
8
PANEL
10
55.3
20
46.2
30
0
11
55.3
21
44
31
0
0
LINE
8
PANEL
10
56.6
20
44
30
0
11
57.7
21
44
31
0
0
LINE
8
PANEL
10
57.7
20
44
30
0
11
57.7
21
46.2
31
0
0
LINE
8
PANEL
10
57.7
20
46.2
30
0
11
56.6
21
46.2
31
0
0
LINE
8
PANEL
10
56.6
20
46.2
30
0
11
56.6
21
44
31
0
0
LINE
8
PANEL
10
57.9
20
44
30
0
11
59
21
44
31
0
0
LINE
8
PANEL
10
59
20
44
30
0
11
59
21
46.2
31
0
0
LINE
8
PANEL
10
59
20
46.2
30
0
11
57.9
21
46.2
31
0
0
LINE
8
PANEL
10
57.9
20
46.2
30
0
11
57.9
21
44
31
0
0
LINE
8
PANEL
10
59.2
20
44
30
0
11
60.3
21
44
31
0
0
LINE
8
PANEL
10
60.3
20
44
30
0
11
60.3
21
46.2
31
0
0
LINE
8
PANEL
10
60.3
20
46.2
30
0
11
59.2
21
46.2
31
0
0
LINE
8
PANEL
10
59.2
20
46.2
30
0
11
59.2
21
44
31
0
0
LINE
8
PANEL
10
60.5
20
44
30
0
11
61.6
21
44
31
0
0
LINE
8
PANEL
10
61.6
20
44
30
0
11
61.6
21
46.2
31
0
0
LINE
8
PANEL
10
61.6
20
46.2
30
0
11
60.5
21
46.2
31
0
0
LINE
8
PANEL
10
60.5
20
46.2
30
0
11
60.5
21
44
31
0
0
LINE
8
PANEL
10
61.8
20
44
30
0
11
62.9
21
44
31
0
0
LINE
8
PANEL
10
62.9
20
44
30
0
11
62.9
21
46.2
31
0
0
LINE
8
PANEL
10
62.9
20
46.2
30
0
11
61.8
21
46.2
31
0
0
LINE
8
PANEL
10
61.8
20
46.2
30
0
11
61.8
21
44
31
0
0
LINE
8
PANEL
10
63.1
20
44
30
0
11
64.2
21
44
31
0
0
LINE
8
PANEL
10
64.2
20
44
30
0
11
64.2
21
46.2
31
0
0
LINE
8
PANEL
10
64.2
20
46.2
30
0
11
63.1
21
46.2
31
0
0
LINE
8
PANEL
10
63.1
20
46.2
30
0
11
63.1
21
44
31
0
0
LINE
8
PANEL
10
64.4
20
44
30
0
11
65.5
21
44
31
0
0
LINE
8
PANEL
10
65.5
20
44
30
0
11
65.5
21
46.2
31
0
0
LINE
8
PANEL
10
65.5
20
46.2
30
0
11
64.4
21
46.2
31
0
0
LINE
8
PANEL
10
64.4
20
46.2
30
0
11
64.4
21
44
31
0
0
LINE
8
PANEL
10
65.7
20
44
30
0
11
66.8
21
44
31
0
0
LINE
8
PANEL
10
66.8
20
44
30
0
11
66.8
21
46.2
31
0
0
LINE
8
PANEL
10
66.8
20
46.2
30
0
11
65.7
21
46.2
31
0
0
LINE
8
PANEL
10
65.7
20
46.2
30
0
11
65.7
21
44
31
0
0
LINE
8
PANEL
10
67
20
44
30
0
11
68.1
21
44
31
0
0
LINE
8
PANEL
10
68.1
20
44
30
0
11
68.1
21
46.2
31
0
0
LINE
8
PANEL
10
68.1
20
46.2
30
0
11
67
21
46.2
31
0
0
LINE
8
PANEL
10
67
20
46.2
30
0
11
67
21
44
31
0
0
LINE
8
PANEL
10
68.3
20
44
30
0
11
69.4
21
44
31
0
0
LINE
8
PANEL
10
69.4
20
44
30
0
11
69.4
21
46.2
31
0
0
LINE
8
PANEL
10
69.4
20
46.2
30
0
11
68.3
21
46.2
31
0
0
LINE
8
PANEL
10
68.3
20
46.2
30
0
11
68.3
21
44
31
0
0
LINE
8
PANEL
10
69.6
20
44
30
0
11
70.7
21
44
31
0
0
LINE
8
PANEL
10
70.7
20
44
30
0
11
70.7
21
46.2
31
0
0
LINE
8
PANEL
10
70.7
20
46.2
30
0
11
69.6
21
46.2
31
0
0
LINE
8
PANEL
10
69.6
20
46.2
30
0
11
69.6
21
44
31
0
0
LINE
8
PANEL
10
70.9
20
44
30
0
11
72
21
44
31
0
0
LINE
8
PANEL
10
72
20
44
30
0
11
72
21
46.2
31
0
0
LINE
8
PANEL
10
72
20
46.2
30
0
11
70.9
21
46.2
31
0
0
LINE
8
PANEL
10
70.9
20
46.2
30
0
11
70.9
21
44
31
0
0
LINE
8
PANEL
10
72.2
20
44
30
0
11
73.3
21
44
31
0
0
LINE
8
PANEL
10
73.3
20
44
30
0
11
73.3
21
46.2
31
0
0
LINE
8
PANEL
10
73.3
20
46.2
30
0
11
72.2
21
46.2
31
0
0
LINE
8
PANEL
10
72.2
20
46.2
30
0
11
72.2
21
44
31
0
0
LINE
8
PANEL
10
73.5
20
44
30
0
11
74.6
21
44
31
0
0
LINE
8
PANEL
10
74.6
20
44
30
0
11
74.6
21
46.2
31
0
0
LINE
8
PANEL
10
74.6
20
46.2
30
0
11
73.5
21
46.2
31
0
0
LINE
8
PANEL
10
73.5
20
46.2
30
0
11
73.5
21
44
31
0
0
LINE
8
PANEL
10
74.8
20
44
30
0
11
75.9
21
44
31
0
0
LINE
8
PANEL
10
75.9
20
44
30
0
11
75.9
21
46.2
31
0
0
LINE
8
PANEL
10
75.9
20
46.2
30
0
11
74.8
21
46.2
31
0
0
LINE
8
PANEL
10
74.8
20
46.2
30
0
11
74.8
21
44
31
0
0
LINE
8
PANEL
10
76.1
20
44
30
0
11
77.2
21
44
31
0
0
LINE
8
PANEL
10
77.2
20
44
30
0
11
77.2
21
46.2
31
0
0
LINE
8
PANEL
10
77.2
20
46.2
30
0
11
76.1
21
46.2
31
0
0
LINE
8
PANEL
10
76.1
20
46.2
30
0
11
76.1
21
44
31
0
0
ENDSEC
0
EOF
